<svg width="410" height="400" viewBox="0 0 410 400" fill="none" xmlns="http://www.w3.org/2000/svg">
<path d="M0 0V58.1057H58.8829V0H0ZM4.48006 53.7132V4.37783H54.4626V53.7132H4.48006Z" fill="#BEC7CC"/>
<path d="M341.918 341.191V399.296H400.801V341.191H341.918ZM346.398 394.919V345.583H396.381V394.919H346.398Z" fill="#EBEBEB"/>
<path d="M99.3079 291.236H5.76434V298.208H99.3079V291.236Z" fill="#8F8F8F"/>
<path d="M410 93.7769H279.824V100.749H410V93.7769Z" fill="#263238"/>
<path d="M359.032 359.719H38.409V43.2477H359.032V359.719ZM66.6632 331.816H330.807V71.1803H66.6632V331.816Z" fill="#FFC727"/>
<path d="M409.985 222.267H279.824V93.7769H286.888V215.28H402.922V93.7769H409.985V222.267Z" fill="#263238"/>
<path d="M99.3229 298.208H92.2593V212.848H12.8279V298.208H5.76434V205.876H99.3229V298.208Z" fill="#8F8F8F"/>
<path d="M136.552 167.478C92.8716 211.168 37.9909 303.087 48.1755 321.734C59.5848 342.488 120.394 281.228 120.17 277.646C119.991 274.948 141.391 219.113 157.608 178.503C173.826 137.894 147.349 156.673 136.552 167.478Z" fill="#EB9481"/>
<path d="M120.573 277.719C122.44 271.75 151.545 198.123 159.863 174.833C168.181 151.544 160.476 144.35 136.702 165.679C112.927 187.009 60.8392 258.233 48.9521 296.056C37.4981 332.479 56.4936 332.479 81.567 315.69C102.086 301.938 120.573 277.719 120.573 277.719Z" fill="#455A64"/>
<path d="M143.481 172.268C144.211 173.76 144.714 175.349 144.975 176.985C143.895 175.719 143 174.31 142.317 172.799C141.601 171.302 141.098 169.715 140.823 168.082C141.903 169.348 142.798 170.757 143.481 172.268V172.268ZM66.1556 265.131C66.4188 266.767 66.9218 268.356 67.649 269.848C68.3323 271.359 69.2271 272.769 70.3072 274.034C70.0463 272.398 69.5432 270.809 68.8138 269.318C68.1293 267.811 67.2346 266.407 66.1556 265.146V265.131ZM91.8712 226.468C92.1503 228.1 92.6527 229.686 93.3645 231.185C94.0437 232.694 94.9389 234.098 96.0227 235.356C95.7575 233.721 95.2545 232.132 94.5293 230.639C93.8466 229.132 92.9517 227.728 91.8712 226.468V226.468ZM117.034 223.52C118.69 223.255 120.299 222.759 121.813 222.046C123.347 221.383 124.776 220.504 126.054 219.437C124.397 219.694 122.786 220.191 121.275 220.911C119.749 221.59 118.331 222.484 117.064 223.564L117.034 223.52ZM92.9314 262.626C94.5836 262.366 96.1885 261.869 97.6952 261.152C99.2286 260.481 100.657 259.598 101.936 258.528C100.279 258.787 98.6696 259.284 97.1577 260.002C95.6367 260.688 94.2235 261.587 92.9613 262.67L92.9314 262.626ZM112.524 195.631C114.178 195.36 115.787 194.864 117.303 194.157C118.834 193.483 120.262 192.6 121.544 191.534C119.887 191.791 118.276 192.288 116.765 193.008C115.242 193.698 113.825 194.596 112.554 195.676L112.524 195.631ZM132.834 240.427C130.894 243.139 129.705 246.305 129.384 249.61C131.321 246.896 132.509 243.731 132.834 240.427V240.427ZM82.3884 287.035C80.4483 289.748 79.2592 292.913 78.9387 296.218C80.8788 293.506 82.0679 290.34 82.3884 287.035V287.035ZM110.359 282.908C111.612 283.826 112.996 284.556 114.466 285.075L115.347 284.043H115.242C113.686 283.451 112.051 283.084 110.389 282.952L110.359 282.908ZM60.3614 312.919C57.6133 311.004 54.4065 309.83 51.0579 309.514C52.4273 310.496 53.9372 311.271 55.5379 311.813C57.0851 312.404 58.7089 312.776 60.3614 312.919ZM140.301 202.839C141.673 203.813 143.182 204.582 144.781 205.124C145.868 205.535 146.993 205.841 148.141 206.038C148.141 205.832 148.29 205.611 148.38 205.389C147.368 204.812 146.309 204.319 145.214 203.915C143.637 203.333 141.981 202.985 140.301 202.884V202.839Z" fill="#37474F"/>
<path d="M125.8 331.816H291.846C291.846 331.816 265.458 203.267 201.767 147.564C193.897 140.68 176.141 142.243 164.568 147.932C160.431 149.952 145.572 170.455 141.346 189.839C137.12 209.222 125.322 331.226 125.8 331.816Z" fill="#455A64"/>
<path d="M139.897 197.946C138.598 202.279 137.523 206.79 136.642 211.212C136.642 211.035 136.642 210.858 136.642 210.681C136.642 208.146 136.552 205.566 136.283 203.046C136.274 203.02 136.257 202.997 136.234 202.981C136.212 202.965 136.184 202.957 136.156 202.957C136.129 202.957 136.101 202.965 136.079 202.981C136.056 202.997 136.039 203.02 136.029 203.046C135.706 205.593 135.636 208.165 135.82 210.725C135.82 211.934 135.97 213.158 136.074 214.366C135.716 216.386 135.402 218.405 135.148 220.425C134.656 224.242 133.356 238.481 133.252 241.311C133.252 241.916 133.924 242.004 134.088 241.4C134.865 238.525 136.94 223.844 137.597 220.071C138.874 212.752 139.752 205.372 140.226 197.961C140.211 197.769 139.942 197.769 139.897 197.946Z" fill="#263238"/>
<path d="M194.016 185.358C194.746 186.849 195.249 188.438 195.51 190.074C193.378 187.53 191.953 184.482 191.373 181.23C192.443 182.479 193.333 183.868 194.016 185.358V185.358ZM211.205 242.269C211.466 243.905 211.969 245.495 212.698 246.986C213.382 248.498 214.276 249.907 215.356 251.172C215.096 249.536 214.592 247.947 213.863 246.456C213.18 244.944 212.285 243.535 211.205 242.269V242.269ZM265.1 265.633C265.361 267.269 265.864 268.858 266.593 270.349C267.277 271.885 268.182 273.315 269.281 274.595C269.018 272.959 268.515 271.37 267.788 269.878C267.1 268.344 266.195 266.915 265.1 265.633V265.633ZM225.451 307.48C226.031 310.732 227.456 313.779 229.588 316.324C229.311 314.692 228.809 313.105 228.095 311.607C227.425 310.12 226.551 308.731 225.496 307.48H225.451ZM156.22 226.63C156.485 228.265 156.988 229.854 157.713 231.347C158.396 232.854 159.291 234.258 160.371 235.518C159.798 232.265 158.372 229.216 156.235 226.674L156.22 226.63ZM134.402 271.042C134.672 272.671 135.175 274.254 135.895 275.744C136.563 277.26 137.454 278.671 138.538 279.931C138.273 278.295 137.77 276.707 137.045 275.214C136.39 273.705 135.514 272.3 134.447 271.042H134.402ZM187.192 303.043C187.765 306.297 189.191 309.346 191.328 311.887C191.057 310.254 190.554 308.666 189.835 307.17C189.167 305.682 188.292 304.293 187.237 303.043H187.192ZM237.787 216.459C238.047 218.095 238.551 219.685 239.28 221.176C239.951 222.694 240.847 224.105 241.938 225.362C241.341 222.116 239.918 219.072 237.801 216.518L237.787 216.459ZM173.423 208.662C175.076 208.386 176.684 207.89 178.202 207.188C179.73 206.517 181.154 205.634 182.428 204.564C180.776 204.824 179.171 205.32 177.664 206.038C176.147 206.712 174.734 207.595 173.468 208.662H173.423ZM162.97 261.402C164.618 261.129 166.221 260.633 167.733 259.928C169.267 259.258 170.695 258.374 171.974 257.304C170.318 257.564 168.708 258.061 167.196 258.778C165.678 259.451 164.264 260.335 162.999 261.402H162.97ZM260.62 317.341C262.276 317.077 263.885 316.58 265.399 315.867C266.93 315.193 268.357 314.309 269.64 313.243C267.982 313.501 266.372 313.997 264.861 314.717C263.33 315.392 261.902 316.275 260.62 317.341V317.341ZM162.372 327.158L165.03 326.996L166.046 326.554C167.576 325.877 169.003 324.994 170.287 323.93C168.625 324.19 167.011 324.686 165.493 325.404C164.407 325.873 163.367 326.441 162.387 327.099L162.372 327.158ZM223.286 274.595C226.581 274.023 229.668 272.616 232.246 270.512C228.952 271.084 225.864 272.49 223.286 274.595V274.595ZM173.453 161.98C175.109 161.718 176.719 161.222 178.232 160.506C179.763 159.841 181.187 158.957 182.458 157.882C180.809 158.155 179.206 158.651 177.694 159.356C176.167 160.023 174.744 160.901 173.468 161.965L173.453 161.98ZM168.032 179.005C166.098 181.715 164.909 184.874 164.582 188.173C165.581 186.824 166.366 185.333 166.912 183.751C167.515 182.23 167.893 180.632 168.032 179.005ZM141.659 300.994C139.719 303.707 138.53 306.872 138.21 310.177C139.209 308.826 139.999 307.336 140.554 305.755C141.159 304.229 141.541 302.626 141.689 300.994H141.659ZM212.892 209.605C210.952 212.318 209.763 215.483 209.443 218.788C210.443 217.44 211.229 215.949 211.772 214.366C212.37 212.883 212.757 211.326 212.922 209.738L212.892 209.605ZM192.389 263.304C190.449 266.016 189.259 269.182 188.939 272.487C190.879 269.774 192.068 266.609 192.389 263.304V263.304ZM286.007 331.816H286.44C286.44 331.595 286.44 331.359 286.44 331.138L286.007 331.816ZM239.444 331.816H240.788L240.967 331.359C241.566 329.818 241.938 328.199 242.072 326.554C241.084 327.909 240.299 329.398 239.743 330.976C239.608 331.212 239.504 331.521 239.414 331.816H239.444ZM250.405 288.273C248.471 290.984 247.283 294.143 246.956 297.442C248.89 294.732 250.078 291.573 250.405 288.273V288.273ZM210.189 161.906C208.255 164.616 207.067 167.775 206.74 171.074C207.732 169.722 208.517 168.231 209.069 166.652C209.656 165.128 210.023 163.531 210.159 161.906H210.189ZM169.51 291.619C168.137 290.641 166.628 289.862 165.03 289.305C163.465 288.709 161.82 288.341 160.147 288.214C162.897 290.126 166.103 291.299 169.451 291.619H169.51ZM212.982 331.079C210.234 329.164 207.027 327.99 203.678 327.674C205.045 328.659 206.556 329.435 208.158 329.973C209.694 330.58 211.307 330.972 212.952 331.138L212.982 331.079ZM280.183 293.978C280.886 294.509 281.641 294.968 282.438 295.349L282.094 294.229C281.413 294.112 280.724 294.048 280.033 294.037L280.183 293.978ZM248.972 249.934C246.229 248.051 243.04 246.899 239.713 246.588C241.084 247.568 242.593 248.343 244.193 248.888C245.729 249.454 247.337 249.806 248.972 249.934ZM214.132 293.374C211.382 291.462 208.176 290.289 204.828 289.969C207.576 291.884 210.783 293.057 214.132 293.374V293.374ZM193.419 231.067C190.673 229.158 187.473 227.985 184.13 227.662C185.501 228.646 187.01 229.426 188.61 229.976C190.154 230.56 191.772 230.927 193.419 231.067V231.067ZM149.619 206.274C148.242 205.304 146.734 204.53 145.139 203.974C143.577 203.38 141.938 203.008 140.271 202.869C141.638 203.854 143.148 204.63 144.751 205.168C146.312 205.763 147.951 206.135 149.619 206.274V206.274ZM227.96 191.784C226.588 190.804 225.079 190.024 223.48 189.47C221.921 188.872 220.28 188.505 218.612 188.379C221.36 190.294 224.567 191.468 227.915 191.784H227.96Z" fill="#37474F"/>
<path d="M48.1755 321.763C58.0018 335.634 84.7627 338.287 151.516 351.243C160.744 353.027 191.06 292.091 181.293 289.674C168.988 286.652 120.603 277.513 116.974 277.277C86.4054 275.273 41.5002 312.315 48.1755 321.763Z" fill="#EB9481"/>
<path d="M167.942 286.578C167.942 286.578 196.212 290.809 210.384 297.56C229.334 306.61 241.938 322.117 246.821 328.942C257.006 343.166 271.686 384.527 260.351 390.777C250.092 396.437 237.264 353.41 237.264 353.41C237.264 353.41 257.678 395.14 244.059 399.709C230.439 404.279 218.418 353.499 218.418 353.499C218.418 353.499 238.429 396.85 223.63 399.37C212.444 401.272 198.93 355.887 198.93 355.887C198.93 355.887 215.864 393.268 204.455 395.685C191.836 398.412 176.693 357.287 176.693 357.287C146.617 358.687 131.714 347.205 122.096 337.8C119.767 335.516 167.942 286.578 167.942 286.578Z" fill="#EB9481"/>
<path d="M231.141 338.523C233.71 343.343 236.353 348.207 238.489 353.263C240.624 358.319 242.58 363.389 244.238 368.593C246.529 375.344 248.032 382.332 248.718 389.421C246.568 376.921 239.205 358.82 237.07 353.794C234.934 348.767 233.068 343.652 230.932 338.626C230.887 338.479 231.067 338.42 231.141 338.523Z" fill="#263238"/>
<path d="M212.609 345.804C215.595 352.098 218.866 358.23 221.569 364.657C224.272 371.084 226.333 377.363 228.602 383.922C228.782 384.424 228.438 384.35 228.244 383.849C225.705 377.378 222.853 371.6 220.24 365.158C217.626 358.717 215.267 352.187 212.415 345.863C212.4 345.775 212.564 345.716 212.609 345.804Z" fill="#263238"/>
<path d="M195.569 349.239C200.677 358.614 204.037 368.917 207.098 379.102C207.247 379.604 206.829 379.471 206.635 378.955C202.991 368.961 200.214 361.09 195.241 349.475C195.151 349.224 195.465 349.032 195.569 349.239Z" fill="#263238"/>
<path d="M173.841 286.578L115.362 350.86C115.362 350.86 56.2248 337.461 47.5036 322.5C41.7691 312.639 86.3307 272.723 119.901 277.38L173.841 286.578Z" fill="#455A64"/>
<path d="M124.561 330.873C125.288 332.365 125.791 333.954 126.054 335.589C124.969 334.33 124.079 332.919 123.411 331.403C122.688 329.909 122.186 328.321 121.917 326.686C122.992 327.953 123.882 329.362 124.561 330.873V330.873ZM78.6251 318.904C78.9001 320.536 79.4026 322.124 80.1185 323.62C80.7975 325.134 81.6926 326.544 82.7766 327.807C82.5158 326.171 82.0126 324.581 81.2833 323.09C80.6 321.578 79.7052 320.169 78.6251 318.904V318.904ZM106.013 312.211C109.308 311.64 112.395 310.233 114.973 308.128C113.319 308.4 111.711 308.896 110.195 309.602C108.685 310.277 107.278 311.155 106.013 312.211V312.211ZM82.4182 287.153C80.4782 289.866 79.2891 293.031 78.9686 296.336C80.9086 293.624 82.0977 290.458 82.4182 287.153V287.153ZM141.689 301.068C139.749 303.78 138.56 306.946 138.24 310.251C139.239 308.9 140.029 307.409 140.584 305.829C141.186 304.278 141.558 302.65 141.689 300.994V301.068ZM169.525 291.678C168.152 290.7 166.643 289.921 165.045 289.364C163.48 288.768 161.835 288.4 160.162 288.273C162.912 290.185 166.118 291.358 169.466 291.678H169.525ZM119.692 286.387C118.319 285.411 116.81 284.637 115.212 284.087C113.655 283.479 112.014 283.107 110.344 282.982C113.092 284.897 116.299 286.07 119.648 286.387H119.692ZM101.264 342.901C99.8901 341.926 98.3814 341.152 96.7843 340.601C95.2198 340 93.5746 339.627 91.901 339.496C94.651 341.407 97.8569 342.58 101.205 342.901H101.264ZM51.9837 310.251C53.0793 310.911 54.2401 311.459 55.4482 311.887C57.0132 312.49 58.6578 312.867 60.3315 313.007C58.9517 312.039 57.4445 311.26 55.8515 310.693C54.7108 310.278 53.5369 309.957 52.3421 309.735L51.9837 310.251Z" fill="#37474F"/>
<path d="M79.8048 287.861C85.2257 283.984 100.488 274.948 119.946 277.351C120.125 277.351 120.125 277.661 119.946 277.646C105.281 277.233 85.4796 284.81 79.9392 288.111C79.7899 288.156 79.6704 287.934 79.8048 287.861Z" fill="#263238"/>
<path d="M99.3378 340.1C105.386 332.73 111.822 325.61 118.288 318.55C124.755 311.489 131.206 304.399 137.851 297.486C141.6 293.58 145.318 289.659 149.231 285.886C149.32 285.782 149.514 285.886 149.425 286.033C143.451 293.403 136.97 300.552 130.564 307.642C124.157 314.732 117.646 321.807 111.15 328.794C107.447 332.745 103.683 336.621 99.7709 340.409C99.5469 340.586 99.1885 340.321 99.3378 340.1Z" fill="#263238"/>
<path d="M174.006 285.753C170.412 284.689 166.75 283.867 163.044 283.291C159.356 282.598 155.652 281.979 151.934 281.39C144.572 280.225 129.085 276.968 115.466 276.968C115.317 276.968 116.093 277.69 116.243 277.675C122.724 277.336 169.167 286.519 172.99 286.726C172.83 286.97 172.69 287.226 172.572 287.492C172.497 287.669 172.691 287.92 172.885 287.772C173.363 287.463 173.707 287.065 174.155 286.711C174.242 286.655 174.311 286.576 174.354 286.483C174.397 286.389 174.411 286.285 174.395 286.184C174.379 286.083 174.334 285.988 174.265 285.912C174.196 285.835 174.106 285.78 174.006 285.753V285.753Z" fill="#263238"/>
<path d="M345.577 97.0935C345.92 89.2222 344.307 53.0056 341.575 43.0118C338.842 33.018 328.866 4.87898 320.907 6.16137C312.947 7.44376 315.202 15.9194 315.202 15.9194C315.202 15.9194 309.094 4.68735 301.194 6.70675C293.294 8.72615 297.252 21.8007 297.252 21.8007C297.252 21.8007 290.114 10.7161 282.393 13.2809C274.672 15.8457 280.9 28.3306 280.9 28.3306C280.9 28.3306 274.926 17.9093 269.386 22.6704C262.815 28.3895 276.166 46.3726 278.346 57.6193C278.839 60.1693 284.648 110.065 284.648 110.065L345.577 97.0935Z" fill="#EB9481"/>
<path d="M280.362 27.2693C290.144 40.5354 292.1 47.994 293.19 64.1197C293.19 64.1862 293.217 64.2499 293.264 64.2969C293.312 64.3439 293.377 64.3703 293.444 64.3703C293.511 64.3703 293.576 64.3439 293.623 64.2969C293.671 64.2499 293.698 64.1862 293.698 64.1197C294.086 48.2593 292.996 38.5308 280.974 26.7681C280.392 26.1932 279.884 26.6355 280.362 27.2693Z" fill="#263238"/>
<path d="M296.46 20.7689C305.421 35.4059 307.601 43.4983 309.99 60.2873C309.99 60.5231 310.438 60.4937 310.423 60.2873C309.467 43.6309 308.153 33.9614 297.282 20.4888C296.789 19.8255 296.042 20.1056 296.46 20.7689Z" fill="#263238"/>
<path d="M315.307 16.7891C322.923 31.5292 325.76 40.3733 325.924 56.9413C325.924 57.0234 325.957 57.1021 326.016 57.1602C326.075 57.2182 326.155 57.2508 326.238 57.2508C326.321 57.2508 326.401 57.2182 326.46 57.1602C326.518 57.1021 326.552 57.0234 326.552 56.9413C328.045 39.9901 324.595 29.0381 315.784 16.5827C315.187 15.7573 314.829 15.8604 315.307 16.7891Z" fill="#263238"/>
<path d="M285.126 120.383C285.126 120.383 269.968 106.306 264.697 98.6707C259.425 91.0353 250.361 55.423 258.037 52.9762C267.952 49.9249 277.286 69.4704 280.586 79.6264C280.586 79.6264 303.509 72.5364 313.291 85.1245C323.072 97.7126 285.126 120.383 285.126 120.383Z" fill="#EB9481"/>
<path d="M261.038 53.0941C272.119 56.7496 275.583 70.3548 279.541 79.9801C279.593 80.1205 279.678 80.2466 279.789 80.3481C279.9 80.4496 280.035 80.5235 280.18 80.5638C280.326 80.6041 280.48 80.6097 280.628 80.5799C280.777 80.5502 280.916 80.4861 281.034 80.3929C290.845 78.0492 305.376 77.5775 313.335 84.5496C313.357 84.5728 313.383 84.5916 313.412 84.6049C313.441 84.6183 313.472 84.6258 313.504 84.6272C313.536 84.6286 313.568 84.6237 313.598 84.6129C313.628 84.6021 313.655 84.5856 313.679 84.5643C313.702 84.543 313.721 84.5174 313.735 84.4888C313.748 84.4603 313.756 84.4294 313.757 84.3979C313.759 84.3664 313.754 84.335 313.743 84.3054C313.732 84.2757 313.715 84.2486 313.694 84.2253C306.227 75.5876 291.861 74.9095 281.273 78.1524C277.39 68.2322 273.299 54.7302 261.038 52.9909C261.008 52.9762 260.978 53.0793 261.038 53.0941Z" fill="#263238"/>
<path d="M192.598 166.785C202.573 183.81 260.202 236.314 310.423 245.409C317.248 246.647 343.202 241.238 348.623 224.242C358.285 193.981 350.565 131.497 345.637 93.8949C344.666 86.5248 275.583 101.648 277.375 112.865C279.362 125.277 286.754 170.912 285.619 171.428C281.482 173.315 237.324 154.506 208.338 148.33C187.789 143.967 184.922 153.725 192.598 166.785Z" fill="#EB9481"/>
<path d="M355.373 112.453L276.644 129.271C276.644 129.271 283.812 168.981 282.393 168.745C280.974 168.51 225.765 148.64 204.47 146.547C183.175 144.454 183.16 153.696 194.016 171.045C204.873 188.394 275.554 246.588 310.379 246.588C328.12 246.588 344.636 235.371 347.847 230.02C357.852 213.305 355.373 112.453 355.373 112.453Z" fill="#455A64"/>
<path d="M355.373 112.453L276.644 129.271C276.644 129.271 283.812 168.981 282.393 168.745C280.974 168.51 225.765 148.64 204.47 146.547C183.175 144.454 183.16 153.696 194.016 171.045C204.873 188.394 275.554 246.588 310.379 246.588C328.12 246.588 344.636 235.371 347.847 230.02C357.852 213.305 355.373 112.453 355.373 112.453Z" fill="#455A64"/>
<path d="M239.892 163.631C240.464 166.885 241.89 169.935 244.029 172.475C243.761 170.84 243.258 169.252 242.536 167.758C241.852 166.268 240.962 164.879 239.892 163.631V163.631ZM302.464 232.909C303.03 236.163 304.451 239.212 306.586 241.753C306.325 240.117 305.822 238.528 305.092 237.037C304.391 235.576 303.497 234.213 302.434 232.983L302.464 232.909ZM348.758 185.358C349.037 186.989 349.539 188.576 350.251 190.074C350.925 191.586 351.82 192.992 352.909 194.246C352.646 192.615 352.143 191.031 351.416 189.544C350.74 188.064 349.866 186.681 348.817 185.431L348.758 185.358ZM280.213 185.549C280.792 188.801 282.218 191.849 284.349 194.393C283.77 191.141 282.345 188.094 280.213 185.549ZM314.709 205.139C314.977 206.773 315.48 208.362 316.203 209.856C316.86 211.417 317.756 212.868 318.861 214.16C318.591 212.526 318.088 210.938 317.367 209.443C316.705 207.92 315.83 206.497 314.769 205.213L314.709 205.139ZM311.723 157.381C312.296 160.635 313.722 163.684 315.859 166.225C315.589 164.596 315.086 163.013 314.366 161.523C313.685 160.05 312.795 158.68 311.723 157.454V157.381ZM346.757 121.872C347.027 123.51 347.53 125.103 348.25 126.603C348.922 128.116 349.818 129.522 350.908 130.775C350.633 129.142 350.131 127.555 349.415 126.058C348.715 124.578 347.822 123.195 346.757 121.945V121.872ZM206.725 171.001C207.706 169.641 208.49 168.152 209.055 166.579C209.659 165.039 210.031 163.42 210.16 161.773C209.17 163.128 208.385 164.618 207.83 166.195C207.219 167.759 206.846 169.403 206.725 171.074V171.001ZM253.347 202.766C254.342 201.414 255.127 199.924 255.677 198.344C256.279 196.802 256.656 195.184 256.797 193.538C255.81 194.895 255.026 196.384 254.467 197.96C253.853 199.523 253.475 201.168 253.347 202.839V202.766ZM288.352 166.991C290.292 164.279 291.481 161.113 291.801 157.808C290.817 159.166 290.033 160.655 289.472 162.23C288.875 163.758 288.498 165.36 288.352 166.991ZM292.832 218.788C293.813 217.428 294.597 215.94 295.161 214.366C295.765 212.82 296.142 211.197 296.281 209.546C294.341 212.259 293.152 215.424 292.832 218.729V218.788ZM337.737 213.187C338.727 211.832 339.512 210.343 340.066 208.765C340.667 207.223 341.044 205.605 341.186 203.96C339.253 206.67 338.064 209.829 337.737 213.128V213.187ZM323.58 139.973C324.558 138.611 325.342 137.123 325.909 135.551C326.512 134.004 326.889 132.381 327.029 130.731C325.093 133.445 323.904 136.609 323.58 139.914V139.973ZM328.881 181.525C329.867 180.168 330.652 178.679 331.211 177.103C331.817 175.559 332.189 173.935 332.316 172.283C331.336 173.644 330.552 175.132 329.986 176.705C329.394 178.271 329.041 179.915 328.941 181.584L328.881 181.525ZM218.597 188.306C221.337 190.237 224.548 191.412 227.901 191.711C226.524 190.74 225.016 189.966 223.421 189.411C221.889 188.846 220.286 188.494 218.657 188.365L218.597 188.306ZM301.881 186.419C303.254 187.396 304.763 188.171 306.361 188.718C307.923 189.311 309.562 189.683 311.23 189.824C309.856 188.85 308.347 188.075 306.75 187.524C305.206 186.949 303.587 186.596 301.941 186.478L301.881 186.419ZM294.026 137.585C295.392 138.573 296.903 139.349 298.506 139.884C300.066 140.484 301.706 140.856 303.375 140.99C301.997 140.021 300.489 139.247 298.895 138.69C297.349 138.121 295.731 137.769 294.086 137.644L294.026 137.585ZM338.707 152.914C340.078 153.894 341.588 154.669 343.188 155.214C344.754 155.81 346.398 156.182 348.071 156.319C345.323 154.405 342.116 153.231 338.767 152.914H338.707ZM264.383 219.142C265.753 220.124 267.263 220.899 268.863 221.442C270.423 222.041 272.063 222.414 273.732 222.547C272.354 221.579 270.846 220.805 269.252 220.248C267.706 219.679 266.088 219.326 264.443 219.201L264.383 219.142ZM324.222 232.054C326.961 233.986 330.173 235.161 333.526 235.459C330.777 233.545 327.571 232.371 324.222 232.054ZM259.739 166.313C261.109 167.298 262.619 168.077 264.219 168.628C265.786 169.217 267.43 169.584 269.102 169.718C267.725 168.75 266.217 167.976 264.622 167.419C263.072 166.848 261.448 166.496 259.799 166.372L259.739 166.313Z" fill="#37474F"/>
<path d="M281.796 169.129C282.393 175.059 283.436 180.936 284.917 186.714C286.246 192.61 288.098 198.27 289.86 204.019C289.86 204.151 290.099 204.019 290.069 203.945C288.575 198.167 287.455 192.286 286.171 186.448C284.887 180.611 283.976 174.745 282.468 168.996C282.378 168.613 281.766 168.76 281.796 169.129Z" fill="#263238"/>
<path d="M281.273 143.967C290.397 141.727 299.626 139.973 308.855 138.233C318.084 136.494 327.343 134.755 336.632 133.251C341.873 132.396 347.085 131.526 352.401 130.848C352.536 130.848 352.596 131.055 352.401 131.084C343.292 133.325 334.063 135.123 324.864 136.98C315.665 138.838 306.376 140.474 297.103 142.095C291.861 143.009 286.649 143.82 281.333 144.498C281.139 144.454 281.019 144.026 281.273 143.967Z" fill="#263238"/>
<path d="M255.289 223.343C253.795 222.075 252.302 220.999 250.719 219.805L246.239 216.4C243.252 214.101 240.161 211.816 237.13 209.502C231.067 204.874 225.183 200.098 219.105 195.396C215.68 192.713 212.29 189.991 208.935 187.23C208.801 187.126 208.607 187.318 208.741 187.436C212.878 191.268 217.044 195.071 221.345 198.727L219.717 197.946C218.074 197.135 216.462 196.265 214.849 195.381C214.835 195.373 214.82 195.368 214.804 195.366C214.788 195.364 214.773 195.365 214.757 195.369C214.742 195.374 214.728 195.381 214.715 195.39C214.703 195.4 214.692 195.412 214.684 195.425C214.677 195.439 214.672 195.454 214.67 195.469C214.668 195.485 214.669 195.5 214.673 195.515C214.677 195.53 214.684 195.545 214.694 195.557C214.703 195.569 214.716 195.58 214.729 195.587C216.23 196.671 217.802 197.655 219.433 198.535C220.225 198.963 221.046 199.361 221.867 199.729L223.062 200.245C224.033 201.056 225.004 201.867 226.049 202.663C232.022 207.438 238.095 212.042 244.268 216.474C245.97 217.712 247.702 218.906 249.48 220.056C251.257 221.206 253.123 222.591 255.08 223.653C255.259 223.682 255.438 223.461 255.289 223.343Z" fill="#263238"/>
<path d="M165.329 175.143C175.379 177.088 191.881 161.405 198.183 148.964C198.616 148.109 196.958 139.368 195.48 128.652C194.599 122.137 193.777 114.87 193.509 108.193C193.509 106.807 151.426 119.985 151.426 119.985C151.426 119.985 156.16 133.841 156.548 145.5C156.581 146.423 156.521 147.346 156.369 148.257C156.369 148.375 156.369 148.537 156.369 148.714C155.637 153.991 155.622 173.256 165.329 175.143Z" fill="#EB9481"/>
<path d="M160.655 148.787C159.204 148.914 157.745 148.914 156.294 148.787C156.294 148.61 156.294 148.478 156.294 148.33C156.447 147.425 156.507 146.506 156.473 145.589C156.085 133.929 151.366 120.073 151.366 120.073C151.366 120.073 185.474 109.357 192.269 108.281C191.298 115.946 185.683 147.284 160.655 148.787Z" fill="#263238"/>
<path d="M203.873 67.1562C207.143 82.3828 195.435 124.525 183.906 133.148C167.211 145.662 141.734 144.807 131.445 125.409C121.469 106.601 137.702 51.959 150.396 44.3384C169.152 33.0327 199.079 44.6479 203.873 67.1562Z" fill="#EB9481"/>
<path d="M164.209 91.4333C164.209 91.3301 164.388 91.6396 164.359 91.7428C163.492 94.5729 162.985 97.9337 165.329 99.5698C165.351 99.5796 165.368 99.5975 165.376 99.6197C165.385 99.6418 165.384 99.6663 165.374 99.6878C165.364 99.7093 165.346 99.726 165.324 99.7343C165.301 99.7426 165.276 99.7418 165.255 99.732C162.208 98.4349 162.925 93.9686 164.209 91.4333Z" fill="#263238"/>
<path d="M167.584 89.1485C172.303 90.0329 170.168 99.3045 165.792 98.479C161.417 97.6536 163.627 88.4115 167.584 89.1485Z" fill="#263238"/>
<path d="M147.633 87.3945C147.633 87.2765 147.379 87.4829 147.349 87.6008C146.782 90.5489 145.647 93.7033 142.869 94.0718C142.779 94.0718 142.75 94.2192 142.869 94.2339C146.095 94.5287 147.573 90.2541 147.633 87.3945Z" fill="#263238"/>
<path d="M145.736 83.8421C141.137 82.3681 138.628 91.6102 142.899 92.9073C147.17 94.2045 149.589 85.0213 145.736 83.8421Z" fill="#263238"/>
<path d="M172.751 84.5938C171.517 84.1629 170.306 83.671 169.122 83.1198C167.765 82.7547 166.567 81.9566 165.717 80.8498C165.521 80.4514 165.463 80.0004 165.552 79.5662C165.641 79.1321 165.872 78.7388 166.21 78.4472C166.968 77.9703 167.841 77.7023 168.739 77.6712C169.637 77.6401 170.528 77.847 171.317 78.2703C173.053 78.8764 174.497 80.1015 175.364 81.7047C175.527 82.0785 175.578 82.4902 175.511 82.8915C175.445 83.2928 175.264 83.6671 174.989 83.9704C174.715 84.2737 174.359 84.4935 173.962 84.6039C173.566 84.7143 173.146 84.7109 172.751 84.5938V84.5938Z" fill="#263238"/>
<path d="M143.183 78.3587C144.498 78.3931 145.814 78.3537 147.125 78.2408C148.52 78.3923 149.926 78.0867 151.127 77.3711C151.461 77.073 151.686 76.6745 151.767 76.2375C151.848 75.8004 151.781 75.3492 151.575 74.9537C151.046 74.2364 150.332 73.6713 149.508 73.3164C148.684 72.9615 147.779 72.8296 146.886 72.9343C145.043 72.8708 143.242 73.4914 141.839 74.6737C141.533 74.9593 141.318 75.3268 141.22 75.7311C141.123 76.1354 141.147 76.5591 141.29 76.9501C141.432 77.3412 141.687 77.6827 142.024 77.9329C142.36 78.183 142.763 78.331 143.183 78.3587V78.3587Z" fill="#263238"/>
<path d="M160.745 117.685C159.893 118.201 158.997 118.968 157.922 118.82C156.831 118.547 155.812 118.044 154.935 117.346C154.917 117.337 154.897 117.333 154.877 117.335C154.857 117.337 154.838 117.345 154.822 117.357C154.806 117.37 154.794 117.387 154.788 117.406C154.782 117.425 154.781 117.445 154.786 117.464C155.071 118.122 155.532 118.691 156.118 119.111C156.704 119.532 157.395 119.788 158.116 119.852C158.744 119.831 159.352 119.626 159.862 119.264C160.372 118.902 160.763 118.399 160.983 117.818C161.088 117.73 160.879 117.612 160.745 117.685Z" fill="#263238"/>
<path d="M159.669 108.414C158.671 109.383 157.481 110.138 156.172 110.63C154.864 111.123 153.467 111.342 152.068 111.274C150.844 111.231 149.632 111.018 148.469 110.64C148.241 110.588 148.02 110.509 147.812 110.404C147.599 110.336 147.39 110.257 147.185 110.168C147.036 110.102 146.913 109.99 146.835 109.849C146.757 109.708 146.728 109.546 146.752 109.387V109.387C146.766 109.289 146.796 109.194 146.841 109.107V109.107V108.856C147.304 106.63 148.335 103.329 148.335 103.329C147.424 103.55 142.824 104.464 143.153 103.329C145.945 93.9096 149.037 83.4293 153.815 74.6295C153.841 74.563 153.892 74.5094 153.958 74.4803C154.024 74.4513 154.099 74.4493 154.166 74.4747C154.234 74.5001 154.288 74.5509 154.317 74.6158C154.347 74.6808 154.349 74.7546 154.323 74.8211C152.023 83.9747 148.096 92.6862 145.632 101.855C147.269 101.504 148.948 101.385 150.62 101.501C150.918 101.663 148.589 107.869 148.469 108.871C148.46 108.905 148.46 108.94 148.469 108.974C152.113 110.301 155.204 109.814 159.43 108.134C159.714 108.031 159.908 108.222 159.669 108.414Z" fill="#263238"/>
<path d="M149.977 110.979C151.109 112.74 152.683 114.182 154.547 115.165C155.576 115.674 156.741 115.849 157.877 115.666C160.356 115.253 160.61 113.072 160.341 111.156C160.181 110.145 159.906 109.156 159.52 108.208C156.721 110.115 153.377 111.086 149.977 110.979V110.979Z" fill="#263238"/>
<path d="M154.592 115.165C155.621 115.674 156.786 115.849 157.922 115.666C160.401 115.253 160.655 113.072 160.386 111.156C157.713 111.185 154.995 112.703 154.592 115.165Z" fill="#FF9ABB"/>
<path d="M195.57 104.773C195.57 104.773 211.19 81.9553 210.503 68.2912C210.204 62.1151 201.916 57.5604 201.916 57.5604C202.696 55.086 202.76 52.4457 202.1 49.9374C201.441 47.4292 200.084 45.1529 198.183 43.3656C191.164 36.1577 173.244 36.821 173.244 36.821C173.244 36.821 162.522 19.7666 145.826 25.5005C129.13 31.2344 138.882 50.0576 138.882 50.0576C138.882 50.0576 132.445 58.1647 146.782 65.4611C160.73 72.5659 190.238 67.7016 190.238 67.7016C188.379 77.5483 188.021 87.6141 189.178 97.5652C189.463 99.2327 190.212 100.789 191.34 102.062C192.469 103.334 193.933 104.273 195.57 104.773V104.773Z" fill="#263238"/>
<path d="M170.451 36.8946C174.175 35.6185 178.125 35.1166 182.055 35.4206C185.581 35.5436 189.06 36.2563 192.344 37.5284C198.123 39.9016 203.141 44.4416 203.798 50.7946C203.97 52.3744 203.816 53.9723 203.346 55.4921C202.877 57.0118 202.101 58.4223 201.065 59.6387C200.975 59.7271 200.826 59.6387 200.916 59.4765C204.933 55.0545 203.305 47.6844 199.602 43.6898C195.405 39.1056 188.73 37.1157 182.652 36.5556C178.603 36.2966 174.536 36.5194 170.541 37.2189C170.503 37.217 170.467 37.2034 170.438 37.18C170.408 37.1567 170.387 37.1247 170.377 37.0888C170.367 37.0528 170.369 37.0147 170.382 36.9798C170.396 36.945 170.42 36.9151 170.451 36.8946V36.8946Z" fill="#263238"/>
<path d="M133.775 32.7084C135.358 28.2864 139.434 25.5447 143.914 24.3802C149.069 23.1039 154.508 23.5604 159.371 25.6774C164.25 27.8417 168.456 31.2507 171.556 35.5533C171.631 35.6565 171.467 35.7744 171.392 35.6859C165.598 28.1979 156.19 23.6432 146.573 25.1615C142.287 25.8395 137.911 27.7852 135.746 31.7061C134.82 33.5672 134.318 35.6061 134.277 37.6791C134.236 39.7522 134.656 41.809 135.507 43.7046C137.727 48.2024 141.19 51.9888 145.497 54.6271C145.587 54.6271 145.497 54.8334 145.408 54.7744C141.316 52.5472 137.863 49.3319 135.372 45.4292C134.196 43.5464 133.445 41.4357 133.169 39.2407C132.894 37.0456 133.1 34.8177 133.775 32.7084V32.7084Z" fill="#263238"/>
<path d="M143.228 66.0507C149.62 68.987 156.576 70.5351 163.627 70.5907C170.936 70.7427 178.242 70.115 185.415 68.7187C189.596 67.9374 193.763 67.0088 197.884 65.9917C197.912 65.9917 197.939 66.0026 197.958 66.0219C197.978 66.0413 197.989 66.0675 197.989 66.0949C197.989 66.1223 197.978 66.1485 197.958 66.1679C197.939 66.1872 197.912 66.1981 197.884 66.1981C190.644 68.8527 183.141 70.7499 175.499 71.8583C168.366 72.8132 161.114 72.3927 154.144 70.6201C150.328 69.601 146.656 68.1155 143.213 66.1981C143.063 66.1391 143.138 66.0065 143.228 66.0507Z" fill="#263238"/>
<path d="M188.939 102.4C188.939 102.4 200.229 89.6202 206.217 93.7475C212.205 97.8747 202.648 117.111 194.897 119.071C193.919 119.388 192.887 119.507 191.861 119.42C190.836 119.333 189.838 119.043 188.929 118.567C188.02 118.091 187.218 117.438 186.57 116.648C185.922 115.859 185.443 114.948 185.161 113.971L188.939 102.4Z" fill="#EB9481"/>
<path d="M203.305 99.1866C203.324 99.1943 203.341 99.2075 203.353 99.2245C203.365 99.2416 203.371 99.2618 203.371 99.2824C203.371 99.303 203.365 99.3232 203.353 99.3403C203.341 99.3573 203.324 99.3706 203.305 99.3782C197.854 100.852 194.584 105.407 192.12 110.168C193.882 108.429 196.107 107.603 198.496 109.711C198.631 109.814 198.496 110.021 198.332 109.962C197.443 109.577 196.455 109.473 195.504 109.663C194.553 109.853 193.684 110.328 193.016 111.023C191.913 112.199 190.941 113.489 190.119 114.87C189.82 115.312 188.999 114.973 189.238 114.457C189.238 114.457 189.238 114.384 189.238 114.339C189.895 107.765 196.077 99.0982 203.305 99.1866Z" fill="#263238"/>
<path d="M153.099 156.865C153.099 156.776 153.248 156.865 153.248 156.865C153.248 165.075 153.711 184.075 167.987 182.218C173.737 181.466 178.814 177.973 183.01 174.597C187.252 171.13 191.102 167.22 194.494 162.938C198.395 158.325 201.892 153.394 204.948 148.198C205.067 147.977 205.411 148.198 205.306 148.404C202.84 153.871 199.743 159.04 196.077 163.807C192.57 168.634 188.41 172.964 183.712 176.676C179.232 180.169 173.796 183.662 167.689 184.193C165.122 184.505 162.524 183.966 160.302 182.661C158.08 181.356 156.361 179.36 155.413 176.985C152.77 170.794 152.412 163.395 153.099 156.865Z" fill="#263238"/>
</svg>
