<svg width="1490" height="670" viewBox="0 0 1490 670" fill="none" xmlns="http://www.w3.org/2000/svg">
<path d="M1484.98 224.449C1469.33 322.508 1419.38 411.835 1344.02 476.542C1268.67 541.249 1172.78 577.14 1073.44 577.827C1053.31 578.6 1033.17 577.377 1013.28 574.179C971.704 567.118 933.803 546.024 905.903 514.415C878.003 482.807 861.789 442.594 859.967 400.484C860.368 353.516 879.232 308.589 912.488 275.399C945.741 242.211 990.721 223.423 1037.72 223.091C1084.71 222.759 1129.95 240.91 1163.67 273.625C1197.39 306.342 1216.89 350.997 1217.96 397.954C1218.71 427.612 1205.85 453.627 1179.43 454.378C1151.21 454.378 1137.97 434.248 1137.97 407.12V331.737C1137.99 319.547 1133.17 307.847 1124.59 299.19C1116 290.532 1104.33 285.619 1092.14 285.522H1028.91C1010.52 285.395 992.388 289.876 976.177 298.557C959.966 307.238 946.191 319.841 936.11 335.215C926.029 350.588 919.962 368.24 918.465 386.56C916.968 404.879 920.088 423.281 927.541 440.085C934.993 456.889 946.54 471.558 961.127 482.754C975.713 493.949 992.874 501.313 1011.04 504.173C1029.21 507.03 1047.8 505.292 1065.13 499.117C1082.45 492.941 1097.94 482.526 1110.2 468.823L1112.41 465.528L1114.63 469.186C1122.23 479.511 1132.27 487.798 1143.85 493.311C1155.43 498.823 1168.2 501.39 1181.01 500.783C1203.86 499.124 1225.14 488.607 1240.33 471.478C1255.52 454.349 1263.41 431.964 1262.31 409.104C1262.53 389.487 1260.33 369.917 1255.76 350.838C1244.03 296.942 1212.76 249.29 1167.96 217.074C1123.17 184.858 1068.03 170.354 1013.18 176.359C958.318 182.365 907.628 208.453 870.877 249.596C834.123 290.741 813.909 344.027 814.133 399.182C814.838 457.667 838.198 513.602 879.305 555.234C920.408 596.865 976.06 620.952 1034.56 622.431C1034.56 622.431 1051.12 623.936 1069.79 623.507C1160.53 622.933 1249.22 596.487 1325.44 547.276C1326.52 546.522 1327.61 548.027 1326.89 549.125C1289.78 589.075 1244.4 620.46 1193.92 641.094C1143.43 661.728 1089.06 671.115 1034.57 668.601C998.95 669.247 963.568 662.675 930.559 649.282C897.551 635.888 867.599 615.951 842.512 590.672C817.422 565.392 797.716 535.296 784.582 502.197C771.447 469.099 765.157 433.686 766.091 398.092C766.108 355.657 776.028 313.811 795.063 275.879C814.097 237.946 841.722 204.974 875.742 179.58C921.46 145.933 976.71 127.704 1033.49 127.535H1118.35C1151.5 127.511 1184.28 120.587 1214.6 107.206C1244.92 93.8245 1272.13 74.2786 1294.48 49.813C1294.95 49.2897 1295.58 48.9316 1296.27 48.7912C1296.96 48.6418 1297.68 48.7133 1298.33 48.9954C1298.97 49.2775 1299.51 49.7559 1299.87 50.363C1300.24 50.9723 1300.4 51.6787 1300.34 52.3876C1296.75 90.5061 1284.05 127.205 1263.32 159.403C1263.01 159.962 1262.87 160.599 1262.92 161.235C1262.97 161.871 1263.2 162.479 1263.59 162.985C1263.98 163.491 1264.5 163.873 1265.1 164.086C1265.7 164.3 1266.35 164.335 1266.97 164.187C1306.14 155.343 1342.69 137.434 1373.67 111.899C1404.65 86.3643 1429.21 53.9178 1445.35 17.1702C1445.76 16.5135 1446.33 15.9682 1447 15.5818C1447.68 15.2004 1448.44 15 1449.22 15C1450 15 1450.76 15.2004 1451.44 15.5818C1452.11 15.9658 1452.68 16.5111 1453.08 17.1702C1486.34 80.8428 1497.56 153.732 1484.98 224.449V224.449ZM1034.34 330.796C1024.58 330.794 1014.94 332.956 1006.12 337.126C997.294 341.296 989.504 347.37 983.312 354.911C977.119 362.451 972.677 371.271 970.306 380.734C967.935 390.197 967.693 400.068 969.599 409.635C972.146 422.432 978.433 434.187 987.664 443.413C996.895 452.64 1008.66 458.924 1021.46 461.471C1031.03 463.374 1040.91 463.131 1050.38 460.76C1059.85 458.389 1068.67 453.949 1076.21 447.759C1083.76 441.57 1089.84 433.786 1094.01 424.967C1098.18 416.148 1100.34 406.514 1100.34 396.759V335.175C1100.28 333.997 1099.79 332.883 1098.95 332.048C1098.12 331.214 1097 330.72 1095.82 330.661L1034.34 330.796Z" fill="#702AF7"/>
<path d="M501.327 46.3207C523.962 78.005 498.359 130.029 531.702 153.688C564.158 176.718 603.324 137.998 633.892 157.793C679.237 187.16 672.451 323.786 607.506 409.313C587.973 435.036 571.534 445.136 564.511 474.063C549.43 536.189 605.109 572.475 594.912 603.215C571.945 672.462 208.163 734.191 59.7716 528.373C-9.53239 432.248 -21.2129 292.51 38.6736 185.65C146.9 -7.42628 450.536 -24.7749 501.327 46.3207Z" fill="#B4B2F4"/>
<path d="M156.532 462.852C167.984 464.438 187.261 467.11 206.729 457.223C242.127 439.248 255.181 391.436 252.61 355.994C250.409 325.552 232.871 298.326 197.797 243.874C164.765 192.593 150.382 181.798 154.769 161.84C161.025 133.391 196.587 126.541 198.91 92.2547C199.19 88.1404 200.146 74.0101 191.263 64.4195C176.065 47.998 142.713 56.4011 124.655 65.6142C107.249 74.5238 83.6201 94.6297 82.9128 119.397C82.4014 137.341 94.3591 142.487 90.4831 157.418C86.5856 172.439 73.3065 171.753 57.5636 192.16C51.2741 200.313 38.6521 216.674 39.4239 236.138C40.4252 261.306 62.9187 268.871 58.983 287.6C56.1418 301.128 43.4696 301.599 37.1418 315.858C28.814 334.629 40.6307 356.686 50.7077 374.912C62.5746 396.384 94.5909 454.27 156.532 462.852Z" fill="#D8DEE8"/>
<g style="mix-blend-mode:screen" opacity="0.16">
<path d="M180.424 69.0046C186.988 81.0203 142.36 97.6521 130.039 142.857C116.781 191.496 149.012 243.54 163.907 267.59C189.318 308.624 207.362 311.625 218.242 348.998C222.544 363.79 231.519 394.605 214.732 422.772C213.171 425.388 195.347 454.31 164.848 456.972C130.258 459.999 105.662 426.967 84.4708 398.487C71.6648 381.284 46.0838 346.919 58.0439 329.16C65.3538 318.303 85.0109 316.152 98.6246 319.49C118.057 324.252 127.843 340.848 130.935 338.604C133.719 336.581 128.457 321.163 118.031 306.488C97.1526 277.119 76.9124 280.683 62.8303 256.033C61.1241 253.046 47.9453 229.168 58.0941 207.86C63.9487 195.57 77.7153 183.815 88.796 186.242C101.325 188.99 105.01 208.701 108.788 207.595C112.398 206.546 111.225 187.893 107.371 169.627C101.707 142.786 94.978 139.147 95.401 124.156C96.0509 101.284 112.408 85.2111 114.793 82.9461C137.129 61.6217 174.813 58.7307 180.424 69.0046Z" fill="white"/>
</g>
<path d="M251.778 235.977C261.337 240.825 273.328 236.374 278.578 226.033C283.828 215.692 280.344 203.383 270.793 198.535C270.298 198.296 269.794 198.071 269.287 197.871C271.042 192.224 272.382 186.457 273.294 180.615C273.844 180.615 274.391 180.615 274.95 180.553C285.847 179.583 294.495 169.562 294.266 158.194C294.036 146.826 285.02 138.377 274.124 139.35C273.555 139.4 272.996 139.491 272.439 139.589C271.311 133.982 269.752 128.47 267.774 123.103C268.276 122.811 268.773 122.508 269.261 122.166C278.58 115.636 281.563 102.748 275.918 93.3801C270.274 84.0117 258.135 81.7156 248.815 88.2479C248.337 88.5824 247.888 88.9431 247.443 89.3111C243.737 85.2173 239.693 81.4425 235.354 78.0265C235.66 77.5224 235.961 77.0135 236.234 76.4783C241.491 66.1374 248.344 54.8433 238.719 50.1459C216.455 39.2771 206.899 48.581 201.649 58.9194C201.376 59.457 201.142 59.9994 200.917 60.5441C195.598 59.055 190.162 58.0159 184.668 57.438C184.701 56.8622 184.728 56.2864 184.716 55.7034C184.477 44.3256 187.865 38.1684 176.928 37.9558C153.077 37.4923 145.031 47.8427 145.258 59.2204C145.258 59.8154 145.32 60.396 145.38 60.9742C139.882 62.5431 134.513 64.5345 129.322 66.9307C129.083 66.4241 128.815 65.92 128.521 65.4302C122.882 56.069 110.747 53.7609 101.425 60.298C92.1033 66.8351 89.1234 79.7157 94.7701 89.0841C95.0592 89.562 95.3747 90.0136 95.6973 90.458C91.5177 94.6414 87.6512 99.1262 84.1291 103.876C83.6679 103.587 83.1995 103.303 82.6953 103.052C73.1368 98.204 61.1456 102.655 55.8956 112.994C50.6456 123.332 54.1321 135.647 63.681 140.494C64.1757 140.733 64.6823 140.958 65.1889 141.159C63.4353 146.804 62.0983 152.571 61.1887 158.412C60.6414 158.412 60.0918 158.412 59.5326 158.471C48.6383 159.444 39.9903 169.462 40.2173 180.833C40.4443 192.203 49.4651 200.647 60.3594 199.677C60.9282 199.627 61.4897 199.536 62.0322 199.438C63.1612 205.045 64.7215 210.557 66.6991 215.924C66.1973 216.216 65.6979 216.519 65.2104 216.861C55.8908 223.391 52.9086 236.278 58.5529 245.647C64.1972 255.015 82.8913 259.369 92.2132 252.839C92.6911 252.504 86.5832 250.091 87.0277 249.733C90.7327 253.827 94.7767 257.602 99.1168 261.017C98.8086 261.521 98.5075 262.03 98.2351 262.565C92.9779 272.906 96.4715 285.218 106.023 290.066C115.574 294.914 127.57 290.463 132.82 280.122C133.093 279.587 133.327 279.044 133.554 278.5C138.874 279.989 144.309 281.028 149.803 281.606C149.77 282.181 149.743 282.757 149.755 283.34C149.994 294.718 159.001 303.155 169.898 302.184C180.794 301.214 189.442 291.194 189.213 279.823C189.213 279.228 189.151 278.648 189.094 278.069C194.592 276.5 199.961 274.508 205.152 272.111C205.391 272.619 205.656 273.124 205.952 273.613C211.597 282.982 223.731 285.283 233.053 278.753C242.375 272.223 245.355 259.333 239.711 249.964C239.422 249.486 239.104 249.037 238.783 248.593C242.962 244.409 246.827 239.924 250.349 235.175C250.815 235.442 251.284 235.727 251.778 235.977ZM132.725 237.497C98.0511 219.895 85.3932 175.192 104.458 137.651C123.522 100.111 167.09 83.9376 201.759 101.547C236.427 119.156 249.09 163.852 230.028 201.393C210.966 238.933 167.4 255.089 132.725 237.497Z" fill="url(#paint0_linear)"/>
<path d="M274.951 180.553C285.847 179.583 294.495 169.562 294.266 158.194C294.036 146.826 285.02 138.377 274.124 139.35C273.555 139.4 272.996 139.491 272.439 139.589C271.311 133.982 269.751 128.47 267.774 123.103C268.276 122.811 268.773 122.508 269.261 122.166C278.58 115.636 290.115 99.8574 283.539 91.1055C271.058 74.5477 258.135 81.7156 248.815 88.2479C248.337 88.5824 247.888 88.9432 247.443 89.3087C243.737 85.2163 239.693 81.4423 235.354 78.0265C235.66 77.5224 235.961 77.0135 236.234 76.4783C239.101 70.8491 239.34 64.6465 237.455 59.371C228.452 75.2231 219.584 91.1421 210.849 107.128C238.511 127.394 247.317 167.338 230.025 201.388C215.375 230.243 186.247 246.445 157.809 244.414C156.54 247.704 155.292 251.013 153.935 254.27C150.248 263.11 146.049 271.769 141.867 280.418C144.502 280.915 147.149 281.304 149.808 281.584C149.775 282.16 149.748 282.736 149.76 283.319C149.999 294.697 156.898 304.364 176.646 303.317C187.569 302.739 189.447 291.179 189.218 279.802C189.218 279.207 189.156 278.626 189.098 278.048C194.597 276.478 199.965 274.486 205.157 272.089C205.396 272.598 205.661 273.102 205.957 273.592C211.601 282.96 231.187 286.941 240.509 280.411C249.831 273.881 245.36 259.311 239.715 249.943C239.426 249.465 239.108 249.016 238.788 248.571C242.966 244.387 246.831 239.902 250.354 235.153C250.815 235.442 251.284 235.727 251.788 235.977C261.346 240.825 273.337 236.374 278.588 226.033C283.838 215.692 280.353 203.383 270.802 198.535C270.307 198.296 269.803 198.071 269.297 197.871C271.052 192.224 272.391 186.457 273.304 180.615C273.844 180.613 274.384 180.603 274.951 180.553Z" fill="url(#paint1_linear)"/>
<path d="M262.051 237.146C271.61 241.994 283.601 237.542 288.851 227.202C294.101 216.861 290.614 204.551 281.066 199.703C280.568 199.45 280.064 199.24 279.558 199.039C281.315 193.393 282.655 187.626 283.567 181.784C284.115 181.784 284.664 181.784 285.223 181.722C296.118 180.752 304.766 170.731 304.539 159.363C304.312 147.994 295.291 139.546 284.397 140.516C283.826 140.568 283.266 140.657 282.712 140.755C281.583 135.148 280.023 129.636 278.045 124.269C278.547 123.975 279.046 123.674 279.534 123.332C288.853 116.802 291.836 103.912 286.189 94.5437C280.542 85.1753 268.41 82.884 259.09 89.4139C258.613 89.7508 258.163 90.1116 257.719 90.4771C254.014 86.3829 249.97 82.6088 245.63 79.1949C245.938 78.6908 246.239 78.1819 246.509 77.6443C251.766 67.3058 248.275 54.9938 238.724 50.146C229.172 45.2981 217.176 49.7493 211.926 60.0878C211.654 60.623 211.42 61.1677 211.193 61.7125C205.873 60.2232 200.437 59.1841 194.943 58.6064C194.979 58.033 195.005 57.4572 194.993 56.8742C194.755 45.4964 185.748 37.0574 174.851 38.0299C163.955 39.0023 155.307 49.0206 155.536 60.3912C155.536 60.9838 155.598 61.5668 155.655 62.1426C150.162 63.7132 144.797 65.7038 139.609 68.0967C139.37 67.5901 139.105 67.086 138.809 66.5962C133.164 57.2278 121.03 54.9269 111.708 61.4569C102.386 67.9868 99.406 80.8746 105.05 90.243C105.339 90.7208 105.657 91.1724 105.977 91.6144C101.8 95.7998 97.9343 100.285 94.4116 105.035C93.9505 104.744 93.4821 104.462 92.9779 104.211C83.4194 99.3629 71.4306 103.814 66.1806 114.153C60.9306 124.491 64.4147 136.805 73.966 141.653C74.4606 141.892 74.9649 142.114 75.4715 142.317C73.7164 147.964 72.3763 153.731 71.4617 159.573C70.9144 159.573 70.3648 159.573 69.808 159.633C58.9113 160.605 50.2633 170.623 50.4927 181.994C50.7221 193.365 59.7381 201.808 70.6349 200.838C71.2036 200.788 71.7628 200.697 72.3076 200.599C73.4354 206.207 74.9949 211.718 76.9722 217.085C76.4703 217.379 75.9733 217.683 75.4858 218.024C66.1662 224.554 63.1816 237.442 68.8283 246.81C74.475 256.179 86.6071 258.48 95.9291 251.95C96.407 251.615 96.8562 251.255 97.3007 250.887C101.007 254.98 105.051 258.755 109.39 262.171C109.084 262.673 108.783 263.184 108.51 263.719C103.253 274.06 106.747 286.372 116.296 291.22C125.845 296.068 137.846 291.617 143.096 281.276C143.368 280.741 143.602 280.196 143.827 279.651C149.147 281.14 154.582 282.179 160.076 282.757C160.043 283.333 160.016 283.909 160.026 284.492C160.265 295.87 169.274 304.306 180.168 303.336C191.063 302.366 199.713 292.346 199.486 280.975C199.486 280.38 199.424 279.799 199.364 279.221C204.862 277.651 210.231 275.659 215.422 273.262C215.661 273.771 215.929 274.275 216.223 274.765C221.87 284.134 234.002 286.434 243.326 279.904C252.65 273.375 255.628 260.484 249.981 251.116C249.692 250.638 249.377 250.187 249.054 249.745C253.232 245.56 257.099 241.075 260.622 236.326C261.088 236.611 261.557 236.895 262.051 237.146ZM142.998 238.656C108.322 221.052 95.6662 176.35 114.728 138.81C133.79 101.27 177.365 85.106 212.029 102.71C246.693 120.315 259.361 165.013 240.298 202.556C221.236 240.099 177.673 256.258 142.998 238.656Z" fill="url(#paint2_linear)"/>
<path d="M440.972 332.505C440.972 332.505 461.353 341.765 461.686 343.244C462.018 344.723 448.581 342.747 443.092 342.963C437.603 343.178 433.094 341.553 433.591 339.23C434.088 336.908 436.007 331.062 436.007 331.062L440.972 332.505Z" fill="url(#paint3_linear)"/>
<path d="M441.718 324.988L440.48 334.163C440.48 334.163 437.252 335.312 435.084 333.952L434.159 323.891L441.718 324.988Z" fill="url(#paint4_linear)"/>
<path d="M345.738 325.208L343.368 329.014C343.04 329.539 342.822 330.125 342.729 330.737C342.636 331.348 342.668 331.973 342.825 332.572C343.655 335.735 345.308 341.89 346.032 343.51C347.014 345.701 360.203 347 360.203 347C360.203 347 361.378 345.347 358.64 343.347C355.901 341.347 354.143 341.034 353.177 338.091C352.212 335.147 351.564 326.799 351.564 326.799L345.738 325.208Z" fill="url(#paint5_linear)"/>
<path d="M355.605 315.538C354.74 316.229 350.503 329.083 350.503 329.083C350.503 329.083 349.132 330.837 346.527 328.249C343.922 325.662 345.356 327.095 345.356 327.095L345.834 314.451L355.605 315.538Z" fill="url(#paint6_linear)"/>
<path d="M452.932 140.659C454.008 168.026 454.051 197.763 452.476 229.526C450.703 265.296 447.14 298.359 442.647 328.328C440.975 328.381 439.225 328.39 437.39 328.328C436.152 328.291 434.954 328.233 433.794 328.151C430.831 320.249 428.31 312.188 426.243 304.005C423.903 294.698 422.142 285.255 420.969 275.73C417.045 244.732 421.645 242.027 418.46 219.054C415.637 198.707 411.628 197.914 406.918 169.027C401.809 137.682 405.613 132.98 407.462 131.277C415.339 124.063 433.834 128.985 452.932 140.659Z" fill="url(#paint7_linear)"/>
<path style="mix-blend-mode:multiply" opacity="0.3" d="M407.465 131.296C414.975 124.398 432.15 128.572 450.292 139.099C429.423 161.644 427.146 176.269 429.648 185.759C432.477 196.485 441.073 199.574 441.042 211.301C441.001 225.713 427.992 229.531 428.269 244.782C428.451 254.865 434.167 254.76 435.517 267.215C437.115 281.952 429.645 287.032 432.066 297.934C433.106 302.626 436.076 308.755 444.535 315.07C443.926 319.547 443.3 323.98 442.647 328.328C440.975 328.381 439.225 328.39 437.39 328.328C436.152 328.295 434.954 328.236 433.794 328.154C430.831 320.251 428.31 312.19 426.243 304.008C423.903 294.7 422.142 285.257 420.969 275.733C417.045 244.734 421.645 242.029 418.46 219.056C415.637 198.709 411.628 197.916 406.918 169.027C401.811 137.694 405.615 132.992 407.465 131.296Z" fill="url(#paint8_linear)"/>
<path d="M440.005 140.198C402.304 195.328 373.844 256.234 355.744 320.52C353.866 321.39 351.782 321.712 349.729 321.452C347.092 321.073 344.676 319.768 342.914 317.77C340.594 303.343 340.069 288.685 341.351 274.13C341.97 267.184 343.06 255.613 347.49 241.329C352.451 225.321 355.854 224.43 362.334 207.504C369.052 189.934 367.424 185.549 373.857 163.563C377.727 150.389 382.528 137.506 388.224 125.012L440.005 140.198Z" fill="url(#paint9_linear)"/>
<path d="M528.738 153.468C529.666 160.044 515.259 170.91 502.02 169.758C483.959 168.172 468.883 144.246 467.277 125.241C466.933 121.179 467.184 117.079 466.355 116.958C464.252 116.649 458.849 141.601 454.607 162.755C451.197 164.003 446.029 165.329 440.119 164.359C430.451 162.777 429.301 156.77 418.488 152.854C412.177 150.57 405.995 150.563 393.636 150.553C379.681 150.553 379.298 152.262 376.608 151.014C376.182 150.777 375.769 150.518 375.37 150.238C365.429 143.104 393.865 88.8834 385.674 38.8399C384.763 33.2776 383.368 27.5672 386.474 22.0002C394.504 7.61667 426.231 5.58817 445.885 15.0545C451.274 17.6493 460.297 23.3262 468.348 29.309C471.569 31.6983 474.917 34.3767 478.413 37.4326C489.236 46.887 496.4 55.5577 497.647 57.137C516.186 80.5759 488.402 124.352 507.877 142.394C516.367 150.247 527.938 147.782 528.738 153.468Z" fill="url(#paint10_linear)"/>
<path d="M470.269 9.85779C470.269 9.85779 465.167 15.6518 459.681 18.6527C454.724 21.367 443.799 16.7963 441.28 16.2635C438.762 15.7307 441.785 22.5329 446.554 27.2255C451.324 31.9181 467.088 42.6436 471.342 42.8251C475.596 43.0067 470.656 39.2818 468.047 34.9405C465.437 30.5992 469.115 21.6417 472.41 18.8797C475.705 16.1177 470.269 9.85779 470.269 9.85779Z" fill="url(#paint11_linear)"/>
<path d="M481.995 14.3902C487.785 13.9506 493.635 6.82099 492.454 3.70775C492.115 2.81894 491.362 2.67797 480.028 0.809547C474.398 -0.117495 471.586 -0.499781 469.641 1.04848C468.446 2.00419 467.526 3.69103 467.234 5.28946C467.084 6.11376 467.074 7.24628 467.215 9.50416C467.342 11.5064 467.304 11.4156 467.356 12.0105C467.483 13.4321 467.87 15.9313 469.256 19.3982C469.96 18.6204 470.732 17.9064 471.562 17.2646C472.639 16.4273 473.818 15.7319 475.072 15.1954C477.947 14.0438 480.114 14.5336 481.995 14.3902Z" fill="url(#paint12_linear)"/>
<path d="M467.139 15.5323C467.139 15.5323 467.397 21.0731 472.618 23.5053C477.292 25.682 483.496 15.9241 481.789 12.1969C481.221 10.9544 479.457 9.60209 477.651 9.18397C476.582 8.94504 476.059 9.15052 474.324 8.70611C472.723 8.30232 472.413 7.92959 471.794 8.05384C471.019 8.20914 470.035 9.09079 469.299 12.5314C468.914 11.1886 468.063 10.2878 467.148 10.2329C466.824 10.2316 466.505 10.3201 466.228 10.4885C464.957 11.3152 465.203 13.3676 467.139 15.5323Z" fill="url(#paint13_linear)"/>
<path d="M406.547 155.196C398.062 157.184 378.763 160.28 363.281 149.566C337.506 131.733 326.798 95.6737 330.954 76.9537C338.529 42.8251 391.261 13.5301 399.433 13.5325C420.572 13.5325 440.955 53.9616 431.309 67.7334C428.149 72.242 419.688 64.9595 409.398 69.922C406.053 71.5372 375.05 76.1676 373.229 96.1038C371.955 110.057 392.776 137.696 408.748 146.257L406.547 155.196Z" fill="url(#paint14_linear)"/>
<path d="M597.976 380.95C597.976 433.378 581.506 482.016 553.583 522.047C553.474 522.211 553.082 522.369 553.082 522.524C509.268 586.71 434.195 628.293 349.98 628.293C343.093 628.293 336.495 627.973 329.752 627.041C329.726 627.041 329.711 627.45 329.683 627.45C326.363 627.175 323.07 627.048 319.789 626.642C318.623 626.506 317.457 626.458 316.298 626.296C315.268 626.157 314.248 626.057 313.225 625.909C312.334 625.777 311.447 625.67 310.57 625.522C310.37 625.488 310.171 625.467 309.973 625.44C307.822 625.082 305.657 624.712 303.509 624.301H303.475C188.979 602.434 102.465 501.79 102.465 380.935C102.465 355.384 106.178 330.732 113.369 307.539C114.494 303.902 115.894 300.309 116.826 296.749C119.625 290.816 121.498 284.994 124.072 279.278C125.106 276.994 126.251 274.724 127.343 272.474C133.366 260.162 140.4 248.371 148.372 237.222C149.089 236.214 149.839 235.213 150.573 234.212C153.509 230.218 156.568 226.316 159.749 222.504C164.504 216.799 169.505 211.314 174.751 206.049C188.43 192.317 203.668 180.231 220.154 170.036C225.263 166.874 230.498 163.897 235.859 161.104C271.182 142.678 310.446 133.086 350.288 133.15C409.283 133.15 463.461 153.755 506.011 188.163C537.315 213.475 562.762 246.244 578.775 283.773C582.359 292.154 584.778 300.772 588.506 309.594C588.506 309.634 588.08 309.661 588.092 309.701C594.855 332.287 597.976 356.194 597.976 380.95Z" fill="url(#paint15_linear)"/>
<g style="mix-blend-mode:soft-light">
<g style="mix-blend-mode:soft-light">
<path d="M404.272 464.479C398.956 471.97 382.503 481.589 393.665 500.479C404.731 519.323 392.898 522.857 385.282 521.093C377.666 519.33 353.854 518.377 357.818 529.181C361.782 539.985 368.571 544.052 359.871 548.228C351.17 552.405 347.481 563.245 338.567 578.192C329.726 593.166 308.682 580.216 314.91 595.226C321.137 610.235 325.976 608.787 325.393 619.248C325.255 622.115 327.164 625.07 329.742 627.878C326.421 627.603 323.087 627.266 319.78 626.862C318.614 626.724 317.448 626.573 316.289 626.408C315.259 626.272 314.238 626.129 313.216 625.969C312.324 625.84 311.439 625.703 310.561 625.558C310.36 625.524 310.413 625.491 310.214 625.462C308.087 625.106 306.983 624.721 304.185 624.318C302.321 622.547 303.49 620.626 303.772 618.555C306.551 599.237 279.895 585.965 275.428 572.429C271.039 558.93 275.373 550.878 274.358 539.696C273.342 528.514 276.967 513.72 270.534 504.309C264.102 494.897 238.191 491.789 233.256 472.863C228.288 453.988 239.842 425.696 244.327 420.879C248.76 416.065 222.871 394.155 210.55 393.455C198.172 392.7 203.123 367.787 182.199 371.581C161.233 375.256 123.568 363.56 131.348 350.981C137.769 340.616 148.553 317.753 113.359 307.558C114.485 303.924 115.878 300.328 116.81 296.768C119.608 290.835 121.481 285.013 124.055 279.298C125.09 277.013 126.234 274.744 127.326 272.493C133.354 260.184 140.387 248.393 148.355 237.241C149.072 236.233 149.822 235.232 150.556 234.231C153.5 230.238 156.559 226.335 159.732 222.523C164.488 216.818 169.488 211.333 174.734 206.068C188.414 192.336 203.651 180.25 220.137 170.055C227.105 174.938 235.065 177.939 241.94 174.238C258.797 164.808 247.675 163.36 240.781 163.009C238.982 162.894 237.259 162.236 235.842 161.121C248.898 154.304 262.543 148.677 276.609 144.308C275.56 153.822 262.627 169.106 272.143 167.245C283.216 165.14 287.737 135.228 295.867 145.163C304.114 155.145 286.844 168.227 303.062 160.646C319.312 153.141 321.462 136.39 339.568 144.539C357.756 152.792 356.095 162.559 361.173 161.592C366.251 160.624 382.584 171.627 372.691 180.67C362.71 189.738 353.557 178.185 338.593 174.697C323.625 171.254 323.988 183.497 317.101 186.297C310.095 188.999 276.305 172.678 268.011 187.427C259.628 202.066 256.063 212.276 268.506 211.903C280.948 211.53 281.739 208.336 280.767 217.527C279.794 226.719 282.036 233.614 293.3 224.965C304.565 216.316 302.013 207.903 310.795 212.02C319.577 216.137 320.619 212.412 329.965 205.626C339.31 198.841 351.588 198.136 354.817 213.358C358.045 228.58 352.532 231.994 336.106 232.771C319.68 233.547 317.816 228.387 312.582 242.12C307.349 255.854 285.639 273.504 266.561 280.774C247.482 288.045 240.05 298.823 240.49 313.345C240.929 327.867 233.78 343.237 228.998 331.248C224.216 319.258 210.736 298.973 197.001 312.506C183.265 326.039 159.288 350.042 185.755 354.426C212.17 358.892 198.387 334.148 211.738 339.094C225.089 344.04 203.29 354.983 212.216 358.925C221.141 362.868 224.881 361.037 224.811 373.199C224.742 385.36 227.77 397.159 238.602 392C249.434 386.842 263.335 363.032 278.987 377.129C294.639 391.226 293.563 389.422 301.786 385.305C310.009 381.189 315.24 393.517 318.607 399.127C321.974 404.737 335.191 399.013 345.899 415.709C356.607 432.405 360.8 435.382 373.007 429.373C385.213 423.364 390.186 427.83 393.369 436.259C396.552 444.689 404.057 436.453 407.68 447.592C411.303 458.731 409.554 456.989 404.272 464.479Z" fill="white"/>
</g>
<g style="mix-blend-mode:soft-light">
<path d="M446.067 262.202C437.417 243.64 480.282 245.716 487.854 247.15C495.477 248.418 513.357 234.446 515.627 227.949C517.959 221.405 521.787 224.514 535.351 224.327C548.907 224.184 536.928 221.118 522.007 216.204C507.086 211.289 519.856 210.806 506.118 199.968C500.211 195.221 502.07 191.188 506.008 188.189C537.554 213.683 562.382 246.508 578.326 283.799C577.912 283.668 577.483 283.594 577.05 283.579C567.556 283.524 565.462 262.534 560.561 258.446C555.739 254.365 560.697 269.977 561.878 276.39C563.058 282.803 559.278 277.412 554.544 283.304C549.81 289.196 541.208 289.313 540.431 280.466C539.654 271.618 533.42 262.967 520.791 258.934C508.161 254.9 497.231 258.217 486.968 262.171C476.769 266.058 454.78 280.621 446.067 262.202Z" fill="white"/>
</g>
<g style="mix-blend-mode:soft-light">
<path d="M553.684 522.539C554.539 516.167 555.94 509.579 553.278 507.173C546.809 501.171 545.392 484.817 547.638 476.531C549.884 468.245 567.307 468.696 555.481 454.903C543.619 441.066 532.93 424.645 537.91 415.241C542.89 405.836 541.382 405.177 532.043 405.232C522.705 405.287 518.597 405.71 509.287 397.386C499.967 388.961 487.154 417.264 452.091 394.566C417.033 371.629 436.998 333.001 450.134 332.906C463.356 332.686 478.81 326.01 467.966 309.89C457.167 293.71 474.045 291.425 482.291 295.1C490.552 298.737 505.198 288.969 520.126 284.566C535.09 280.181 534.431 304.555 542.739 309.431C551.103 314.315 566.753 310.439 574.889 302.634C580.701 297.064 581.97 303.558 587.712 309.725C594.628 332.831 598.129 356.824 598.105 380.943C598.105 433.59 581.69 482.399 553.684 522.539Z" fill="white"/>
</g>
<g style="mix-blend-mode:soft-light">
<path d="M490.966 231.306C490.966 231.292 501.898 226.361 497.941 218.416C493.984 210.472 487.792 186.127 483.238 193.79C478.664 201.5 485.407 216.469 483.935 222.939C482.463 229.409 482.416 232.795 490.966 231.306Z" fill="white"/>
</g>
<g style="mix-blend-mode:soft-light">
<path d="M480.057 223.878C479.904 221.317 481.517 210.919 473.333 211.246C473.349 211.229 461.497 216.175 468.429 224.576C475.361 232.976 480.236 226.427 480.057 223.878Z" fill="white"/>
</g>
</g>
<path style="mix-blend-mode:multiply" opacity="0.3" d="M597.316 380.517C597.316 432.945 581.179 481.584 553.256 521.612C553.152 521.75 553.091 521.917 553.082 522.09V522.09C508.329 586.292 433.866 627.682 349.657 627.682C342.782 627.665 335.916 627.178 329.107 626.224V626.224C329.08 626.224 329.066 626.838 329.04 626.838C325.718 626.564 322.425 626.53 319.147 626.122C317.98 625.983 316.814 625.988 315.653 625.823C314.625 625.684 313.603 625.62 312.58 625.462C311.689 625.331 310.804 625.235 309.925 625.092C309.727 625.058 309.528 625.042 309.328 625.013C307.177 624.657 305.012 624.296 302.876 623.876H302.821C196.939 603.655 114.996 516.007 103.258 407.37C128.086 478.571 189.481 532.091 264.962 546.998H264.99C266.842 547.93 268.702 547.741 270.568 548.052C270.74 548.071 270.917 548.133 271.089 548.159C271.844 548.283 272.611 548.398 273.38 548.518C274.257 548.656 275.144 548.756 276.035 548.883C277.037 549.026 278.038 549.122 279.049 549.23C281.88 549.581 284.722 550.226 287.589 550.458C287.615 550.458 287.63 550.728 287.651 550.728C293.475 550.728 299.279 551.205 305.227 551.205C341.59 551.205 375.857 541.964 405.83 526.015C435.741 510.068 461.413 487.215 480.714 459.354C480.714 459.211 480.953 459.017 481.037 458.876C505.153 424.311 519.271 382.281 519.271 337.006C519.29 316.175 516.263 295.452 510.286 275.496C510.286 275.46 510.2 275.42 510.2 275.386C508.336 267.772 505.332 260.334 502.245 253.092C490.332 225.166 472.62 200.09 450.282 179.525C427.945 158.959 401.492 143.374 372.677 133.802C421.265 138.266 467.437 157.042 505.349 187.754C536.653 213.067 561.964 245.833 577.977 283.364C581.561 291.746 583.843 300.362 587.571 309.183C587.571 309.223 587.282 309.252 587.294 309.293C594.059 331.855 597.316 355.767 597.316 380.517Z" fill="url(#paint16_linear)"/>
<path d="M318.377 328.67C318.377 367.166 264.436 437.416 240.026 467.234C238.601 468.974 236.808 470.376 234.776 471.338C232.744 472.301 230.523 472.8 228.274 472.8C226.025 472.8 223.804 472.301 221.772 471.338C219.74 470.376 217.946 468.974 216.522 467.234C192.109 437.416 138.175 367.166 138.175 328.67C138.175 278.915 178.515 238.579 228.279 238.579C278.043 238.579 318.377 278.915 318.377 328.67Z" fill="url(#paint17_linear)"/>
<path d="M263.808 364.198C283.432 344.577 283.432 312.764 263.808 293.142C244.184 273.52 212.366 273.52 192.742 293.142C173.117 312.764 173.117 344.577 192.742 364.198C212.366 383.82 244.184 383.82 263.808 364.198Z" fill="white"/>
<g style="mix-blend-mode:multiply" opacity="0.3">
<path style="mix-blend-mode:multiply" opacity="0.3" d="M227.875 430.246C233.591 392.605 258.462 380.548 254.185 345.015C249.264 304.024 212.966 293.108 212.089 256.628C211.968 250.897 212.698 245.181 214.254 239.664C171.152 246.399 138.175 283.682 138.175 328.67C138.175 367.166 192.114 437.416 216.526 467.234C218.196 469.28 220.373 470.854 222.839 471.8C225.306 472.745 227.977 473.028 230.587 472.622C226.214 456.136 226.083 442.058 227.875 430.246Z" fill="url(#paint18_linear)"/>
</g>
<path d="M89.4269 656.222C86.3037 659.373 85.0371 662.756 86.1722 664.737C86.956 666.109 88.6909 666.465 90.5906 666.83C93.5896 667.406 96.7153 667.251 103.143 665.435C109.146 663.741 112.673 662.744 112.676 661.304C112.676 659.954 109.593 658.914 106.886 657.985C103.821 656.947 100.624 656.353 97.3915 656.222H89.4269Z" fill="url(#paint19_linear)"/>
<path d="M182.749 605.113C181.344 605.719 179.54 606.785 179.057 608.563C178.3 611.356 181.287 614.242 186.063 618.741C189.648 622.117 194.492 626.678 196.176 625.529C197.209 624.812 196.599 622.291 196.031 619.933C195.347 617.095 193.837 612.701 190.095 607.886L182.749 605.113Z" fill="url(#paint20_linear)"/>
<path d="M96.2756 649.278L89.5535 656.731C89.3945 656.906 89.2827 657.118 89.2288 657.349C89.1748 657.579 89.1806 657.819 89.2454 658.047C89.3102 658.274 89.432 658.481 89.5993 658.649C89.7665 658.816 89.9737 658.938 90.2011 659.003C91.6731 659.414 93.7258 659.746 95.6089 659.213C96.022 659.085 96.3966 658.856 96.6985 658.546L103.406 651.995L96.2756 649.278Z" fill="url(#paint21_linear)"/>
<path d="M186.474 600.614L182.861 605.834C182.741 606.009 182.658 606.207 182.619 606.416C182.58 606.624 182.585 606.839 182.634 607.046C182.683 607.252 182.775 607.446 182.904 607.615C183.033 607.784 183.196 607.923 183.382 608.025C183.958 608.345 184.557 608.621 185.175 608.852C185.688 609.04 186.246 609.07 186.777 608.938C187.308 608.806 187.787 608.518 188.152 608.111L192.083 603.686L186.474 600.614Z" fill="url(#paint22_linear)"/>
<path d="M121.383 491.239C126.043 500.962 129.443 511.239 131.501 521.822C132.562 527.286 137.518 554.806 126.863 587.967C116.946 618.829 98.6796 638.477 88.9609 647.585C93.3416 651.296 98.8418 653.429 104.58 653.641C134.259 632.458 148.654 608.455 155.187 595.395C177.229 551.325 171.699 508.064 162.064 489.767C158.901 483.758 155.326 480.504 151.278 479.056C138.285 474.407 123.219 489.371 121.383 491.239Z" fill="url(#paint23_linear)"/>
<path style="mix-blend-mode:multiply" opacity="0.3" d="M162.072 489.763C158.908 483.754 155.333 480.499 151.285 479.051C138.292 474.407 123.226 489.371 121.391 491.237C125.967 500.795 129.327 510.889 131.394 521.282C140.474 523.416 153.154 528.476 159.333 540.439C169.331 559.793 154.958 582.99 151.975 587.802C145.411 598.396 141.435 597.402 131.74 612.634C124.416 624.136 123.854 629.144 117.484 634.704C109.987 641.241 100.629 643.157 93.0735 643.575C91.5895 645.081 90.2059 646.419 88.9681 647.58C93.3488 651.291 98.8489 653.424 104.587 653.637C134.266 632.453 148.661 608.45 155.194 595.391C177.229 551.32 171.699 508.06 162.072 489.763Z" fill="url(#paint24_linear)"/>
<path d="M138.175 489.629C140.487 494.355 143.512 498.698 147.144 502.505C158.793 514.649 169.687 513.495 182.032 523.506C183.552 524.739 194.482 533.804 198.521 547.027C206.292 572.482 183.705 597.581 181.208 600.286C185.043 603.84 189.824 606.212 194.974 607.115C227.354 577.535 243.176 541.689 232.401 518.396C226.525 505.689 212.61 496.45 202.332 489.629C189.122 480.888 174.466 474.557 159.046 470.93L138.175 489.629Z" fill="url(#paint25_linear)"/>
<path d="M157.486 422.11C157.964 436.424 154.654 443.852 159.304 455.531C162.65 463.925 168.177 469.695 172.378 473.281C167.976 481.729 161.497 488.919 153.55 494.173C140.407 502.813 127.355 503.391 122.227 503.346C111.364 497.757 94.8848 487.223 81.6582 468.462C72.6995 455.749 62.8471 441.781 65.4518 423.99C68.7614 401.38 89.7137 389.303 95.6543 385.879C99.5661 383.623 126.571 368.057 143.076 379.499C156.348 388.698 157.12 411.403 157.486 422.11Z" fill="url(#paint26_linear)"/>
<path d="M247.74 438.357C248.172 436.044 249.828 434.367 250.775 433.414C251.869 432.305 252.094 432.48 252.811 431.574C254.612 429.295 254.177 426.941 254.87 426.862C255.473 426.793 256.529 428.489 256.457 430.243C256.376 432.202 254.944 432.788 255.215 433.875C255.594 435.402 258.99 436.503 261.999 435.944C265.485 435.282 267.187 432.472 268.551 433.184C269.543 433.701 269.478 435.552 269.471 435.712C269.318 439.184 264.692 442.825 260.151 443.301C257.547 443.573 256.567 442.632 253.482 443.415C251.434 443.936 250.717 444.641 249.687 444.22C248.01 443.53 247.329 440.567 247.74 438.357Z" fill="white"/>
<path d="M248.239 437.131C220.357 439.062 203.704 431.81 193.665 424.869C170.892 409.122 166.423 384.087 140.011 377.354C135.193 376.126 126.805 373.987 122.227 378.271C112.716 387.178 123.933 419.823 143.688 439.891C148.052 444.321 163.761 459.82 189.715 463.32C222.967 467.805 246.827 449.042 250.935 445.694C251.574 444.983 252.007 444.111 252.187 443.173C252.367 442.234 252.288 441.264 251.957 440.366C251.004 437.831 248.449 437.181 248.239 437.131Z" fill="url(#paint27_linear)"/>
<path style="mix-blend-mode:multiply" opacity="0.3" d="M110.269 480.965C102.419 473.53 106.135 468.921 96.4739 453.99C86.631 438.778 79.5458 438.493 75.0103 428.239C72.666 422.934 71.2179 415.313 73.8154 404.367C69.8391 409.726 66.6012 416.22 65.4517 423.988C62.8471 441.786 72.6899 455.746 81.6582 468.462C94.8848 487.22 111.364 497.755 122.227 503.346C127.355 503.391 140.417 502.813 153.55 494.173C157.878 491.322 161.784 487.878 165.154 483.942C160.738 486.387 155.988 488.173 151.055 489.244C148.429 489.806 124.66 494.596 110.269 480.965Z" fill="url(#paint28_linear)"/>
<path d="M103.069 370.394L100.797 378.066C100.072 380.524 98.5984 382.696 96.5815 384.278L90.5548 388.978C90.5548 388.978 108.936 385.891 117.727 377.328L112.367 375.641C112.091 375.556 111.849 375.384 111.677 375.152C111.505 374.919 111.412 374.637 111.411 374.348V368.707L103.069 370.394Z" fill="white"/>
<path d="M109.677 374.269C110.551 374.076 116.898 375.115 118.702 372.064C121.152 367.926 118.702 361.312 118.463 360.287C117.433 356.01 117.051 355.36 116.255 354.455L115.132 353.26C115.132 353.26 115.063 353.208 114.989 353.158C114.21 352.62 111.292 351.748 110.664 351.724C108.651 351.624 104.56 358.832 102.216 369.942C102.028 370.339 101.84 370.737 101.652 371.137C101.172 372.198 109.619 374.675 109.677 374.269Z" fill="white"/>
<path d="M119.911 351.205C118.994 354.598 116.427 357.797 115.457 358.161C114.877 358.412 114.342 358.755 113.87 359.176C113.756 359.28 113.654 359.398 113.569 359.527C112.255 361.467 114.986 364.891 114.074 365.675C113.414 366.241 111.349 364.698 110.914 365.223C110.48 365.749 112.109 367.4 111.631 367.997C111.275 368.449 110.217 367.668 109.263 368.251C108.785 368.542 108.814 368.879 108.102 369.966C107.732 370.541 107.31 371.081 106.84 371.579C105.136 373.251 101.619 373.101 101.193 372.133C101.074 371.863 101.277 371.717 101.294 370.924C101.286 370.358 101.201 369.795 101.041 369.252C100.658 367.928 99.2172 366.669 97.8647 365.015C95.358 361.957 95.0234 359.831 94.9422 359.119C94.9135 358.88 94.9039 358.679 94.8968 358.543C94.7558 355.826 95.7331 352.152 97.4608 350.18C100.355 346.897 104.126 349.827 108.606 347.005C113.775 343.746 112.962 337.192 115.314 337.121C117.916 337.056 121.606 344.936 119.911 351.205Z" fill="#26264F"/>
<path d="M113.068 364.552C112.539 363.185 110.79 363.871 110.389 365.348C109.987 366.824 111.008 368.745 112.477 368.822C113.947 368.898 113.777 366.39 113.068 364.552Z" fill="white"/>
<path d="M528.76 149.28C528.76 179.165 486.884 233.7 467.934 256.85C466.829 258.201 465.436 259.289 463.859 260.037C462.281 260.784 460.557 261.172 458.811 261.172C457.065 261.172 455.341 260.784 453.763 260.037C452.185 259.289 450.793 258.201 449.687 256.85C430.735 233.7 388.862 179.165 388.862 149.28C388.862 110.652 420.178 79.3406 458.811 79.3406C497.444 79.3406 528.76 110.652 528.76 149.28Z" fill="url(#paint29_linear)"/>
<path d="M486.397 176.859C501.631 161.627 501.631 136.93 486.397 121.698C471.162 106.465 446.462 106.465 431.227 121.698C415.993 136.93 415.993 161.627 431.227 176.859C446.462 192.092 471.162 192.092 486.397 176.859Z" fill="white"/>
<g style="mix-blend-mode:multiply" opacity="0.3">
<path style="mix-blend-mode:multiply" opacity="0.3" d="M458.5 228.136C462.94 198.915 482.239 189.561 478.927 161.969C475.113 130.146 446.927 121.672 446.246 93.3513C446.149 88.9036 446.712 84.466 447.919 80.184C414.464 85.4117 388.852 114.351 388.852 149.28C388.852 179.165 430.726 233.7 449.678 256.85C450.974 258.439 452.664 259.661 454.579 260.395C456.494 261.128 458.567 261.349 460.593 261.034C457.212 248.234 457.109 237.306 458.5 228.136Z" fill="url(#paint30_linear)"/>
</g>
<path d="M387.688 137.235C387.688 137.235 391.065 121.227 394.821 120.988C398.578 120.749 404.358 133.745 404.358 133.745C404.358 133.745 394.104 138.017 387.688 137.235Z" fill="url(#paint31_linear)"/>
<path d="M528.781 137.331C528.781 137.331 535.506 152.219 531.126 157.193C526.745 162.168 522.231 152.907 523.161 149.28C524.091 145.653 528.781 137.331 528.781 137.331Z" fill="url(#paint32_linear)"/>
<path d="M621.616 578.895V598.315C621.616 599.187 621.293 600.029 620.708 600.676C620.122 601.323 619.318 601.73 618.45 601.818L419.587 620.66L392.823 638.371L355.87 589.212L621.616 578.895Z" fill="url(#paint33_linear)"/>
<path d="M469.186 605.586V622.968C469.187 623.673 468.936 624.356 468.478 624.893C468.02 625.429 467.386 625.786 466.689 625.897L418.956 633.567L420.345 605.545L466.032 602.625C466.437 602.6 466.842 602.657 467.224 602.794C467.605 602.931 467.955 603.145 468.251 603.423C468.546 603.7 468.782 604.035 468.943 604.407C469.104 604.779 469.187 605.18 469.186 605.586V605.586Z" fill="url(#paint34_linear)"/>
<path d="M601.469 587.855C601.629 587.856 601.788 587.866 601.947 587.886L604.47 587.855L604.456 588.966C606.903 590.877 608.6 595.059 608.6 599.914C608.6 604.957 606.764 609.277 604.162 611.076V611.97H601.476C597.538 611.97 594.343 606.573 594.343 599.914C594.343 593.255 597.531 587.855 601.469 587.855Z" fill="url(#paint35_linear)"/>
<path d="M604.475 611.972C608.416 611.972 611.611 606.574 611.611 599.914C611.611 593.254 608.416 587.855 604.475 587.855C600.534 587.855 597.34 593.254 597.34 599.914C597.34 606.574 600.534 611.972 604.475 611.972Z" fill="url(#paint36_linear)"/>
<path d="M605.479 606.687C607.692 606.687 609.486 603.655 609.486 599.914C609.486 596.173 607.692 593.14 605.479 593.14C603.266 593.14 601.471 596.173 601.471 599.914C601.471 603.655 603.266 606.687 605.479 606.687Z" fill="#D8DEE8"/>
<path d="M601.469 599.914C601.469 603.385 602.994 606.202 604.872 606.202C606.75 606.202 608.275 603.385 608.275 599.914C608.275 596.442 606.75 593.623 604.872 593.623C602.994 593.623 601.469 596.44 601.469 599.914Z" fill="url(#paint37_linear)"/>
<path d="M584.61 589.212C584.786 589.212 584.961 589.223 585.136 589.245L587.903 589.212L587.886 590.428C590.567 592.523 592.427 597.104 592.427 602.422C592.427 607.951 590.417 612.684 587.566 614.653L587.554 615.635H584.61C580.292 615.635 576.794 609.719 576.794 602.422C576.794 595.125 580.292 589.212 584.61 589.212Z" fill="url(#paint38_linear)"/>
<path d="M587.903 615.633C592.22 615.633 595.72 609.718 595.72 602.422C595.72 595.126 592.22 589.212 587.903 589.212C583.586 589.212 580.087 595.126 580.087 602.422C580.087 609.718 583.586 615.633 587.903 615.633Z" fill="url(#paint39_linear)"/>
<path d="M589.002 609.846C591.428 609.846 593.394 606.522 593.394 602.423C593.394 598.323 591.428 594.999 589.002 594.999C586.577 594.999 584.61 598.323 584.61 602.423C584.61 606.522 586.577 609.846 589.002 609.846Z" fill="#D8DEE8"/>
<path d="M588.338 609.313C590.397 609.313 592.066 606.228 592.066 602.422C592.066 598.617 590.397 595.532 588.338 595.532C586.279 595.532 584.61 598.617 584.61 602.422C584.61 606.228 586.279 609.313 588.338 609.313Z" fill="url(#paint40_linear)"/>
<path d="M566.614 589.212C566.806 589.213 566.999 589.225 567.19 589.248L570.208 589.212L570.191 590.54C573.118 592.827 575.147 597.83 575.147 603.636C575.147 609.671 572.954 614.839 569.84 616.992L569.826 618.062H566.614C561.899 618.062 558.078 611.611 558.078 603.636C558.078 595.661 561.899 589.212 566.614 589.212Z" fill="url(#paint41_linear)"/>
<path d="M570.21 618.06C574.924 618.06 578.746 611.602 578.746 603.636C578.746 595.67 574.924 589.212 570.21 589.212C565.496 589.212 561.674 595.67 561.674 603.636C561.674 611.602 565.496 618.06 570.21 618.06Z" fill="url(#paint42_linear)"/>
<path d="M566.614 603.636C566.614 608.114 568.765 611.741 571.407 611.741C574.05 611.741 576.203 608.114 576.203 603.636C576.203 599.159 574.053 595.532 571.407 595.532C568.762 595.532 566.614 599.161 566.614 603.636Z" fill="#D8DEE8"/>
<path d="M566.614 603.636C566.614 607.791 568.435 611.16 570.676 611.16C572.918 611.16 574.739 607.791 574.739 603.636C574.739 599.481 572.915 596.112 570.676 596.112C568.437 596.112 566.614 599.474 566.614 603.636Z" fill="url(#paint43_linear)"/>
<path d="M483.634 596.736C483.879 596.738 484.124 596.753 484.368 596.781L488.225 596.736L488.201 598.432C491.938 601.352 494.531 607.75 494.531 615.157C494.531 622.863 491.73 629.46 487.754 632.207L487.737 633.574H483.634C477.617 633.574 472.74 625.328 472.74 615.157C472.74 604.986 477.617 596.736 483.634 596.736Z" fill="url(#paint44_linear)"/>
<path d="M488.225 633.564C494.243 633.564 499.121 625.32 499.121 615.15C499.121 604.98 494.243 596.736 488.225 596.736C482.207 596.736 477.328 604.98 477.328 615.15C477.328 625.32 482.207 633.564 488.225 633.564Z" fill="url(#paint45_linear)"/>
<path d="M483.634 615.15C483.634 620.865 486.375 625.496 489.756 625.496C493.138 625.496 495.876 620.865 495.876 615.15C495.876 609.435 493.135 604.804 489.756 604.804C486.377 604.804 483.634 609.437 483.634 615.15Z" fill="#D8DEE8"/>
<path d="M488.829 624.755C491.698 624.755 494.024 620.455 494.024 615.15C494.024 609.845 491.698 605.545 488.829 605.545C485.96 605.545 483.634 609.845 483.634 615.15C483.634 620.455 485.96 624.755 488.829 624.755Z" fill="url(#paint46_linear)"/>
<path d="M411.128 599.646C411.442 599.648 411.755 599.668 412.067 599.706L416.992 599.646L416.963 601.813C421.743 605.545 425.048 613.702 425.048 623.173C425.048 633.017 421.463 641.444 416.392 644.954L416.368 646.698H411.128C403.441 646.698 397.208 636.166 397.208 623.173C397.208 610.18 403.441 599.646 411.128 599.646Z" fill="url(#paint47_linear)"/>
<path d="M416.992 646.701C424.68 646.701 430.912 636.167 430.912 623.173C430.912 610.18 424.68 599.646 416.992 599.646C409.305 599.646 403.073 610.18 403.073 623.173C403.073 636.167 409.305 646.701 416.992 646.701Z" fill="url(#paint48_linear)"/>
<path d="M418.949 636.391C423.269 636.391 426.771 630.473 426.771 623.173C426.771 615.873 423.269 609.956 418.949 609.956C414.63 609.956 411.128 615.873 411.128 623.173C411.128 630.473 414.63 636.391 418.949 636.391Z" fill="#D8DEE8"/>
<path d="M417.766 635.445C421.431 635.445 424.402 629.95 424.402 623.173C424.402 616.396 421.431 610.902 417.766 610.902C414.102 610.902 411.13 616.396 411.13 623.173C411.13 629.95 414.102 635.445 417.766 635.445Z" fill="url(#paint49_linear)"/>
<path d="M633.445 475.523C634.706 475.732 635.851 476.382 636.678 477.357C637.505 478.331 637.958 479.568 637.959 480.846V579.284C637.959 580.664 637.431 581.991 636.483 582.994C635.535 583.996 634.239 584.598 632.862 584.675L447.804 594.999V444.66L633.445 475.523Z" fill="url(#paint50_linear)"/>
<path d="M343.444 448.172L447.802 444.66V595.001H337.836V453.966C337.838 452.462 338.424 451.018 339.47 449.937C340.516 448.856 341.941 448.224 343.444 448.172V448.172Z" fill="url(#paint51_linear)"/>
<path style="mix-blend-mode:multiply" opacity="0.3" d="M486.906 557.21C510.668 546.267 532.975 562.97 554.718 546.826C573.759 532.686 567.622 511.732 582.82 486.962C586.813 480.494 591.7 474.622 597.335 469.521L633.445 475.525C634.706 475.734 635.851 476.384 636.678 477.359C637.505 478.334 637.958 479.57 637.959 480.848V579.287C637.959 580.666 637.431 581.994 636.483 582.996C635.535 583.999 634.239 584.6 632.862 584.677L457.351 594.473C465.404 572.437 476.348 562.072 486.906 557.21Z" fill="url(#paint52_linear)"/>
<path d="M282.241 547.435L289.955 528.041L290.194 512.007L282.401 510.449C282.222 510.414 282.053 510.342 281.902 510.239C281.752 510.136 281.624 510.004 281.526 509.85C281.428 509.696 281.363 509.524 281.334 509.344C281.305 509.164 281.313 508.98 281.357 508.803C282.535 504.074 286.853 488.458 293.544 483.297C298.273 479.661 387.934 478.573 387.934 478.573L431.089 481.379C432.721 481.487 434.251 482.211 435.369 483.405C436.488 484.599 437.111 486.172 437.113 487.808V583.42C437.113 584.63 436.66 585.797 435.841 586.688C435.023 587.58 433.9 588.133 432.695 588.237L403.063 590.805L397.211 596.736C397.211 596.736 313.251 603.457 279.744 597.347C278.903 597.196 278.142 596.755 277.594 596.1C277.045 595.445 276.745 594.618 276.745 593.763V551.712C276.743 545.603 282.241 547.435 282.241 547.435Z" fill="#F4F7FA"/>
<path style="mix-blend-mode:multiply" opacity="0.8" d="M373.272 553.239C373.272 553.239 374.187 511.701 373.272 494.599C372.827 486.301 376.983 481.458 381.38 478.669C385.48 478.602 387.934 478.574 387.934 478.574L431.089 481.379C432.721 481.487 434.251 482.211 435.369 483.405C436.488 484.599 437.111 486.173 437.113 487.808V583.42C437.113 584.631 436.659 585.797 435.841 586.689C435.023 587.581 433.9 588.133 432.694 588.237L403.063 590.806L397.211 596.736C397.211 596.736 383.387 597.842 364.712 598.75V563.319L373.272 553.239Z" fill="url(#paint53_linear)"/>
<path d="M277.699 604.8L281.02 603.636V596.908C281.02 596.037 281.366 595.202 281.982 594.586C282.597 593.97 283.432 593.623 284.303 593.623H388.279C389.483 593.623 390.637 594.101 391.489 594.952C392.34 595.804 392.819 596.958 392.819 598.162V638.372C392.819 638.897 392.712 639.417 392.506 639.901C392.299 640.385 391.998 640.821 391.618 641.185C391.239 641.549 390.79 641.833 390.298 642.019C389.806 642.205 389.282 642.29 388.756 642.268L277.424 637.987C276.416 637.948 275.463 637.52 274.764 636.794C274.065 636.067 273.674 635.098 273.674 634.09V610.45C273.676 609.207 274.064 607.995 274.785 606.983C275.506 605.97 276.524 605.207 277.699 604.8V604.8Z" fill="#97A6B7"/>
<path d="M290.368 570.253H352.021C352.511 570.253 352.996 570.355 353.446 570.55C353.896 570.746 354.301 571.032 354.636 571.39C354.971 571.748 355.228 572.172 355.393 572.634C355.558 573.096 355.626 573.586 355.593 574.076L352.195 622.471C352.111 623.639 351.577 624.73 350.707 625.515C349.837 626.299 348.697 626.717 347.526 626.681L294.56 624.886C293.444 624.846 292.382 624.396 291.577 623.622C290.772 622.848 290.28 621.804 290.196 620.691L286.81 574.093C286.775 573.603 286.841 573.112 287.004 572.649C287.166 572.186 287.423 571.761 287.756 571.401C288.09 571.041 288.494 570.753 288.943 570.556C289.392 570.358 289.878 570.255 290.368 570.253Z" fill="url(#paint54_linear)"/>
<g style="mix-blend-mode:multiply" opacity="0.3">
<g style="mix-blend-mode:multiply" opacity="0.3">
<path d="M277.698 604.8L281.02 603.636V596.908C281.018 596.226 281.229 595.56 281.624 595.003C282.018 594.446 282.577 594.026 283.221 593.802L289.549 623.546C289.914 625.268 290.844 626.819 292.19 627.953C293.537 629.088 295.223 629.74 296.983 629.808L345.576 631.698C347.272 631.764 348.945 631.282 350.347 630.324C351.749 629.367 352.806 627.984 353.361 626.38L364.712 593.623H388.274C389.478 593.623 390.633 594.101 391.484 594.952C392.336 595.804 392.814 596.958 392.814 598.162V638.372C392.814 638.897 392.707 639.417 392.501 639.901C392.295 640.385 391.993 640.821 391.613 641.185C391.234 641.549 390.785 641.833 390.293 642.019C389.801 642.205 389.277 642.29 388.752 642.268L277.419 637.987C276.411 637.948 275.458 637.52 274.759 636.794C274.06 636.067 273.669 635.098 273.67 634.09V610.45C273.671 609.207 274.06 607.994 274.782 606.982C275.504 605.969 276.523 605.207 277.698 604.8V604.8Z" fill="#97A6B7"/>
</g>
</g>
<path d="M359.524 628.984L371.085 629.562C374.538 629.734 377.922 628.558 380.524 626.281C383.125 624.004 384.738 620.805 385.024 617.36L385.49 611.74H362.344C361.596 611.74 360.879 612.037 360.35 612.566C359.821 613.095 359.524 613.812 359.524 614.56V628.984Z" fill="url(#paint55_linear)"/>
<path d="M284.941 614.12L286.789 626.69C286.789 626.69 274.602 626.263 274.905 610.902L282.468 611.733C283.087 611.801 283.665 612.073 284.112 612.505C284.56 612.937 284.852 613.505 284.941 614.12V614.12Z" fill="url(#paint56_linear)"/>
<path d="M370.626 553.6H370.473L282.748 552.037L281.828 547.43L281.844 547.347L289.859 511.601H373.664L378.256 510.803C378.884 510.695 379.527 510.725 380.141 510.892C380.756 511.058 381.326 511.356 381.814 511.766C382.301 512.175 382.693 512.686 382.963 513.262C383.232 513.839 383.373 514.467 383.375 515.103V542.79C383.373 543.887 383.113 544.969 382.618 545.947C382.122 546.926 381.403 547.774 380.519 548.424L375.762 551.927C374.269 553.012 372.472 553.598 370.626 553.6V553.6ZM283.405 551.239L370.478 552.787C372.198 552.812 373.88 552.278 375.272 551.268L380.03 547.784C380.81 547.209 381.445 546.459 381.884 545.595C382.322 544.73 382.551 543.774 382.553 542.805V515.115C382.554 514.596 382.441 514.083 382.222 513.612C382.003 513.141 381.684 512.724 381.287 512.389C380.89 512.054 380.425 511.811 379.923 511.675C379.422 511.539 378.897 511.515 378.385 511.603L373.723 512.408H290.5L282.647 547.435L283.405 551.239Z" fill="#808080"/>
<path d="M290.184 512.007H373.664L378.326 511.204C378.896 511.106 379.48 511.133 380.038 511.285C380.596 511.436 381.115 511.708 381.557 512.08C381.999 512.453 382.355 512.917 382.599 513.442C382.843 513.966 382.969 514.537 382.969 515.115V542.805C382.969 543.838 382.725 544.857 382.258 545.778C381.79 546.7 381.112 547.498 380.278 548.109L375.523 551.59C374.062 552.66 372.291 553.222 370.481 553.189L283.082 551.636L282.241 547.435L290.184 512.007Z" fill="url(#paint57_linear)"/>
<path d="M349.177 502.385H342.075C341 502.385 340.128 503.257 340.128 504.333V507.31C340.128 508.385 341 509.257 342.075 509.257H349.177C350.253 509.257 351.125 508.385 351.125 507.31V504.333C351.125 503.257 350.253 502.385 349.177 502.385Z" fill="#97A6B7"/>
<path d="M307.48 502.385H300.378C299.303 502.385 298.431 503.257 298.431 504.333V507.31C298.431 508.385 299.303 509.257 300.378 509.257H307.48C308.556 509.257 309.428 508.385 309.428 507.31V504.333C309.428 503.257 308.556 502.385 307.48 502.385Z" fill="#97A6B7"/>
<g style="mix-blend-mode:overlay" opacity="0.3">
<path d="M316.301 531.707C337.843 523.468 358.107 533.737 367.391 522.544C369.9 519.519 370.915 515.753 371.15 512.007H373.664L378.326 511.204C378.896 511.106 379.48 511.133 380.038 511.285C380.596 511.436 381.115 511.708 381.557 512.08C381.999 512.453 382.355 512.917 382.599 513.442C382.843 513.966 382.969 514.537 382.969 515.115V542.805C382.969 543.838 382.725 544.857 382.258 545.779C381.79 546.7 381.112 547.499 380.278 548.109L375.52 551.59C374.061 552.661 372.29 553.222 370.481 553.189L291.31 551.781C300.259 539.72 309.349 534.366 316.301 531.707Z" fill="white"/>
</g>
<path d="M291.31 441.372C290.782 441.372 290.275 441.166 289.897 440.798C289.518 440.43 289.298 439.929 289.283 439.401C289.283 439.401 289.283 439.148 289.283 438.663C289.325 434.466 289.6 430.274 290.105 426.107C290.167 425.573 290.438 425.084 290.86 424.75C291.281 424.415 291.818 424.262 292.353 424.324C292.887 424.385 293.376 424.656 293.71 425.078C294.045 425.499 294.198 426.036 294.137 426.571C293.649 430.584 293.383 434.621 293.341 438.663C293.341 439.062 293.341 439.275 293.341 439.291C293.355 439.828 293.155 440.349 292.786 440.739C292.416 441.128 291.907 441.356 291.37 441.37L291.31 441.372ZM294.144 415.52C294.01 415.52 293.876 415.506 293.745 415.48C293.483 415.428 293.234 415.325 293.012 415.176C292.791 415.028 292.6 414.838 292.452 414.616C292.304 414.394 292.201 414.145 292.15 413.883C292.098 413.621 292.098 413.352 292.151 413.09C292.999 408.833 294.029 404.529 295.214 400.3C295.363 399.787 295.709 399.352 296.176 399.092C296.644 398.832 297.195 398.767 297.711 398.911C298.226 399.055 298.663 399.397 298.927 399.863C299.192 400.328 299.261 400.878 299.122 401.395C297.965 405.526 296.971 409.726 296.13 413.881C296.04 414.342 295.792 414.757 295.43 415.056C295.068 415.355 294.613 415.519 294.144 415.52V415.52ZM301.146 390.514C300.819 390.514 300.498 390.435 300.208 390.284C299.918 390.134 299.669 389.916 299.482 389.649C299.294 389.382 299.174 389.073 299.131 388.75C299.088 388.426 299.123 388.097 299.234 387.79C300.73 383.678 302.4 379.585 304.195 375.622C304.417 375.131 304.824 374.749 305.327 374.56C305.831 374.37 306.389 374.388 306.879 374.61C307.37 374.831 307.752 375.239 307.941 375.742C308.131 376.246 308.113 376.804 307.891 377.294C306.14 381.165 304.51 385.162 303.048 389.178C302.906 389.568 302.647 389.906 302.308 390.144C301.968 390.383 301.563 390.512 301.148 390.514H301.146ZM311.853 366.874C311.501 366.874 311.155 366.781 310.849 366.607C310.544 366.432 310.288 366.18 310.109 365.877C309.93 365.574 309.832 365.23 309.827 364.877C309.821 364.525 309.906 364.178 310.076 363.869C312.178 360.046 314.456 356.259 316.845 352.61C317.141 352.163 317.603 351.851 318.128 351.742C318.654 351.634 319.201 351.738 319.65 352.033C320.099 352.327 320.413 352.787 320.523 353.312C320.634 353.837 320.531 354.385 320.239 354.835C317.906 358.395 315.684 362.091 313.634 365.825C313.458 366.144 313.2 366.409 312.887 366.594C312.574 366.778 312.217 366.875 311.853 366.874V366.874ZM326.072 345.187C325.692 345.187 325.32 345.081 324.998 344.881C324.676 344.68 324.417 344.394 324.25 344.053C324.083 343.712 324.014 343.332 324.053 342.954C324.092 342.577 324.236 342.218 324.468 341.918C327.133 338.475 329.964 335.09 332.899 331.852C333.263 331.465 333.765 331.237 334.296 331.216C334.827 331.195 335.345 331.383 335.738 331.74C336.132 332.096 336.37 332.593 336.401 333.124C336.433 333.654 336.254 334.176 335.905 334.576C333.038 337.735 330.277 341.027 327.678 344.398C327.488 344.644 327.245 344.843 326.967 344.98C326.688 345.117 326.382 345.188 326.072 345.187V345.187ZM343.468 325.972C343.062 325.971 342.666 325.849 342.331 325.621C341.995 325.393 341.735 325.07 341.585 324.693C341.435 324.316 341.401 323.903 341.488 323.507C341.575 323.11 341.779 322.749 342.073 322.47C345.217 319.49 348.525 316.575 351.918 313.806C352.124 313.637 352.362 313.511 352.617 313.434C352.872 313.357 353.14 313.331 353.405 313.358C353.67 313.385 353.928 313.463 354.162 313.589C354.397 313.715 354.605 313.886 354.774 314.093C354.942 314.299 355.069 314.536 355.146 314.792C355.222 315.047 355.248 315.315 355.222 315.58C355.195 315.845 355.116 316.102 354.99 316.337C354.864 316.572 354.693 316.779 354.487 316.948C351.175 319.653 347.937 322.503 344.864 325.415C344.487 325.773 343.988 325.972 343.468 325.972V325.972ZM363.541 309.565C363.11 309.566 362.689 309.429 362.341 309.175C361.992 308.921 361.734 308.563 361.603 308.152C361.472 307.741 361.476 307.299 361.613 306.89C361.751 306.481 362.015 306.127 362.368 305.878C365.883 303.398 369.57 300.98 373.324 298.694C373.552 298.549 373.806 298.452 374.072 298.406C374.338 298.361 374.61 298.369 374.872 298.431C375.135 298.492 375.383 298.605 375.601 298.763C375.82 298.921 376.004 299.121 376.145 299.351C376.285 299.581 376.378 299.837 376.418 300.104C376.458 300.37 376.445 300.642 376.379 300.904C376.312 301.165 376.195 301.411 376.033 301.626C375.871 301.841 375.667 302.022 375.434 302.158C371.759 304.399 368.148 306.765 364.707 309.192C364.364 309.436 363.953 309.567 363.532 309.565H363.541ZM385.662 296.068C385.208 296.07 384.766 295.92 384.408 295.641C384.049 295.363 383.794 294.972 383.684 294.531C383.574 294.091 383.615 293.626 383.8 293.212C383.985 292.797 384.304 292.457 384.706 292.245C388.51 290.245 392.465 288.315 396.465 286.511C396.956 286.289 397.514 286.271 398.017 286.461C398.521 286.651 398.928 287.032 399.15 287.523C399.372 288.013 399.39 288.571 399.2 289.074C399.01 289.578 398.628 289.985 398.138 290.207C394.214 291.985 390.329 293.879 386.596 295.841C386.305 295.993 385.981 296.071 385.652 296.068H385.662ZM409.271 285.369C408.797 285.37 408.338 285.205 407.973 284.903C407.608 284.601 407.36 284.18 407.272 283.714C407.185 283.249 407.263 282.767 407.494 282.353C407.725 281.939 408.093 281.619 408.535 281.448C412.528 279.9 416.66 278.416 420.84 277.037C421.094 276.949 421.363 276.913 421.631 276.93C421.899 276.946 422.161 277.016 422.402 277.136C422.643 277.255 422.858 277.42 423.035 277.623C423.211 277.826 423.345 278.062 423.43 278.317C423.514 278.572 423.547 278.842 423.526 279.11C423.506 279.378 423.432 279.639 423.309 279.878C423.187 280.118 423.018 280.33 422.813 280.504C422.607 280.677 422.37 280.808 422.113 280.889C418.006 282.246 413.931 283.706 410.003 285.23C409.767 285.322 409.515 285.369 409.262 285.369H409.271ZM433.885 277.219C433.394 277.219 432.92 277.041 432.551 276.718C432.181 276.396 431.941 275.95 431.875 275.464C431.809 274.978 431.921 274.485 432.191 274.075C432.461 273.665 432.87 273.367 433.342 273.236C437.467 272.084 441.725 270.997 446.007 270.003C446.531 269.884 447.08 269.976 447.535 270.261C447.99 270.546 448.314 270.999 448.436 271.522C448.557 272.045 448.466 272.595 448.183 273.051C447.9 273.507 447.447 273.832 446.925 273.955C442.712 274.935 438.511 276.007 434.441 277.145C434.255 277.196 434.063 277.221 433.87 277.219H433.885Z" fill="white"/>
<defs>
<linearGradient id="paint0_linear" x1="482.282" y1="257.462" x2="184.077" y2="173.064" gradientUnits="userSpaceOnUse">
<stop stop-color="#311944"/>
<stop offset="1" stop-color="#A03976"/>
</linearGradient>
<linearGradient id="paint1_linear" x1="378517" y1="376861" x2="179320" y2="341657" gradientUnits="userSpaceOnUse">
<stop stop-color="#311944"/>
<stop offset="1" stop-color="#A03976"/>
</linearGradient>
<linearGradient id="paint2_linear" x1="176.254" y1="69.0357" x2="180.917" y2="445.556" gradientUnits="userSpaceOnUse">
<stop stop-color="#FF9085"/>
<stop offset="1" stop-color="#FB6FBB"/>
</linearGradient>
<linearGradient id="paint3_linear" x1="24834.2" y1="22138.1" x2="24711.4" y2="25589.6" gradientUnits="userSpaceOnUse">
<stop stop-color="#311944"/>
<stop offset="1" stop-color="#A03976"/>
</linearGradient>
<linearGradient id="paint4_linear" x1="437.777" y1="336.241" x2="438.697" y2="269.513" gradientUnits="userSpaceOnUse">
<stop stop-color="#FFC444"/>
<stop offset="1" stop-color="#F36F56"/>
</linearGradient>
<linearGradient id="paint5_linear" x1="8548.86" y1="36952.1" x2="7984.75" y2="42810.5" gradientUnits="userSpaceOnUse">
<stop stop-color="#311944"/>
<stop offset="1" stop-color="#A03976"/>
</linearGradient>
<linearGradient id="paint6_linear" x1="-4677.2" y1="28567.9" x2="-4760.9" y2="24320" gradientUnits="userSpaceOnUse">
<stop stop-color="#FFC444"/>
<stop offset="1" stop-color="#F36F56"/>
</linearGradient>
<linearGradient id="paint7_linear" x1="453.704" y1="228.141" x2="404.361" y2="228.141" gradientUnits="userSpaceOnUse">
<stop stop-color="#444B8C"/>
<stop offset="1" stop-color="#3E4177"/>
</linearGradient>
<linearGradient id="paint8_linear" x1="-41186.8" y1="282743" x2="-31702" y2="282743" gradientUnits="userSpaceOnUse">
<stop stop-color="#444B8C"/>
<stop offset="1" stop-color="#3E4177"/>
</linearGradient>
<linearGradient id="paint9_linear" x1="-83911.5" y1="273198" x2="-42616.4" y2="273198" gradientUnits="userSpaceOnUse">
<stop stop-color="#444B8C"/>
<stop offset="1" stop-color="#3E4177"/>
</linearGradient>
<linearGradient id="paint10_linear" x1="434.291" y1="217.998" x2="470.615" y2="12.3648" gradientUnits="userSpaceOnUse">
<stop stop-color="#311944"/>
<stop offset="1" stop-color="#893976"/>
</linearGradient>
<linearGradient id="paint11_linear" x1="-29974.5" y1="21476.1" x2="-29974.5" y2="15974.4" gradientUnits="userSpaceOnUse">
<stop stop-color="#FFC444"/>
<stop offset="1" stop-color="#F36F56"/>
</linearGradient>
<linearGradient id="paint12_linear" x1="53264.3" y1="13207.2" x2="56015.7" y2="10483.3" gradientUnits="userSpaceOnUse">
<stop stop-color="#444B8C"/>
<stop offset="1" stop-color="#3E4177"/>
</linearGradient>
<linearGradient id="paint13_linear" x1="-16784.3" y1="9527.41" x2="-15590.6" y2="7081.73" gradientUnits="userSpaceOnUse">
<stop stop-color="#FFC444"/>
<stop offset="1" stop-color="#F36F56"/>
</linearGradient>
<linearGradient id="paint14_linear" x1="364585" y1="-80166.7" x2="310850" y2="-192618" gradientUnits="userSpaceOnUse">
<stop stop-color="#311944"/>
<stop offset="1" stop-color="#893976"/>
</linearGradient>
<linearGradient id="paint15_linear" x1="415.814" y1="537.682" x2="241.285" y2="118.753" gradientUnits="userSpaceOnUse">
<stop stop-color="#E38DDD"/>
<stop offset="1" stop-color="#9571F6"/>
</linearGradient>
<linearGradient id="paint16_linear" x1="444676" y1="1.01186e+06" x2="1.46617e+06" y2="1.01186e+06" gradientUnits="userSpaceOnUse">
<stop stop-color="#E38DDD"/>
<stop offset="1" stop-color="#9571F6"/>
</linearGradient>
<linearGradient id="paint17_linear" x1="216.651" y1="295.963" x2="307.367" y2="529.663" gradientUnits="userSpaceOnUse">
<stop stop-color="#FFC444"/>
<stop offset="0.31" stop-color="#FBA94A"/>
<stop offset="1" stop-color="#F36F56"/>
</linearGradient>
<linearGradient id="paint18_linear" x1="144417" y1="407411" x2="271546" y2="571041" gradientUnits="userSpaceOnUse">
<stop stop-color="#FFC444"/>
<stop offset="0.31" stop-color="#FBA94A"/>
<stop offset="1" stop-color="#F36F56"/>
</linearGradient>
<linearGradient id="paint19_linear" x1="85.7588" y1="661.674" x2="112.671" y2="661.674" gradientUnits="userSpaceOnUse">
<stop stop-color="#40447E"/>
<stop offset="1" stop-color="#3C3B6B"/>
</linearGradient>
<linearGradient id="paint20_linear" x1="21828.1" y1="63030.4" x2="23153.3" y2="63030.4" gradientUnits="userSpaceOnUse">
<stop stop-color="#40447E"/>
<stop offset="1" stop-color="#3C3B6B"/>
</linearGradient>
<linearGradient id="paint21_linear" x1="12620.8" y1="33516.4" x2="12950.6" y2="34467.6" gradientUnits="userSpaceOnUse">
<stop stop-color="#311944"/>
<stop offset="1" stop-color="#A03976"/>
</linearGradient>
<linearGradient id="paint22_linear" x1="12282.2" y1="24840.4" x2="11812.2" y2="27204.5" gradientUnits="userSpaceOnUse">
<stop stop-color="#311944"/>
<stop offset="1" stop-color="#A03976"/>
</linearGradient>
<linearGradient id="paint23_linear" x1="102751" y1="543889" x2="64029.2" y2="525894" gradientUnits="userSpaceOnUse">
<stop stop-color="#444B8C"/>
<stop offset="1" stop-color="#3E4177"/>
</linearGradient>
<linearGradient id="paint24_linear" x1="189.051" y1="631.196" x2="120.074" y2="562.21" gradientUnits="userSpaceOnUse">
<stop stop-color="#AB316D"/>
<stop offset="1" stop-color="#792D3D"/>
</linearGradient>
<linearGradient id="paint25_linear" x1="141647" y1="396169" x2="104419" y2="369492" gradientUnits="userSpaceOnUse">
<stop stop-color="#444B8C"/>
<stop offset="1" stop-color="#3E4177"/>
</linearGradient>
<linearGradient id="paint26_linear" x1="84323.1" y1="354121" x2="114942" y2="291869" gradientUnits="userSpaceOnUse">
<stop stop-color="#311944"/>
<stop offset="1" stop-color="#893976"/>
</linearGradient>
<linearGradient id="paint27_linear" x1="130169" y1="251256" x2="143708" y2="201626" gradientUnits="userSpaceOnUse">
<stop stop-color="#311944"/>
<stop offset="1" stop-color="#893976"/>
</linearGradient>
<linearGradient id="paint28_linear" x1="106620" y1="198343" x2="90957.2" y2="247216" gradientUnits="userSpaceOnUse">
<stop stop-color="#FF9085"/>
<stop offset="1" stop-color="#FB6FBB"/>
</linearGradient>
<linearGradient id="paint29_linear" x1="329153" y1="177094" x2="393052" y2="303725" gradientUnits="userSpaceOnUse">
<stop stop-color="#FF9085"/>
<stop offset="1" stop-color="#FB6FBB"/>
</linearGradient>
<linearGradient id="paint30_linear" x1="203411" y1="183690" x2="280025" y2="282319" gradientUnits="userSpaceOnUse">
<stop stop-color="#FF9085"/>
<stop offset="1" stop-color="#FB6FBB"/>
</linearGradient>
<linearGradient id="paint31_linear" x1="35889.5" y1="17046.3" x2="34942.2" y2="14259.3" gradientUnits="userSpaceOnUse">
<stop stop-color="#FFC444"/>
<stop offset="1" stop-color="#F36F56"/>
</linearGradient>
<linearGradient id="paint32_linear" x1="26288.8" y1="24161.2" x2="23705.7" y2="20813.5" gradientUnits="userSpaceOnUse">
<stop stop-color="#FFC444"/>
<stop offset="1" stop-color="#F36F56"/>
</linearGradient>
<linearGradient id="paint33_linear" x1="621.614" y1="608.634" x2="355.858" y2="608.634" gradientUnits="userSpaceOnUse">
<stop stop-color="#444B8C"/>
<stop offset="1" stop-color="#26264F"/>
</linearGradient>
<linearGradient id="paint34_linear" x1="155099" y1="94741.7" x2="165660" y2="94741.7" gradientUnits="userSpaceOnUse">
<stop stop-color="#444B8C"/>
<stop offset="1" stop-color="#26264F"/>
</linearGradient>
<linearGradient id="paint35_linear" x1="608.604" y1="599.914" x2="594.334" y2="599.914" gradientUnits="userSpaceOnUse">
<stop stop-color="#311944"/>
<stop offset="1" stop-color="#6B3976"/>
</linearGradient>
<linearGradient id="paint36_linear" x1="-34833" y1="72007.8" x2="-35685.1" y2="72007.8" gradientUnits="userSpaceOnUse">
<stop stop-color="#311944"/>
<stop offset="1" stop-color="#6B3976"/>
</linearGradient>
<linearGradient id="paint37_linear" x1="597.71" y1="600.876" x2="608.853" y2="599.376" gradientUnits="userSpaceOnUse">
<stop offset="0.01" stop-color="#D8DEE8"/>
<stop offset="1" stop-color="#F4F7FA"/>
</linearGradient>
<linearGradient id="paint38_linear" x1="40654.9" y1="79233.3" x2="41677.8" y2="79233.3" gradientUnits="userSpaceOnUse">
<stop stop-color="#311944"/>
<stop offset="1" stop-color="#6B3976"/>
</linearGradient>
<linearGradient id="paint39_linear" x1="-39237.9" y1="79117.4" x2="-40260.6" y2="79117.4" gradientUnits="userSpaceOnUse">
<stop stop-color="#311944"/>
<stop offset="1" stop-color="#6B3976"/>
</linearGradient>
<linearGradient id="paint40_linear" x1="-18866.2" y1="41565.8" x2="-18480.4" y2="41537.7" gradientUnits="userSpaceOnUse">
<stop offset="0.01" stop-color="#D8DEE8"/>
<stop offset="1" stop-color="#F4F7FA"/>
</linearGradient>
<linearGradient id="paint41_linear" x1="45552.7" y1="86604.9" x2="46772" y2="86604.9" gradientUnits="userSpaceOnUse">
<stop stop-color="#311944"/>
<stop offset="1" stop-color="#6B3976"/>
</linearGradient>
<linearGradient id="paint42_linear" x1="-44100.4" y1="86489.1" x2="-45320" y2="86489.1" gradientUnits="userSpaceOnUse">
<stop stop-color="#311944"/>
<stop offset="1" stop-color="#6B3976"/>
</linearGradient>
<linearGradient id="paint43_linear" x1="22426.7" y1="45532.2" x2="21967.8" y2="45498.8" gradientUnits="userSpaceOnUse">
<stop offset="0.01" stop-color="#D8DEE8"/>
<stop offset="1" stop-color="#F4F7FA"/>
</linearGradient>
<linearGradient id="paint44_linear" x1="65265.8" y1="112202" x2="67253" y2="112202" gradientUnits="userSpaceOnUse">
<stop stop-color="#311944"/>
<stop offset="1" stop-color="#6B3976"/>
</linearGradient>
<linearGradient id="paint45_linear" x1="-63653.9" y1="112064" x2="-65641.2" y2="112064" gradientUnits="userSpaceOnUse">
<stop stop-color="#311944"/>
<stop offset="1" stop-color="#6B3976"/>
</linearGradient>
<linearGradient id="paint46_linear" x1="-30895.7" y1="58813.7" x2="-30146.4" y2="58759.2" gradientUnits="userSpaceOnUse">
<stop offset="0.01" stop-color="#D8DEE8"/>
<stop offset="1" stop-color="#F4F7FA"/>
</linearGradient>
<linearGradient id="paint47_linear" x1="91268.4" y1="144729" x2="94511.7" y2="144729" gradientUnits="userSpaceOnUse">
<stop stop-color="#311944"/>
<stop offset="1" stop-color="#6B3976"/>
</linearGradient>
<linearGradient id="paint48_linear" x1="-89385.9" y1="144628" x2="-92629.1" y2="144628" gradientUnits="userSpaceOnUse">
<stop stop-color="#311944"/>
<stop offset="1" stop-color="#6B3976"/>
</linearGradient>
<linearGradient id="paint49_linear" x1="-43707.9" y1="75874.4" x2="-42485" y2="75785.3" gradientUnits="userSpaceOnUse">
<stop offset="0.01" stop-color="#D8DEE8"/>
<stop offset="1" stop-color="#F4F7FA"/>
</linearGradient>
<linearGradient id="paint50_linear" x1="-575719" y1="381000" x2="-385871" y2="537036" gradientUnits="userSpaceOnUse">
<stop stop-color="#FFC444"/>
<stop offset="0.31" stop-color="#FBA94A"/>
<stop offset="1" stop-color="#F36F56"/>
</linearGradient>
<linearGradient id="paint51_linear" x1="-419036" y1="355936" x2="-305729" y2="408639" gradientUnits="userSpaceOnUse">
<stop stop-color="#FFC444"/>
<stop offset="0.31" stop-color="#FBA94A"/>
<stop offset="1" stop-color="#F36F56"/>
</linearGradient>
<linearGradient id="paint52_linear" x1="-427980" y1="335539" x2="-564482" y2="335539" gradientUnits="userSpaceOnUse">
<stop stop-color="#FFC444"/>
<stop offset="1" stop-color="#F36F56"/>
</linearGradient>
<linearGradient id="paint53_linear" x1="233037" y1="326094" x2="254971" y2="326094" gradientUnits="userSpaceOnUse">
<stop offset="0.01" stop-color="#D8DEE8"/>
<stop offset="1" stop-color="#F4F7FA"/>
</linearGradient>
<linearGradient id="paint54_linear" x1="244856" y1="167592" x2="264668" y2="167592" gradientUnits="userSpaceOnUse">
<stop stop-color="#444B8C"/>
<stop offset="1" stop-color="#26264F"/>
</linearGradient>
<linearGradient id="paint55_linear" x1="-90444.4" y1="53336.6" x2="-88633.1" y2="62522.7" gradientUnits="userSpaceOnUse">
<stop stop-color="#FF9085"/>
<stop offset="1" stop-color="#FB6FBB"/>
</linearGradient>
<linearGradient id="paint56_linear" x1="-45107" y1="48869" x2="-42295.8" y2="56244.2" gradientUnits="userSpaceOnUse">
<stop stop-color="#FF9085"/>
<stop offset="1" stop-color="#FB6FBB"/>
</linearGradient>
<linearGradient id="paint57_linear" x1="346809" y1="113284" x2="389268" y2="113284" gradientUnits="userSpaceOnUse">
<stop stop-color="#444B8C"/>
<stop offset="1" stop-color="#26264F"/>
</linearGradient>
</defs>
</svg>
