<svg width="450" height="264" viewBox="0 0 450 264" fill="none" xmlns="http://www.w3.org/2000/svg">
<path d="M216.351 91.821L211.078 91.7006C212.773 93.895 213.154 95.9199 212.099 97.6303C211.045 99.3765 208.521 100.813 204.742 101.901C209.311 89.667 210.264 76.3763 207.488 63.6154C204.711 50.8544 198.322 39.1623 189.082 29.9347C179.496 20.3576 167.275 13.8535 153.978 11.2516C140.681 8.6497 126.91 10.068 114.422 15.3256C113.419 15.7582 112.416 16.2065 111.448 16.6636C108.519 15.7716 105.667 15.0379 102.914 14.4804C89.0223 11.6594 79.1636 13.6085 75.1573 19.9686C71.3472 26.0165 73.4206 35.1196 80.9851 45.7391C79.9662 47.6235 79.0499 49.5614 78.2027 51.5663C77.5629 53.0716 76.9922 54.5746 76.4727 56.1133C62.2644 56.9608 54.6575 59.4584 51.893 63.9921C48.6781 69.2662 53.0679 76.3444 67.1224 83.2264C69.0575 84.1764 71.1354 85.1108 73.3113 86.0452C74.0389 92.4277 75.6865 98.6712 78.2027 104.581C83.3912 116.863 92.0683 127.352 103.159 134.748C114.249 142.144 127.266 146.123 140.595 146.191C153.924 146.259 166.98 142.414 178.146 135.131C189.311 127.849 198.095 117.449 203.409 105.221C210.34 103.785 214.904 101.537 216.719 98.5647C217.965 96.5242 217.809 94.2406 216.351 91.821ZM200.076 102.971C195.461 103.801 189.704 104.285 182.98 104.354C172.544 104.481 160.561 103.658 147.933 101.992C148.995 99.679 150.035 97.3047 151.055 94.8695C154.772 96.1284 158.562 97.1591 162.405 97.9559C166.561 98.7989 170.353 99.2159 173.737 99.2159C181.67 99.2159 187.355 96.9256 190.162 92.4677C190.623 91.7335 191.002 90.9505 191.292 90.1329H187.248C187.181 90.2555 187.109 90.3782 187.025 90.4964C184.94 93.8058 180.281 95.5162 173.737 95.5162C170.616 95.5162 167.049 95.1237 163.129 94.3298C159.514 93.577 155.948 92.6089 152.448 91.4308C153.423 88.994 154.368 86.5135 155.284 83.9891C157.736 77.1896 159.859 70.4482 161.567 63.9765C169.849 65.1588 178.206 65.735 186.572 65.7004C192.097 65.7004 197.819 65.4773 203.739 65.0313C204.622 69.3245 205.065 73.6964 205.061 78.0794C205.085 86.6278 203.389 95.0938 200.076 102.974V102.971ZM115.816 136.737C113.85 136.023 112.851 133.2 112.36 130.956C111.582 127.41 111.442 122.431 111.952 116.555C112.211 113.584 112.621 110.424 113.185 107.119C121.313 109.294 129.274 112.052 137.007 115.37C135.257 118.392 133.484 121.193 131.714 123.731C128.341 128.568 125.041 132.301 122.174 134.524C120.357 135.925 117.78 137.452 115.814 136.739L115.816 136.737ZM138.779 112.206C130.685 108.713 122.345 105.823 113.825 103.56C114.122 102.027 114.448 100.466 114.804 98.8769C117.154 99.4121 119.532 99.9325 121.938 100.438C128.999 101.883 136.044 103.114 142.939 104.102C141.585 106.924 140.201 109.625 138.786 112.206H138.779ZM123.512 97.8756C120.783 97.3137 118.097 96.7279 115.452 96.1183C116.697 90.9401 118.224 85.5434 120.009 80.0419C129.282 85.7441 138.712 90.3826 147.641 93.6742C146.522 96.3503 145.374 98.952 144.197 101.479C137.415 100.507 130.475 99.3006 123.512 97.8756ZM100.865 27.9856C101.612 29.5047 102.448 30.9777 103.371 32.3967C108.053 39.6444 114.251 44.8984 118.621 48.0271C121.187 49.8619 123.868 51.5311 126.647 53.0247C124.056 58.669 121.59 64.6946 119.321 70.9499C118.898 72.117 118.487 73.2811 118.085 74.4422C104.537 65.6223 93.0688 55.5001 85.5354 45.7057C87.4223 42.4879 89.5856 39.4405 92.0008 36.5981C93.0041 35.4206 94.0408 34.2811 95.1221 33.1727L95.568 32.7267C97.2453 31.0502 99.0137 29.4674 100.865 27.9856V27.9856ZM158.793 18.2091C160.759 18.9227 161.758 21.7482 162.249 23.9916C163.027 27.5352 163.167 32.5149 162.657 38.3911C162.097 44.8226 160.809 52.1282 158.893 59.9067C156.579 59.5082 154.321 59.0563 152.118 58.5508C144.511 56.8002 137.58 54.4073 131.384 51.4012C135.078 43.6964 138.984 36.8233 142.89 31.2214C146.264 26.3844 149.563 22.6536 152.43 20.4302C153.926 19.2706 155.944 18.0396 157.716 18.0396C158.082 18.0337 158.445 18.091 158.791 18.2091H158.793ZM151.061 62.0096C153.315 62.5329 155.627 62.9998 157.997 63.4101C156.334 69.6699 154.285 76.1883 151.9 82.7692C150.978 85.307 150.027 87.801 149.046 90.2511C140.081 86.9595 130.566 82.2496 121.213 76.4247C121.695 75.0108 122.194 73.5933 122.709 72.172C124.939 66.0572 127.333 60.1721 129.857 54.6594C136.213 57.7502 143.303 60.2077 151.059 62.0096H151.061ZM186.287 32.72C194.266 40.6767 200.002 50.6009 202.914 61.4878C188.128 62.5694 174.582 62.2304 162.472 60.4776C164.393 52.6233 165.687 45.2351 166.262 38.7077C166.888 31.5024 166.81 22.9658 163.89 18.1622C164.558 18.4231 165.241 18.693 165.912 18.9784C173.528 22.1936 180.446 26.8609 186.28 32.72H186.287ZM140.944 13.9251C145.34 13.922 149.724 14.3704 154.029 15.2631C148.99 17.4575 143.845 23.5634 139.941 29.1631C135.943 34.8921 131.953 41.9056 128.185 49.7577C125.695 48.4093 123.288 46.9132 120.977 45.2775C110.256 37.6708 105.531 29.4686 103.81 25.7623C106.443 23.8911 109.212 22.2205 112.095 20.7647V20.7647C113.275 20.17 114.474 19.6125 115.693 19.0922L115.959 18.9784L116.019 18.9517L116.801 18.6283L117.024 18.5458C124.624 15.4808 132.743 13.9118 140.937 13.9251H140.944ZM78.2808 21.9533C80.3675 18.6417 85.0271 16.9335 91.5683 16.9335C94.6896 16.9335 98.2567 17.3237 102.176 18.1198C103.662 18.4172 105.179 18.771 106.726 19.1814C101.625 22.1357 96.9364 25.7506 92.7812 29.9325C91.8894 30.7977 91.0533 31.6964 90.2217 32.6308C89.185 33.7726 88.1996 34.9657 87.2499 36.1766C85.7347 38.1109 84.3258 40.1261 83.0295 42.2134V42.2134C77.2329 33.6299 75.5051 26.3488 78.2741 21.9533H78.2808ZM81.8234 53.1228C82.3941 51.8093 82.9827 50.5114 83.6226 49.2492C91.546 59.1551 103.224 69.2796 116.868 78.0638C114.933 83.9534 113.283 89.7404 111.95 95.2888C102.024 92.887 92.8235 90.1596 84.7507 87.2606C83.0563 86.6562 81.4065 86.0318 79.8459 85.4096C78.9139 85.0461 77.9976 84.667 77.0969 84.2946C76.9587 82.9119 76.8562 81.5115 76.8205 80.111C76.8049 79.442 76.7871 78.773 76.7871 78.1039C76.7871 77.3279 76.8049 76.5429 76.8205 75.7535C77.0385 69.9761 78.0267 64.2538 79.7589 58.7381C80.0532 57.806 80.3653 56.8894 80.7109 55.9728C81.0564 55.0072 81.4199 54.0572 81.8167 53.1228H81.8234ZM70.2592 81.2037C57.9972 75.2205 52.4013 69.4469 54.9094 65.348C56.9315 62.0275 64.2954 59.7729 75.5653 58.95C74.1808 63.6388 73.3194 68.4666 72.997 73.345C72.8922 74.7968 72.8409 76.2441 72.8231 77.7204V78.0995C72.8231 79.5713 72.8766 81.0409 72.9613 82.4927C72.0338 82.069 71.1331 81.6363 70.2525 81.2037H70.2592ZM79.5583 88.5629C81.2192 89.1873 82.9025 89.8095 84.6593 90.4139C92.6853 93.197 101.681 95.7816 111.306 98.0763C110.956 99.6359 110.634 101.172 110.338 102.686C109.55 102.494 108.763 102.308 107.977 102.128C94.6717 99.0999 84.6882 98.4822 80.0599 98.3796C78.9139 94.9276 78.0695 91.3826 77.5361 87.7846L79.5583 88.5629ZM81.8234 103.072C81.6747 102.728 81.5335 102.384 81.3998 102.039C86.3358 102.238 95.4877 102.985 107.177 105.647C108.013 105.837 108.849 106.038 109.683 106.241C109.083 109.751 108.637 113.105 108.363 116.256C107.846 122.228 107.808 129.112 109.478 134.029C97.1045 127.038 87.3862 116.155 81.8323 103.072H81.8234ZM165.905 137.221C151.814 143.157 136.071 143.883 121.494 139.268C126.239 136.781 131.005 131.068 134.677 125.803C136.572 123.086 138.467 120.083 140.331 116.84C151.178 121.763 161.513 127.744 171.187 134.696C169.465 135.606 167.703 136.444 165.898 137.209L165.905 137.221ZM186.287 123.474C182.771 127.004 178.853 130.108 174.613 132.725C164.452 125.287 153.558 118.906 142.101 113.68C143.662 110.814 145.207 107.786 146.714 104.626C157.125 106.006 167.138 106.834 176.276 107.048C178.662 107.117 180.978 107.117 183.226 107.099C189.051 107.03 194.237 106.684 198.68 106.062C195.555 112.519 191.363 118.402 186.28 123.463L186.287 123.474Z" fill="#313B75"/>
<path d="M353.868 244.917C352.415 239.281 342.596 243.646 334.51 248.376C334.133 247.78 333.741 247.189 333.339 246.605C339.136 243.012 347.258 237.038 344.163 233.403C341.107 229.81 335.134 237.943 331.398 243.94C321.387 230.945 306.541 221.695 306.541 221.695C306.541 221.695 368.491 170.21 322.199 143.048C275.906 115.886 240.739 211.459 240.739 211.459C240.739 211.459 209.107 182.158 178.903 192.981C147.887 204.093 167.27 224.688 140.333 230.256C137.163 218.111 131.299 200.982 123.285 199.977C112.697 198.65 117.151 211.905 133.239 231.267C130.118 231.545 126.569 231.688 122.509 231.677C79.3064 231.548 90.4046 262.675 90.4046 262.675L340.188 263.25C339.813 260.144 338.966 257.114 337.678 254.263C346.223 252.907 355.246 250.224 353.868 244.917Z" fill="#242E6C"/>
<path d="M224.631 125.352L213.738 254.905C213.738 254.905 212.597 262.759 218.438 262.773C228.04 262.795 266.231 262.773 266.231 262.773C266.231 262.773 259.003 261.138 259.096 257.461C259.201 253.123 271.829 124.126 271.829 124.126L224.631 125.352Z" fill="#F24B46"/>
<path d="M269.329 260.422C267.441 260.422 230.963 260.543 221.619 260.422C217.544 260.371 216.83 256.798 216.795 254.486C216.783 253.841 216.825 253.195 216.919 252.557L217.203 249.19L217.912 240.599L218.549 233.017L219.367 223.274L220.059 215.05L227.799 122.993L274.99 121.768C274.99 121.768 269.671 175.754 265.91 215.05C265.488 219.429 265.089 223.626 264.719 227.538C264.599 228.788 264.483 230.01 264.373 231.202C264.023 234.919 263.705 238.338 263.428 241.349C263.281 242.939 263.147 244.415 263.025 245.766C262.545 251.067 262.262 254.45 262.26 255.095C262.256 255.446 262.287 255.797 262.351 256.143C263.132 260.286 268.621 260.422 269.329 260.422Z" fill="#FD8857"/>
<path d="M110.026 54.8534L136.559 161.459L140.193 176.059L152.551 225.714H382.14L336.59 54.8534H110.026Z" fill="#F9795A"/>
<path d="M110.026 54.8534L106.347 56.0799L147.661 229.425L152.551 225.716L110.026 54.8534Z" fill="#FD8857"/>
<path d="M147.661 229.425H375.837L382.138 225.716H152.551L147.661 229.425Z" fill="#F24B46"/>
<path d="M277.193 260.474H227.79V262.822H277.193V260.474Z" fill="#F24B46"/>
<path d="M264.634 229.422L264.38 231.217L217.918 240.606L218.556 233.024L218.859 229.422H264.634Z" fill="#F24B46"/>
<path d="M269.329 260.422C267.441 260.422 230.963 260.543 221.619 260.422C217.544 260.371 216.83 256.798 216.795 254.486L263.038 245.789C262.559 251.09 262.275 254.473 262.273 255.117C262.269 255.469 262.3 255.82 262.365 256.165C263.132 260.286 268.62 260.422 269.329 260.422Z" fill="#F9795A"/>
<path d="M253.404 191.125L152.551 225.716L140.193 176.059L253.404 191.125Z" fill="#FD8857"/>
<path d="M110.026 54.8534H336.59L373.349 192.171H144.201L110.026 54.8534Z" fill="#B1C9F6"/>
<path d="M273.425 209.53C272.769 206.163 269.51 203.433 266.144 203.433C262.777 203.433 260.57 206.163 261.239 209.53C261.908 212.898 265.154 215.623 268.52 215.623C271.887 215.623 274.094 212.898 273.425 209.53Z" fill="#F24B46"/>
<path d="M362.666 186.222H150.533L126.508 90.4942L124.667 83.1528L123.095 76.8908L119.41 62.2081H328.486L332.532 76.8908L334.258 83.1528L336.28 90.4942L362.666 186.222Z" fill="#242E6C"/>
<path d="M332.532 76.8908H123.095L119.41 62.2081H328.486L332.532 76.8908Z" fill="#1B2251"/>
<path d="M129.438 67.0094C128.424 67.0094 127.808 67.8301 128.06 68.8447C128.201 69.3527 128.498 69.8034 128.91 70.1329C129.321 70.4623 129.826 70.6538 130.352 70.6801C131.366 70.6801 131.982 69.8572 131.73 68.8447C131.589 68.3366 131.292 67.8857 130.881 67.5562C130.469 67.2267 129.964 67.0354 129.438 67.0094V67.0094Z" fill="#CBA4E3"/>
<path d="M135.533 67.0094C134.521 67.0094 133.903 67.8301 134.158 68.8447C134.298 69.3529 134.595 69.8038 135.007 70.1333C135.418 70.4628 135.923 70.6541 136.449 70.6801C137.462 70.6801 138.079 69.8572 137.827 68.8447C137.686 68.3364 137.389 67.8854 136.977 67.556C136.565 67.2265 136.06 67.0352 135.533 67.0094V67.0094Z" fill="#CBA4E3"/>
<path d="M144.391 68.8447C144.251 68.3364 143.954 67.8853 143.542 67.5558C143.131 67.2262 142.626 67.035 142.099 67.0094C141.087 67.0094 140.469 67.8301 140.721 68.8447C140.862 69.3525 141.16 69.8031 141.571 70.1325C141.982 70.4619 142.487 70.6534 143.013 70.6801C144.027 70.6801 144.645 69.8572 144.391 68.8447Z" fill="#CBA4E3"/>
<path d="M38.96 90.9848C38.96 90.9848 39.611 88.9398 38.5921 87.1023C37.5733 85.2647 39.2186 83.9802 38.8151 83.4316C38.4116 82.883 35.6938 82.9343 34.7642 85.6037C33.8345 88.2731 35.4018 91.2836 35.4018 91.2836L38.96 90.9848Z" fill="#FF938F"/>
<path d="M27.592 105.681C28.041 105.815 28.5138 105.852 28.9782 105.788C29.4426 105.723 29.8877 105.56 30.2834 105.308C30.679 105.057 31.016 104.723 31.2713 104.33C31.5267 103.937 31.6945 103.493 31.7633 103.029L34.4609 91.288C34.4609 91.288 35.0228 90.3804 36.9691 90.4584C39.0871 90.5454 39.66 91.5958 39.66 91.5958C39.66 91.5958 40.9687 112.264 34.8511 115.181C28.7335 118.098 21.8088 103.95 27.592 105.681Z" fill="#7F22BA"/>
<path d="M40.2731 262.644H23.0438C21.8176 261.529 21.4141 255.008 21.4141 255.008C21.4141 255.008 26.7648 250.193 28.5016 254.004C30.1603 257.624 34.744 259.55 37.484 260.025C39.8428 260.447 40.224 262.169 40.2731 262.644Z" fill="#1B2251"/>
<path d="M19.4031 262.644H2.17391C0.94771 261.529 0.541962 255.008 0.541962 255.008C0.541962 255.008 5.89266 250.193 7.62941 254.004C9.28812 257.624 13.8719 259.55 16.6119 260.025C18.9729 260.447 19.3452 262.169 19.4031 262.644Z" fill="#1B2251"/>
<path d="M31.7922 172.422C31.7922 172.422 29.3398 188.102 20.199 215.933C11.0582 243.764 9.80973 255.817 9.80973 255.817L0.000126583 255.543C0.000126583 255.543 -0.0845881 225.125 4.12908 211.129C8.34275 197.133 5.03872 160.674 5.03872 160.674L31.7922 172.422Z" fill="#1B2251"/>
<path d="M36.5632 161.533C36.5632 161.533 36.911 185.171 32.8244 214.162C28.7379 243.153 30.1223 255.485 30.1223 255.485L20.335 255.811C20.335 255.811 14.4849 226.791 16.1615 212.271C17.838 197.751 8.15329 162.447 8.15329 162.447L36.5632 161.533Z" fill="#313B75"/>
<path d="M17.615 106.243L22.2323 109.661L28.905 108.257C28.8114 107.648 28.3722 105.134 27.9709 102.842C27.9463 102.706 27.9218 102.572 27.8995 102.441C27.5562 100.496 27.2597 98.8256 27.2597 98.8256L21.0283 95.7192L18.703 94.5618C18.703 94.6019 18.8836 96.7182 18.9081 97.0282C19.3451 102.514 17.615 106.243 17.615 106.243Z" fill="#FFA39F"/>
<path d="M28.4369 104.517C28.292 104.454 19.3608 101.818 18.391 102.14C17.4212 102.461 16.846 104.336 16.846 104.336L31.4534 107.641C31.4534 107.641 30.303 105.302 28.4369 104.517Z" fill="#7F22BA"/>
<path d="M4.3923 164.45C5.9061 171.363 31.0967 172.174 37.5889 165.906C38.3291 165.19 38.3647 161.865 38.086 157.382C37.5421 148.625 35.7919 135.45 35.7228 128.717C35.6552 125.495 35.2955 122.285 34.6482 119.128C33.8787 115.224 32.8107 111.384 31.4534 107.643C31.4534 107.643 19.1491 103.665 16.846 104.343C5.75449 107.596 2.8785 157.541 4.3923 164.45Z" fill="#9E30CA"/>
<path d="M38.086 157.382C37.5421 148.625 35.7919 135.45 35.7228 128.717C35.6552 125.495 35.2955 122.285 34.6482 119.128L27.2464 117.821C27.2464 117.821 20.0096 147.383 38.086 157.382Z" fill="#7F22BA"/>
<path d="M19.3764 97.1241C20.7453 99.7444 25.8418 102.008 27.9709 102.842C27.9464 102.706 27.9219 102.572 27.8996 102.441C27.5563 100.496 27.2597 98.8256 27.2597 98.8256L21.0284 95.7191C19.6506 95.6991 18.8213 96.047 19.3764 97.1241Z" fill="#FF938F"/>
<path d="M30.2874 98.4621C30.2874 98.4621 19.0442 101.97 16.9686 94.9319C14.893 87.8939 12.0437 83.6099 19.1334 81.0721C26.2231 78.5343 28.4168 80.8067 29.6809 82.9877C30.945 85.1687 33.1589 97.3672 30.2874 98.4621Z" fill="#FFA39F"/>
<path d="M28.6777 83.0368C28.6777 83.0368 27.962 91.2256 26.2676 90.8688C24.5732 90.512 23.0394 90.251 23.2869 92.7175C23.5343 95.1839 25.8842 98.0362 20.665 98.4733C15.4459 98.9103 7.95713 85.4519 9.38175 82.903C13.5174 75.5505 34.6504 74.0675 28.6777 83.0368Z" fill="#1B2251"/>
<path d="M44.4913 81.2773L33.5982 84.1898L33.9348 88.6811L45.0397 88.6031C45.9315 88.5384 46.5089 86.8435 46.3573 84.812C46.2057 82.7804 45.3697 81.2126 44.4913 81.2773Z" fill="#F9795A"/>
<path d="M34.7419 86.3618C34.6482 85.1219 34.1354 84.1496 33.5981 84.1897C33.0608 84.2299 32.7064 85.2691 32.7888 86.509C32.8713 87.7489 33.3953 88.7212 33.9348 88.6811C34.4743 88.6409 34.8355 87.6017 34.7419 86.3618Z" fill="#F24B46"/>
<path d="M38.7816 86.2147L35.4129 86.2771C35.3059 86.9838 35.4887 87.2893 35.4887 87.2893L38.8462 87.5122L38.7816 86.2147Z" fill="#F24B46"/>
<path d="M50.834 81.1212L38.329 84.4663L38.7147 89.6222L51.465 89.5352C52.4749 89.4594 53.1526 87.5148 52.9765 85.1911C52.8004 82.8674 51.8439 81.0454 50.834 81.1212Z" fill="#FD8857"/>
<path d="M39.6421 86.9484C39.5351 85.5256 38.9465 84.4084 38.3289 84.4552C37.7114 84.502 37.2945 85.6929 37.4015 87.1179C37.5085 88.5429 38.0971 89.6579 38.7146 89.6133C39.3322 89.5687 39.7491 88.3801 39.6421 86.9484Z" fill="#F24B46"/>
<path d="M41.584 90.9625C41.584 90.9625 40.4046 89.1784 40.8839 87.1245C41.3633 85.0707 39.4348 84.2991 39.6845 83.6501C39.9342 83.0012 42.556 82.3121 44.1724 84.638C45.7887 86.964 45.1021 90.2801 45.1021 90.2801L41.584 90.9625Z" fill="#FFA39F"/>
<path d="M26.2052 108.134C26.2052 108.134 32.7353 106.943 38.7682 107.032C39.2371 107.04 39.7021 106.947 40.1318 106.759C40.5614 106.57 40.9456 106.292 41.2582 105.942C41.5707 105.593 41.8044 105.18 41.9433 104.732C42.0823 104.284 42.1232 103.811 42.0633 103.346L41.0088 91.54C41.0088 91.54 41.7646 90.2867 43.6574 89.834C45.7196 89.3412 46.3818 90.4539 46.3818 90.4539C46.3818 90.4539 53.4313 109.731 48.337 114.202C43.2427 118.673 23.949 121.47 23.949 121.47L26.2052 108.134Z" fill="#9E30CA"/>
<path d="M441.263 28.0324C440.594 43.5581 436.98 62.5604 425.501 77.8475C425.078 78.4095 424.655 78.9655 424.23 79.5156C422.944 81.1792 421.635 82.796 420.301 84.3659C419.585 85.2077 418.574 85.7441 417.476 85.8655C416.377 85.987 415.274 85.6843 414.391 85.0193L363.444 46.7449C362.879 46.3241 362.438 45.7596 362.166 45.1102C361.988 44.6851 361.885 44.2324 361.861 43.7722C361.817 42.9293 362.044 42.0945 362.51 41.3905C363.699 39.5782 364.95 37.7718 366.264 35.9714C366.674 35.408 367.09 34.846 367.512 34.2855C378.99 18.9962 396.228 10.2299 410.944 5.25687C417.471 3.0611 424.152 1.35265 430.931 0.14558C431.749 -0.00260935 432.583 -0.0378829 433.411 0.0407598C434.575 0.149784 435.702 0.513709 436.71 1.10673C438.826 2.35557 440.295 4.58785 440.598 7.40665C441.329 14.256 441.551 21.1502 441.263 28.0324V28.0324Z" fill="#FD8857"/>
<path d="M366.23 36.0205C364.744 38.0632 363.332 40.1164 361.995 42.1799C361.575 42.8285 361.418 43.612 361.553 44.3723C361.689 45.1326 362.108 45.8131 362.726 46.2765L414.964 85.5256C415.684 86.0667 416.584 86.313 417.479 86.2144C418.375 86.1158 419.199 85.6797 419.784 84.9948C421.282 83.2464 422.755 81.4386 424.201 79.5713L366.23 36.0205Z" fill="#242E6C"/>
<path d="M411.509 51.5038C408.64 51.4977 405.83 50.6934 403.393 49.1807C400.956 47.6681 398.988 45.5069 397.709 42.939C396.43 40.3711 395.89 37.4978 396.151 34.6407C396.411 31.7836 397.462 29.0553 399.184 26.7613V26.7613C400.71 24.7288 402.714 23.1041 405.017 22.031C407.321 20.958 409.854 20.4699 412.391 20.6098C414.928 20.7497 417.392 21.5134 419.564 22.8332C421.735 24.1531 423.548 25.9883 424.842 28.1763C426.135 30.3643 426.869 32.8376 426.978 35.3771C427.088 37.9166 426.569 40.4439 425.469 42.7352C424.369 45.0264 422.721 47.0109 420.67 48.5128C418.62 50.0147 416.232 50.9876 413.716 51.3455C412.985 51.4501 412.247 51.503 411.509 51.5038V51.5038ZM411.564 24.1767C410.997 24.177 410.431 24.2172 409.87 24.2971C408.328 24.5133 406.844 25.0331 405.504 25.8267C404.165 26.6202 402.995 27.6716 402.065 28.92V28.92C400.463 31.0561 399.629 33.6703 399.698 36.3393C399.767 39.0084 400.734 41.5762 402.443 43.6269C404.153 45.6776 406.504 47.0912 409.116 47.6389C411.729 48.1867 414.45 47.8364 416.838 46.6448C419.227 45.4532 421.144 43.4901 422.278 41.0732C423.413 38.6564 423.698 35.9273 423.089 33.3278C422.48 30.7283 421.012 28.4105 418.922 26.7497C416.832 25.0889 414.242 24.1823 411.573 24.1767H411.564Z" fill="#DFDCF7"/>
<path d="M437.878 4.6882C437.752 3.42826 437.353 2.21083 436.71 1.12011C435.702 0.527088 434.575 0.163162 433.411 0.0541382C433.411 0.12104 433.428 0.190179 433.435 0.257081C434.169 7.10479 434.392 13.9976 434.104 20.8784C433.435 36.4041 429.821 55.4064 418.344 70.6957C417.922 71.2577 417.498 71.8137 417.071 72.3638C416.789 72.7295 416.503 73.0937 416.215 73.4565L421.2 77.2075L421.514 76.8083C421.941 76.2552 422.364 75.6984 422.785 75.138C434.265 59.8509 437.874 40.8464 438.547 25.3229C438.835 18.4376 438.611 11.5404 437.878 4.6882Z" fill="#EFECEA"/>
<path d="M440.598 7.41116C440.063 2.42252 435.868 -0.730779 430.929 0.147863C424.151 1.35525 417.471 3.06369 410.944 5.25915L441.265 28.0325C441.553 21.1517 441.33 14.259 440.598 7.41116V7.41116Z" fill="#242E6C"/>
<path d="M370.471 56.9519C365.504 53.6514 357.683 56.6865 353.005 63.7313C348.328 70.776 353.529 82.4637 353.529 82.4637C353.529 82.4637 366.317 82.7291 370.995 75.6844C375.672 68.6396 375.438 60.2524 370.471 56.9519Z" fill="#F24B46"/>
<path d="M398.397 77.4684C393.43 74.1701 385.609 77.2052 380.932 84.25C376.254 91.2947 381.455 102.982 381.455 102.982C381.455 102.982 394.244 103.248 398.921 96.2009C403.598 89.1539 403.364 80.7689 398.397 77.4684Z" fill="#F24B46"/>
<path d="M365.189 64.8507C361.763 62.5716 356.365 64.6678 353.135 69.5338C349.904 74.3998 353.498 82.4682 353.498 82.4682C353.498 82.4682 362.324 82.651 365.553 77.785C368.781 72.919 368.623 67.1276 365.189 64.8507Z" fill="#FD8857"/>
<path d="M393.176 85.3449C389.747 83.068 384.349 85.162 381.121 90.028C377.893 94.894 381.482 102.962 381.482 102.962C381.482 102.962 390.309 103.143 393.537 98.2792C396.765 93.4155 396.605 87.6173 393.176 85.3449Z" fill="#FD8857"/>
<path d="M404.611 43.7343L420.629 40.9021C419.876 42.269 418.827 43.4499 417.558 44.3581C416.289 45.2663 414.833 45.8787 413.297 46.1503C411.761 46.4219 410.183 46.3459 408.68 45.9278C407.177 45.5098 405.786 44.7602 404.611 43.7343V43.7343Z" fill="#EB3668"/>
<path d="M421.92 35.5098L401.632 39.3545C401.126 37.933 400.934 36.4187 401.068 34.9158C401.203 33.4129 401.661 31.957 402.412 30.6481C403.162 29.3392 404.187 28.2084 405.416 27.3333C406.645 26.4582 408.049 25.8597 409.531 25.5789C411.013 25.298 412.539 25.3414 414.002 25.7062C415.466 26.071 416.834 26.7485 418.011 27.6921C419.188 28.6357 420.147 29.823 420.822 31.1725C421.496 32.5221 421.871 34.0017 421.92 35.5098V35.5098Z" fill="#EB3668"/>
<path d="M98.7361 181.666C98.7361 181.666 102.134 182.537 104.292 181.889C106.45 181.24 110.169 182.308 110.769 183.095C111.368 183.882 111.145 184.197 110.077 184.469C109.009 184.741 105.226 186.353 102.738 185.419C100.25 184.484 97.0083 184.451 97.0083 184.451L98.7361 181.666Z" fill="#FFA39F"/>
<path d="M69.3742 152.146C69.3742 152.146 73.191 179.277 79.5093 181.708C82.6305 182.908 96.4085 185.626 100.486 185.898C100.486 185.898 101.485 185.089 101.24 181.79C101.24 181.79 86.8018 176.487 84.7418 173.604C81.6897 169.313 86.6368 156.073 82.8066 152.041C78.9764 148.01 72.5333 146.279 69.3742 152.146Z" fill="#F24B46"/>
<path d="M75.1395 256.573V250.657H84.4497C84.569 250.657 84.6836 250.61 84.769 250.527C84.8544 250.444 84.9038 250.33 84.9067 250.211V249.263C84.9038 249.144 84.8544 249.03 84.769 248.947C84.6836 248.864 84.569 248.817 84.4497 248.817H75.1395V215.143C75.1383 214.688 74.9571 214.252 74.6354 213.93C74.3137 213.609 73.8777 213.427 73.4228 213.426H71.579C71.1241 213.427 70.6881 213.609 70.3665 213.93C70.0448 214.252 69.8635 214.688 69.8624 215.143V248.817H60.5499C60.4326 248.82 60.3208 248.868 60.2378 248.951C60.1547 249.034 60.1069 249.146 60.1041 249.263V250.211C60.1069 250.328 60.1547 250.44 60.2378 250.523C60.3208 250.606 60.4326 250.654 60.5499 250.657H69.8624V256.573C63.1249 257.082 57.7274 259.508 56.2136 262.641H88.7882C87.2655 259.508 81.8769 257.082 75.1395 256.573Z" fill="#FD8857"/>
<path d="M70.6606 209.307C71.78 211.169 73.0255 212.952 74.3882 214.644C78.4904 219.822 82.956 224.092 83.7341 228.131C83.9103 229.008 84.1509 229.872 84.4542 230.713C84.7797 231.639 85.181 232.611 85.6447 233.613C87.3837 237.404 89.9877 241.641 92.5872 245.483C97.0796 252.142 101.304 257.699 101.304 257.699L109.052 257.369C108.742 256.591 105.362 247.396 100.841 236.161C99.0058 231.599 97.0506 226.748 95.1712 222.07L94.4198 220.205L92.7255 215.991L85.1007 197.035C85.1007 197.035 68.1346 190.606 66.3733 194.772C64.9219 198.215 66.1036 201.573 70.6606 209.307Z" fill="#7F22BA"/>
<path d="M101.545 256.143C101.545 256.143 101.942 262.539 103.179 262.63C103.344 262.63 109.453 262.63 109.453 262.63H117.256C117.256 262.63 117.205 260.706 114.924 260.309C112.643 259.912 108.831 258.302 107.449 255.295C105.993 252.135 101.545 256.143 101.545 256.143Z" fill="#7F22BA"/>
<path d="M83.6069 238.026C83.6069 238.026 78.2161 241.489 78.74 242.613C78.8092 242.762 81.7877 248.099 81.7877 248.099L85.6291 254.887C85.6291 254.887 87.2454 253.926 86.4807 251.743C85.716 249.56 85.2545 245.443 87.212 242.769C89.272 239.955 83.6069 238.026 83.6069 238.026Z" fill="#7F22BA"/>
<path d="M90.8727 193.978C90.8727 193.978 112.191 207.26 114.567 216.176C116.944 225.091 86.2533 244.114 86.2533 244.114C86.2533 244.114 82.8868 241.141 82.2915 238.962C82.2915 238.962 96.1699 222.331 99.1797 218.602C101.028 216.312 71.8421 210.676 68.2772 205.128C64.7123 199.58 65.9898 194.912 65.9898 194.912L90.8727 193.978Z" fill="#9E30CA"/>
<path d="M94.2905 211.029H50.7114C49.8359 211.029 49.1263 211.739 49.1263 212.614V221.332C49.1263 222.207 49.8359 222.917 50.7114 222.917H94.2905C95.166 222.917 95.8757 222.207 95.8757 221.332V212.614C95.8757 211.739 95.166 211.029 94.2905 211.029Z" fill="#F24B46"/>
<path d="M84.2937 150.436C79.1927 151.756 70.7364 147.028 70.7364 147.028C70.7364 147.028 74.0204 144.821 75.2376 139.97C75.2978 139.727 75.3558 139.475 75.4026 139.219L78.0222 138.663L81.9193 142.156C81.8068 143.48 81.6147 144.795 81.3441 146.096C81.2594 146.532 81.1613 146.998 81.0498 147.494C82.3027 148.267 83.4024 149.264 84.2937 150.436V150.436Z" fill="#FFA39F"/>
<path d="M91.5393 193.282C91.5284 193.336 91.5134 193.39 91.4947 193.443C91.002 194.821 86.425 196.681 82.2224 197.981C80.7176 198.449 79.2573 198.842 78.0534 199.118C74.7984 199.863 66.6475 201.192 65.9318 198.957C65.1047 196.371 66.0656 181.418 65.3343 171.588C64.4715 159.57 67.7867 148.632 72.424 145.05C72.7718 144.794 73.4651 145.476 75.4672 146.428C77.3176 147.305 79.362 147.543 81.0943 147.176L82.6549 148.514C84.7975 150.443 87.154 153.074 88.2286 157.11C88.8818 159.588 89.3768 163.502 89.7424 167.906C89.8828 169.612 90.0055 171.394 90.1103 173.191C90.2775 176.053 90.4224 178.94 90.4915 181.686C90.4915 181.739 90.4915 181.79 90.4915 181.844V181.944C90.5187 182.229 90.5313 182.515 90.5294 182.801C90.603 185.254 90.5896 187.551 90.6721 189.491C90.6721 189.547 90.6721 189.598 90.6721 189.651C90.7769 191.279 91.3744 192.015 91.5327 192.695C91.5809 192.888 91.5832 193.089 91.5393 193.282V193.282Z" fill="#F9795A"/>
<path d="M91.5394 193.282C91.5284 193.336 91.5135 193.39 91.4948 193.443C91.0021 194.821 86.425 196.681 82.2225 197.981C73.6881 187.276 74.6022 174.489 74.6022 174.489L90.4759 181.69C90.4759 181.744 90.4759 181.795 90.4759 181.848V181.949C90.5031 182.233 90.5158 182.519 90.5138 182.805C90.5874 185.258 90.574 187.555 90.6565 189.495C90.6565 189.551 90.6565 189.602 90.6565 189.656C90.7613 191.284 91.3588 192.02 91.5171 192.7C91.5698 192.89 91.5774 193.089 91.5394 193.282V193.282Z" fill="#F24B46"/>
<path d="M81.9148 142.156C81.8023 143.48 81.6102 144.795 81.3396 146.096C77.534 144.867 75.8084 141.429 75.2332 139.97C75.2934 139.727 75.3513 139.475 75.3981 139.219L78.0178 138.663L81.9148 142.156Z" fill="#FF7D78"/>
<path d="M83.4598 142.118C83.4598 142.118 75.1016 143.061 74.5933 137.845C74.085 132.629 72.667 129.237 77.9821 128.414C83.2971 127.591 84.53 129.48 85.1163 131.179C85.7027 132.879 85.6224 141.736 83.4598 142.118Z" fill="#FFA39F"/>
<path d="M74.629 138.204C74.629 138.204 75.1596 131.291 82.7687 130.562C87.9812 130.071 85.0762 125.584 84.5211 124.868C84.5211 124.868 80.5259 125.417 76.4326 126.093C67.8426 127.513 73.7863 137.125 74.629 138.204Z" fill="#384179"/>
<path d="M121.32 169.3L115.43 187.428L94.7163 186.987L94.6895 188.251L115.827 188.704L122.052 169.536L121.32 169.3Z" fill="#1B2251"/>
<path d="M96.9882 185.836C96.9882 185.836 100.268 187.078 102.486 186.67C104.704 186.262 108.283 187.734 108.789 188.583C109.295 189.433 109.043 189.718 107.953 189.87C106.862 190.022 102.921 191.208 100.553 190.008C98.1854 188.808 94.9638 188.414 94.9638 188.414L96.9882 185.836Z" fill="#FFA39F"/>
<path d="M71.0596 153.259C71.0596 153.259 71.8622 180.646 77.875 183.76C80.8424 185.294 94.2392 189.515 98.2589 190.227C98.2589 190.227 99.3424 189.533 99.4628 186.228C99.4628 186.228 85.6982 179.366 83.977 176.273C81.4154 171.673 87.7916 159.057 84.4229 154.642C81.0542 150.226 74.8452 147.778 71.0596 153.259Z" fill="#F9795A"/>
<path d="M444.928 174.349L445.936 175.981C446.46 176.581 446.605 176.918 447.013 177.121C448.014 177.614 449.86 178.878 450 181.532C450 181.532 449.969 183.033 448.961 182.546C447.953 182.06 448.395 182.1 446.955 181.449C445.514 180.798 444.993 178.709 444.868 177.997L443.7 176.463L444.928 174.349Z" fill="#FFA39F"/>
<path d="M415.328 261.381C415.309 261.645 415.215 261.897 415.057 262.109C414.899 262.321 414.683 262.482 414.436 262.574V262.574C413.479 262.994 411.876 262.9 410.144 262.666C409.921 262.637 409.723 262.612 409.542 262.597L409.404 262.585H409.295C407.569 262.472 407.705 263.005 404.408 262.987C400.649 262.967 399.378 261.702 399.204 261.16C399.059 260.703 400.707 260.349 402.548 259.938L402.816 259.88L403.554 259.713C405.748 259.198 407.919 258.547 408.637 256.439C409.399 254.209 409.219 247.568 409.219 247.568H415.876C415.876 247.568 414.128 254.898 414.315 257.01C414.416 258.139 414.955 258.46 415.163 259.437C415.178 259.506 415.192 259.573 415.203 259.642C415.321 260.214 415.363 260.798 415.328 261.381V261.381Z" fill="#FFA39F"/>
<path d="M423.073 189.676C422.511 192.829 421.708 196.09 421.013 199.488C419.898 204.941 419.051 210.732 419.914 216.967C420.029 217.843 420.091 218.725 420.099 219.608C420.266 230.631 415.343 250.606 415.343 250.606C415.343 250.606 414.005 251.183 411.763 251.072C410.61 251.014 408.84 250.269 408.84 250.269C408.84 250.269 408.374 237.885 408.345 221.229C408.325 209.155 405.955 193.26 405.476 183.918C405.186 178.265 405.814 170.734 405.814 170.734C405.814 170.734 415.624 162.839 419.155 166.878C422.638 170.865 425.175 177.874 423.073 189.676Z" fill="#FD8857"/>
<path d="M419.914 216.961C420.029 217.836 420.091 218.718 420.099 219.601C412.741 208.95 411.123 185.72 411.123 185.72L419.196 189.64C419.196 189.64 420.087 193.996 421.013 199.482C419.9 204.934 419.051 210.717 419.914 216.961Z" fill="#F24B46"/>
<path d="M436.561 261.381C436.543 261.645 436.449 261.898 436.291 262.109C436.133 262.321 435.917 262.483 435.669 262.574V262.574C434.713 262.994 433.11 262.9 431.377 262.666C431.154 262.637 430.956 262.612 430.775 262.597L430.637 262.585H430.528C428.802 262.472 428.938 263.005 425.641 262.987C421.882 262.967 420.611 261.702 420.437 261.16C420.293 260.703 421.94 260.349 423.782 259.938L424.049 259.88L424.787 259.713C426.981 259.198 429.152 258.547 429.87 256.439C430.633 254.209 429.545 247.671 429.545 247.671L435.711 247.156C435.711 247.156 435.328 254.6 435.511 256.711C435.611 257.84 436.18 258.46 436.403 259.437C436.418 259.506 436.432 259.573 436.443 259.642C436.559 260.214 436.599 260.799 436.561 261.381V261.381Z" fill="#FFA39F"/>
<path d="M435.694 251.165C435.694 251.165 434.106 251.915 432.965 252.144C431.823 252.374 429.453 251.921 429.453 251.921C428.792 244.936 427.675 238.001 426.109 231.162C423.911 221.526 420.638 210.139 416.077 199.357C415.102 197.053 411.085 186.153 410.403 183.403C408.34 175.091 410.403 175.988 410.403 175.988L428.423 173.872C428.423 173.872 430.653 175.013 431.667 186.75C431.973 190.265 432.011 205.44 432.472 208.317C432.918 211.042 433.42 213.308 434.019 214.784C437.366 223.004 435.694 251.165 435.694 251.165Z" fill="#FD8857"/>
<path d="M436.561 261.381C436.543 261.645 436.449 261.898 436.291 262.109C436.133 262.321 435.917 262.483 435.669 262.574V262.574C434.659 262.936 433.081 262.858 431.38 262.655C431.157 262.63 430.958 262.61 430.775 262.597L430.637 262.585H430.528C428.802 262.472 428.938 263.005 425.641 262.987C421.882 262.967 420.611 261.702 420.437 261.16C420.293 260.703 421.94 260.349 423.782 259.938C425.552 260.77 427.511 261.118 429.46 260.946C431.99 260.703 434.588 259.689 436.391 259.437C436.407 259.506 436.42 259.573 436.432 259.642C436.552 260.213 436.596 260.798 436.561 261.381V261.381Z" fill="#242E6C"/>
<path d="M415.328 261.381C415.309 261.645 415.215 261.897 415.057 262.109C414.899 262.32 414.683 262.482 414.436 262.574V262.574C413.426 262.936 411.847 262.858 410.146 262.655C409.923 262.63 409.725 262.61 409.542 262.597L409.404 262.585H409.295C407.569 262.472 407.705 263.005 404.408 262.987C400.649 262.967 399.378 261.702 399.204 261.16C399.059 260.703 400.707 260.349 402.548 259.938C404.319 260.77 406.278 261.118 408.227 260.946C410.757 260.703 413.354 259.689 415.158 259.437C415.174 259.506 415.187 259.573 415.198 259.642C415.318 260.213 415.361 260.798 415.328 261.381V261.381Z" fill="#242E6C"/>
<path d="M408.117 119.897C407.509 114.927 409.061 106.963 418.984 108.241C428.907 109.519 432.033 119.266 430.031 123.602C428.029 127.937 432.911 128.985 434.445 133.65C435.761 137.664 436.229 142.631 438.351 144.863C445.22 152.062 431.756 163.129 423.637 160.794C408.853 156.544 406.949 155.911 407.475 144.292C407.743 138.34 412.38 136.041 409.433 134.31C402.334 130.149 409.495 131.15 408.117 119.897Z" fill="#F24B46"/>
<path d="M422.703 132.914L419.967 139.979L414.068 140.267L411.125 135.871C412.982 134.457 413.767 132.339 414.055 130.441C414.233 129.237 414.269 128.016 414.159 126.804C414.121 126.425 414.081 126.202 414.081 126.202L421.438 123.972L421.465 123.958C421.557 125.907 421.661 127.439 421.78 128.641C422.192 132.823 422.703 132.914 422.703 132.914Z" fill="#FFA39F"/>
<path d="M411.1 132.664C411.479 132.664 417.923 131.351 428.805 134.136C428.805 134.136 422.845 161.448 424.87 166.595C426.1 169.74 427.035 172.993 427.663 176.311L405.701 176.585C405.701 176.585 406.008 158.917 404.996 152.661C403.984 146.406 411.1 132.664 411.1 132.664Z" fill="#FFA39F"/>
<path d="M439.127 161.247C438.028 153.654 433.95 138.055 431.21 135.515C428.789 133.26 423.563 133.061 423.563 133.061C422.477 134.761 418.763 138.987 414.155 138.224C411.667 137.814 411.163 133.34 411.105 132.743L411.123 132.676H411.1H411.047C410.32 132.785 404.541 133.724 402.827 136.676C400.294 141.036 397.536 154.115 394.828 153.924C393.584 153.834 381.07 149.129 381.07 149.129C381.07 149.129 378.983 151.083 379.384 153.48C379.384 153.48 385.562 157.619 390.788 160.259C391.512 160.625 392.217 160.962 392.886 161.256C394.77 162.083 396.357 162.563 397.224 162.358C397.501 162.285 397.766 162.174 398.011 162.028C399.144 161.372 400.464 159.934 401.737 158.295C402.58 157.204 403.398 156.024 404.12 154.927L404.165 154.858C404.475 159.017 404.787 163.542 404.466 167.088C404.22 169.786 404.042 175.629 404.504 177.139C405.469 180.285 412.559 181.117 419.176 180.787C422.297 180.633 424.5 180.455 426.102 180.084C428.43 179.549 429.493 178.615 430.26 176.766C430.989 175.007 427.612 166.746 427.293 163.129C426.999 159.853 427.5 157.184 428.327 154.564C430.664 159.96 433.041 163.821 433.353 164.657C434.008 166.419 443.98 177.553 443.98 177.553C444.491 177.438 444.98 177.241 445.427 176.969C445.824 176.709 446.16 176.368 446.415 175.968C444.647 171.786 439.127 161.247 439.127 161.247Z" fill="#313B75"/>
<path d="M430.26 176.766C429.493 178.615 428.43 179.549 426.103 180.084C422.981 179.487 420.941 173.762 419.885 170.941C418.667 167.694 425.012 151 426.76 151.152C428.06 151.265 428.285 153.475 428.321 154.561C427.48 157.208 426.983 159.818 427.284 163.127C427.612 166.746 430.989 175.007 430.26 176.766Z" fill="#242E6C"/>
<path d="M381.159 150.442C381.159 150.442 380.091 147.824 378.916 147.717C377.741 147.61 374.011 147.024 373.735 147.557C373.458 148.09 373.735 150.01 374.537 150.708C375.34 151.406 380.303 152.525 380.303 152.525L381.159 150.442Z" fill="#FFA39F"/>
<path d="M404.12 154.927C403.398 156.024 402.579 157.204 401.737 158.295C400.526 159.782 399.191 161.223 398.011 162.028C397.766 162.174 397.501 162.285 397.224 162.358C396.357 162.563 394.772 162.083 392.886 161.256C393.987 161.327 395.091 161.311 396.19 161.207C398.087 161.046 398.642 158.993 401.634 155.913C403.427 154.073 403.971 154.356 404.12 154.927Z" fill="#242E6C"/>
<path d="M421.432 123.967C420.317 125.785 417.642 129.529 414.055 130.434C414.233 129.23 414.269 128.009 414.159 126.797C414.121 126.418 414.081 126.195 414.081 126.195L421.432 123.967Z" fill="#FF7D78"/>
<path d="M412.151 126.701C412.151 126.701 420.99 128.485 422.009 122.955C423.028 117.424 424.858 113.943 419.258 112.576C413.658 111.209 412.171 113.114 411.381 114.873C410.592 116.633 409.879 126.097 412.151 126.701Z" fill="#FFA39F"/>
<path d="M416.471 111.198C416.471 111.198 416.315 113.071 419.222 116.249C422.13 119.427 421.561 125.854 421.561 125.854C421.561 125.854 426.334 115.883 423.721 112.942C421.108 110 416.471 111.198 416.471 111.198Z" fill="#F24B46"/>
<path d="M420.025 108.761C420.025 108.761 415.631 107.289 411.27 111.586C409.393 113.439 409.676 117.079 410.681 119.19C410.681 119.19 412.226 114.663 415.04 113.678C417.853 112.692 420.025 108.761 420.025 108.761Z" fill="#F24B46"/>
<path d="M414.904 123.985C414.904 123.985 414.668 124.64 413.004 124.342C413.004 124.342 411.609 124.094 411.736 123.358C411.736 123.358 413.161 122.988 414.904 123.985Z" fill="#EFECEA"/>
<path d="M278.316 126.099C280.713 139.703 272.778 150.717 260.594 150.717C259.801 150.717 258.987 150.168 258.2 150.075C269.049 148.768 275.86 138.808 273.619 126.099C271.378 113.39 260.911 102.929 249.592 101.622C250.363 101.527 251.139 101.481 251.915 101.482C264.099 101.482 275.92 112.503 278.316 126.099Z" fill="#6615B2"/>
<path d="M288.057 133.204C291.526 133.204 293.773 129.995 293.078 126.039C292.382 122.083 289 118.876 285.533 118.876C285.357 118.876 285.19 118.892 285.023 118.907C284.501 117.452 283.905 116.025 283.239 114.63C284.987 113.419 285.903 111.049 285.424 108.326C284.755 104.485 281.547 101.352 278.189 101.169L274.094 101.221C273.893 101.22 273.692 101.231 273.492 101.254C273.077 100.866 272.66 100.485 272.237 100.115C272.835 98.7822 273.004 97.297 272.723 95.864C272.025 91.9079 268.645 88.6989 265.178 88.6989H265.096L261.691 88.7658C261.596 88.7658 261.497 88.7658 261.402 88.7658C261.228 88.7658 261.06 88.7658 260.895 88.7903C259.983 88.8705 259.113 89.2085 258.385 89.7648C257.666 90.3279 257.108 91.07 256.766 91.9168C256.682 91.8968 256.604 91.8745 256.521 91.8566C256.499 91.618 256.468 91.3727 256.423 91.1274C255.725 87.1713 252.35 83.9622 248.881 83.9622L245.155 84.0247H245.111H244.937H244.866C244.6 84.0357 244.337 84.0678 244.076 84.1206V84.1206C243.914 84.1785 238.436 86.1678 240.306 93.0698L239.925 93.2393C239.925 93.2393 238.837 91.0382 236.889 89.8451C234.479 88.3688 232.907 88.7167 232.697 88.7435L229.447 88.7591C226.058 88.846 223.873 92.0172 224.571 95.9176C224.9 97.7235 225.758 99.3913 227.034 100.71C226.92 100.859 226.809 101.013 226.7 101.172L225.57 101.183C225.403 101.167 225.233 101.158 225.066 101.158C224.859 101.159 224.652 101.171 224.446 101.194L221.572 101.225H221.523H221.3C221.162 101.225 221.031 101.225 220.899 101.241C220.788 101.241 220.676 101.259 220.567 101.274C217.526 101.696 215.644 104.72 216.291 108.388C216.83 111.459 218.988 114.07 221.548 115.089C221.404 116.363 221.33 117.643 221.325 118.925L220.067 118.945H219.905C219.773 118.945 219.646 118.945 219.519 118.961H219.28V118.976C216.159 119.335 214.226 122.388 214.882 126.113C215.58 130.069 218.955 133.275 222.426 133.275L223.835 133.253C224.167 134.176 224.529 135.089 224.916 135.983C222.489 136.875 221.084 139.602 221.655 142.842C222.324 146.647 225.474 149.756 228.789 149.99C228.918 149.99 229.048 150.005 229.179 150.005C229.351 150.005 229.52 150.005 229.685 149.979L232.876 149.945H232.956C233.379 149.946 233.8 149.896 234.211 149.796C234.726 150.318 235.252 150.828 235.79 151.321C235.101 152.563 234.833 154.162 235.141 155.906C235.839 159.864 239.216 163.069 242.685 163.069L246.379 163.011H246.46C248.575 163.011 250.232 161.816 251.046 159.987C251.465 160.102 251.886 160.207 252.31 160.304C252.33 160.542 252.361 160.785 252.406 161.031C253.101 164.987 256.481 168.196 259.95 168.196L263.722 168.136H263.979C267.303 167.984 269.425 164.84 268.745 160.979C268.701 160.734 268.649 160.491 268.585 160.25C268.705 160.221 268.826 160.186 268.946 160.154C270.4 161.923 272.437 163.076 274.52 163.076L278.154 163.011H278.294C281.763 163.011 284.01 159.804 283.315 155.848C283.049 154.381 282.433 153 281.518 151.823C281.988 151.221 282.43 150.594 282.856 149.945H287.201C290.668 149.945 292.915 146.738 292.219 142.782C291.709 139.883 289.767 137.408 287.406 136.275C287.5 135.262 287.549 134.233 287.555 133.186C287.711 133.191 287.883 133.204 288.057 133.204ZM260.441 150.197C248.223 150.197 236.396 139.29 234.024 125.834C231.652 112.378 239.633 101.468 251.859 101.468C264.086 101.468 275.906 112.378 278.278 125.834C280.651 139.29 272.66 150.197 260.441 150.197V150.197Z" fill="#F24B46"/>
<path d="M287.977 133.204C291.446 133.204 293.693 129.997 292.995 126.041C292.297 122.085 288.92 118.876 285.451 118.876C285.28 118.877 285.11 118.888 284.94 118.907C284.419 117.452 283.824 116.024 283.157 114.63C284.907 113.419 285.832 111.051 285.344 108.326C284.646 104.37 281.268 101.161 277.799 101.161C276.605 101.145 275.446 101.57 274.544 102.354C273.774 101.573 272.981 100.83 272.165 100.124C272.764 98.7905 272.933 97.3045 272.651 95.8708C271.954 91.9147 268.576 88.7079 265.107 88.7079C262.559 88.7079 260.673 90.4429 260.129 92.9338C258.924 92.5003 257.694 92.1406 256.445 91.8567C256.425 91.6159 256.394 91.3728 256.35 91.1275C255.652 87.1714 252.274 83.9645 248.807 83.9645C245.341 83.9645 243.091 87.1714 243.789 91.1275C243.831 91.3728 243.887 91.6159 243.949 91.8567C242.567 92.1956 241.218 92.6607 239.921 93.246C238.532 90.59 235.937 88.7079 233.281 88.7079C229.812 88.7079 227.565 91.9147 228.263 95.8708C228.593 97.6771 229.451 99.345 230.729 100.663C230.208 101.356 229.723 102.074 229.275 102.815C228.009 101.787 226.504 101.169 224.983 101.169C221.514 101.169 219.267 104.378 219.965 108.335C220.507 111.405 222.665 114.017 225.224 115.036C225.071 116.374 224.993 117.719 224.99 119.066C224.527 118.949 224.052 118.888 223.574 118.885C220.105 118.885 217.86 122.092 218.556 126.05C219.251 130.009 222.631 133.213 226.1 133.213C226.557 133.212 227.012 133.152 227.454 133.033C227.8 134.012 228.18 134.979 228.593 135.932C226.163 136.824 224.76 139.553 225.331 142.791C226.029 146.747 229.404 149.954 232.873 149.954C233.57 149.965 234.26 149.826 234.898 149.545C235.535 149.265 236.105 148.851 236.568 148.331C237.5 149.362 238.472 150.342 239.484 151.27C238.795 152.514 238.527 154.111 238.835 155.857C239.533 159.813 242.91 163.02 246.379 163.02C248.923 163.02 250.805 161.292 251.353 158.812C252.865 159.409 254.42 159.891 256.004 160.253C256.026 160.493 256.058 160.736 256.1 160.982C256.798 164.938 260.175 168.145 263.644 168.145C267.113 168.145 269.358 164.938 268.661 160.982C268.619 160.736 268.565 160.493 268.5 160.253C269.672 159.965 270.82 159.587 271.933 159.122C273.383 161.435 275.768 163.02 278.205 163.02C281.674 163.02 283.919 159.813 283.223 155.857C282.958 154.39 282.341 153.009 281.426 151.832C282.18 150.868 282.864 149.851 283.473 148.79C284.543 149.524 285.805 149.929 287.103 149.954C290.572 149.954 292.819 146.747 292.121 142.791C291.611 139.892 289.669 137.415 287.308 136.284C287.401 135.271 287.451 134.242 287.457 133.195C287.629 133.191 287.803 133.204 287.977 133.204ZM260.441 150.197C248.223 150.197 236.396 139.288 234.024 125.834C231.652 112.38 239.633 101.47 251.859 101.47C264.086 101.47 275.906 112.378 278.278 125.834C280.651 139.29 272.658 150.197 260.441 150.197V150.197Z" fill="#FD8857"/>
<path d="M319.387 127.076C321.22 137.47 315.151 145.895 305.839 145.895C305.233 145.895 304.611 145.476 304.009 145.405C312.302 144.406 317.51 136.792 315.798 127.076C314.086 117.36 306.075 109.363 297.427 108.361C298.019 108.291 298.615 108.256 299.211 108.257C308.519 108.257 317.555 116.682 319.387 127.076Z" fill="#242E6C"/>
<path d="M326.836 132.506C329.487 132.506 331.206 130.053 330.673 127.031C330.14 124.01 327.552 121.554 324.905 121.554C324.771 121.554 324.642 121.554 324.515 121.577C324.115 120.464 323.659 119.373 323.148 118.307C324.486 117.382 325.186 115.571 324.818 113.488C324.301 110.551 321.855 108.156 319.289 108.018L316.168 108.056C316.015 108.056 315.861 108.065 315.709 108.083C315.392 107.786 315.073 107.494 314.748 107.211C315.205 106.192 315.335 105.057 315.12 103.961C314.587 100.935 311.999 98.4844 309.353 98.4844H309.29L306.688 98.5335H306.465C306.336 98.5334 306.206 98.5401 306.078 98.5535V98.5535C305.38 98.6147 304.714 98.873 304.158 99.2984C303.609 99.7286 303.182 100.295 302.921 100.942L302.733 100.897C302.718 100.714 302.693 100.527 302.66 100.34C302.125 97.3159 299.539 94.8628 296.892 94.8628L294.043 94.9096H294.005H293.871H293.818C293.615 94.9178 293.413 94.9424 293.214 94.9832V94.9832C293.089 95.0278 288.9 96.5442 290.331 101.825L290.039 101.954C290.039 101.954 289.207 100.273 287.718 99.3608C285.876 98.2324 284.675 98.4978 284.514 98.5179H282.028C279.438 98.5848 277.775 101.009 278.301 103.99C278.552 105.372 279.207 106.647 280.185 107.654C280.098 107.77 280.013 107.877 279.928 108.007H279.063C278.936 108.007 278.807 107.989 278.68 107.989C278.521 107.989 278.363 107.998 278.205 108.016L276.009 108.04H275.971H275.793C275.688 108.04 275.588 108.04 275.487 108.04C275.4 108.04 275.315 108.049 275.233 108.067C272.908 108.39 271.467 110.701 271.962 113.506C272.377 115.852 274.027 117.85 275.975 118.635C275.865 119.609 275.807 120.588 275.802 121.568L274.841 121.583H274.716C274.615 121.583 274.517 121.583 274.422 121.583H274.239C274.239 121.588 274.239 121.592 274.239 121.597C271.86 121.871 270.377 124.206 270.877 127.047C271.41 130.071 273.998 132.524 276.644 132.524L277.723 132.506C277.975 133.211 278.252 133.909 278.55 134.594C276.693 135.263 275.619 137.361 276.056 139.836C276.568 142.735 278.976 145.122 281.518 145.3C281.618 145.3 281.716 145.3 281.817 145.3C281.917 145.3 282.077 145.3 282.205 145.282L284.641 145.255H284.704C285.027 145.256 285.349 145.217 285.662 145.139C286.057 145.539 286.458 145.929 286.871 146.308C286.308 147.384 286.133 148.621 286.374 149.811C286.906 152.838 289.495 155.288 292.141 155.288L294.966 155.246H295.031C295.779 155.254 296.513 155.038 297.137 154.625C297.762 154.213 298.249 153.623 298.535 152.931C298.856 153.018 299.177 153.101 299.501 153.174C299.518 153.355 299.541 153.542 299.574 153.732C300.107 156.756 302.695 159.207 305.342 159.207L308.227 159.162H308.423C310.962 159.046 312.585 156.64 312.064 153.689C312.032 153.502 311.99 153.317 311.941 153.134L312.217 153.058C313.332 154.412 314.893 155.288 316.474 155.288L319.254 155.239H319.361C322.014 155.239 323.73 152.786 323.198 149.762C322.995 148.641 322.524 147.585 321.824 146.685C322.184 146.224 322.523 145.745 322.843 145.249H326.163C328.816 145.249 330.532 142.796 330 139.772C329.612 137.562 328.127 135.664 326.321 134.799C326.392 134.026 326.43 133.238 326.435 132.437C326.571 132.497 326.709 132.506 326.836 132.506ZM305.723 145.498C296.382 145.498 287.339 137.16 285.526 126.873C283.714 116.586 289.814 108.245 299.155 108.245C308.496 108.245 317.539 116.586 319.352 126.873C321.164 137.16 315.062 145.498 305.723 145.498V145.498Z" fill="#7F22BA"/>
<path d="M326.774 132.508C329.424 132.508 331.143 130.055 330.61 127.031C330.078 124.007 327.489 121.554 324.843 121.554C324.709 121.554 324.58 121.554 324.453 121.577C324.053 120.464 323.597 119.373 323.086 118.307C324.424 117.382 325.126 115.571 324.758 113.488C324.225 110.462 321.637 108.011 318.99 108.011C318.077 107.999 317.192 108.324 316.502 108.923C315.908 108.329 315.302 107.758 314.683 107.211C315.141 106.192 315.271 105.055 315.056 103.959C314.52 100.935 311.934 98.4844 309.288 98.4844C307.339 98.4844 305.899 99.8113 305.482 101.714C304.561 101.383 303.621 101.109 302.666 100.891C302.651 100.708 302.626 100.52 302.593 100.333C302.06 97.3092 299.472 94.8561 296.825 94.8561C294.179 94.8561 292.458 97.3092 292.991 100.333C293.024 100.52 293.064 100.708 293.113 100.891C292.056 101.15 291.025 101.506 290.032 101.952C288.971 99.9228 286.987 98.4844 284.958 98.4844C282.305 98.4844 280.588 100.938 281.121 103.959C281.372 105.34 282.028 106.615 283.005 107.623C282.606 108.153 282.234 108.702 281.89 109.269C280.972 108.487 279.814 108.043 278.608 108.011C275.958 108.011 274.239 110.464 274.772 113.488C275.186 115.834 276.836 117.832 278.785 118.617C278.669 119.641 278.61 120.67 278.608 121.699C278.254 121.609 277.89 121.563 277.525 121.561C274.874 121.561 273.155 124.014 273.688 127.038C274.221 130.062 276.809 132.515 279.456 132.515C279.805 132.514 280.153 132.468 280.49 132.377C280.755 133.12 281.045 133.856 281.362 134.585C279.505 135.254 278.43 137.352 278.867 139.827C279.4 142.851 281.988 145.305 284.635 145.305C285.167 145.312 285.695 145.206 286.182 144.991C286.67 144.777 287.105 144.46 287.459 144.062C288.17 144.852 288.913 145.601 289.689 146.31C289.126 147.388 288.951 148.626 289.192 149.818C289.724 152.842 292.313 155.293 294.959 155.293C296.903 155.293 298.341 153.973 298.763 152.075C299.922 152.537 301.114 152.909 302.33 153.19C302.345 153.373 302.369 153.558 302.403 153.745C302.936 156.771 305.525 159.222 308.169 159.222C310.813 159.222 312.538 156.769 312.006 153.745C311.972 153.558 311.93 153.373 311.883 153.19C312.778 152.968 313.655 152.679 314.507 152.325C315.622 154.093 317.439 155.304 319.3 155.304C321.953 155.304 323.67 152.851 323.137 149.829C322.935 148.708 322.463 147.652 321.764 146.752C322.338 146.014 322.86 145.237 323.325 144.426C324.143 144.988 325.108 145.298 326.1 145.318C328.751 145.318 330.468 142.865 329.935 139.841C329.748 138.784 329.319 137.784 328.68 136.921C328.042 136.057 327.212 135.354 326.256 134.866C326.328 134.094 326.366 133.307 326.37 132.504C326.504 132.512 326.639 132.514 326.774 132.508ZM305.723 145.499C296.382 145.499 287.339 137.16 285.526 126.873C283.714 116.586 289.816 108.245 299.155 108.245C308.494 108.245 317.539 116.586 319.352 126.873C321.164 137.16 315.062 145.499 305.723 145.499Z" fill="#C643DB"/>
<path d="M146.979 135.055L158.488 178.022H168.712L157.201 135.055H146.979Z" fill="url(#paint0_linear)"/>
<path d="M160.668 130.669L173.354 178.022H183.576L170.892 130.669H160.668Z" fill="url(#paint1_linear)"/>
<path d="M173.354 123.113L188.064 178.022H198.286L183.576 123.113H173.354Z" fill="url(#paint2_linear)"/>
<path d="M197.57 117.547H187.346L202.056 172.458H212.28L197.57 117.547Z" fill="url(#paint3_linear)"/>
<path d="M148.491 130.856L159.446 122.433L160.276 125.524C160.355 125.79 160.492 126.036 160.676 126.244C160.861 126.452 161.089 126.617 161.344 126.728C161.861 126.951 162.396 126.904 162.717 126.594L174.419 115.406L176.058 116.878C176.254 117.056 176.524 116.976 176.504 116.746L175.978 112.063C175.964 111.98 175.923 111.904 175.86 111.847C175.798 111.79 175.719 111.755 175.634 111.749L170.774 111.595C170.538 111.595 170.478 111.86 170.678 112.041L172.141 113.354L162.242 122.817L161.484 119.987C161.407 119.73 161.277 119.492 161.102 119.289C160.927 119.086 160.712 118.921 160.47 118.807C160.261 118.691 160.025 118.633 159.787 118.641C159.548 118.649 159.316 118.722 159.116 118.852L146.449 128.592C145.929 128.989 145.969 129.821 146.533 130.446C146.696 130.633 146.896 130.785 147.12 130.892C147.344 130.999 147.587 131.059 147.835 131.068C148.071 131.071 148.301 130.997 148.491 130.856Z" fill="url(#paint4_linear)"/>
<path d="M145.316 166.271L145.749 167.944C145.5 167.419 145.354 166.851 145.316 166.271V166.271Z" fill="#7F22BA"/>
<path d="M362.677 186.21H150.522L145.749 167.944C150.145 177.386 185.879 167.052 193.905 161.305C208.55 150.728 208.659 140.314 223.82 133.244C244.346 123.666 264.873 138.668 281.382 134.567C332.013 122.02 373.985 80.9807 375.28 79.6873C361.065 112.603 326.428 129.926 353.052 140.719C380.662 151.917 362.677 186.21 362.677 186.21Z" fill="#DFDCF7"/>
<path d="M149.842 93.3063C149.229 92.9346 147.985 92.4224 146.11 91.7698C145.469 91.5651 144.844 91.3154 144.239 91.0227C144.022 90.9144 143.829 90.7628 143.672 90.5772C143.515 90.3916 143.398 90.1759 143.327 89.9434C143.153 89.3769 143.217 88.9376 143.517 88.6254C143.69 88.4624 143.894 88.3368 144.118 88.2566C144.342 88.1764 144.58 88.1433 144.817 88.1593C145.366 88.1934 145.905 88.3162 146.415 88.5228C146.859 88.7087 147.326 88.8311 147.804 88.8863C147.947 88.8978 148.09 88.8768 148.224 88.8251C148.357 88.7734 148.478 88.6921 148.575 88.5875C148.66 88.4712 148.714 88.3348 148.73 88.1918C148.746 88.0487 148.726 87.9038 148.669 87.7713C148.495 87.3007 148.154 86.9109 147.71 86.6763C146.786 86.0995 145.624 85.8103 144.224 85.8088C142.867 85.8088 141.834 86.1686 141.125 86.8882C140.349 87.6642 140.162 88.7094 140.565 90.0236C140.998 91.436 141.926 92.502 143.35 93.2215L147.14 94.5908C148.498 95.0889 149.316 95.7809 149.592 96.667C149.688 96.9238 149.72 97.2001 149.686 97.472C149.651 97.744 149.551 98.0034 149.394 98.228C149.235 98.4439 149.024 98.6166 148.782 98.7307C148.539 98.8448 148.272 98.8966 148.005 98.8814C147.423 98.8799 146.844 98.7958 146.286 98.6317C146.255 98.6183 145.867 98.4867 145.127 98.2369C144.791 98.0973 144.44 97.9992 144.081 97.9448C143.933 97.9327 143.784 97.9545 143.646 98.0086C143.507 98.0627 143.383 98.1477 143.283 98.257C143.195 98.3788 143.14 98.5213 143.124 98.6706C143.107 98.8199 143.13 98.9709 143.189 99.1089C143.414 99.8523 144.19 100.421 145.519 100.815C146.445 101.108 147.41 101.258 148.382 101.261C149.92 101.261 151.061 100.846 151.806 100.017C152.603 99.1245 152.77 97.927 152.308 96.4239C151.91 95.1101 151.028 93.996 149.842 93.3063V93.3063Z" fill="#EB3668"/>
<path d="M156.419 88.3667H158.55C159.651 88.3667 160.079 87.9646 159.832 87.1602C159.585 86.3559 158.899 85.9471 157.774 85.9337H150.957C149.833 85.9337 149.397 86.3426 149.648 87.1602C149.899 87.9779 150.576 88.3801 151.679 88.3667H153.779L157.204 99.575C157.551 100.711 158.158 101.279 159.025 101.279C159.917 101.279 160.19 100.711 159.843 99.575L156.419 88.3667Z" fill="#EB3668"/>
<path d="M174.859 99.3252L166.833 87.3052C166.14 86.2645 165.329 85.7441 164.4 85.7441C163.5 85.7441 163.013 86.3054 162.94 87.4278L162.155 99.343C162.143 99.597 162.178 99.8509 162.258 100.092C162.363 100.443 162.585 100.747 162.886 100.955C163.18 101.164 163.531 101.277 163.892 101.276C164.476 101.276 164.788 100.91 164.828 100.177L164.926 97.6794H171.051L172.631 100.108C173.131 100.887 173.698 101.276 174.332 101.276C174.484 101.286 174.637 101.263 174.778 101.207C174.92 101.152 175.048 101.066 175.153 100.955C175.248 100.839 175.31 100.7 175.332 100.551C175.354 100.403 175.335 100.251 175.278 100.112C175.177 99.831 175.036 99.5658 174.859 99.3252V99.3252ZM165.002 95.3535L165.247 88.9487C165.252 88.8787 165.263 88.8092 165.281 88.7413L169.548 95.3535H165.002Z" fill="#EB3668"/>
<path d="M185.787 98.7677L180.726 94.5885C183.402 94.3938 184.346 93.0141 183.558 90.4496C183.155 89.0357 182.243 87.8211 180.998 87.0398C179.801 86.2934 178.412 85.9107 177.001 85.9381H174.029C172.935 85.9381 172.564 86.515 172.914 87.6687L176.566 99.6151C176.914 100.754 177.521 101.324 178.388 101.326C179.28 101.326 179.554 100.761 179.21 99.6307L177.688 94.651L177.824 94.7536L184.401 100.514C185.022 101.055 185.556 101.326 186.004 101.326C186.149 101.336 186.295 101.313 186.43 101.257C186.565 101.2 186.685 101.113 186.779 101.002C186.865 100.882 186.919 100.741 186.936 100.594C186.953 100.447 186.933 100.299 186.878 100.161C186.742 99.7154 186.379 99.2509 185.787 98.7677ZM178.896 92.9205C178.303 92.937 177.709 92.8952 177.124 92.7956L175.759 88.3243H177.701C179.345 88.3243 180.394 89.0677 180.849 90.5544C181.331 92.1318 180.68 92.9205 178.896 92.9205Z" fill="#EB3668"/>
<path d="M189.927 88.3667H192.05C193.151 88.3667 193.579 87.9646 193.332 87.1602C193.085 86.3559 192.399 85.9471 191.274 85.9337H184.47C183.346 85.9337 182.91 86.3426 183.161 87.1602C183.412 87.9779 184.089 88.3801 185.192 88.3667H187.292L190.717 99.575C191.065 100.711 191.672 101.279 192.538 101.279C193.43 101.279 193.703 100.711 193.356 99.575L189.927 88.3667Z" fill="#EB3668"/>
<path d="M206.011 99.4656C205.879 99.0568 205.621 98.7006 205.273 98.4487C204.949 98.1811 204.544 98.0303 204.125 98.0206C203.952 98.0088 203.779 98.042 203.622 98.1171C203.466 98.1921 203.332 98.3064 203.233 98.4487C203.134 98.5967 203.071 98.7662 203.051 98.9431C203.031 99.12 203.054 99.2992 203.117 99.4656C203.248 99.8745 203.507 100.231 203.855 100.483C204.178 100.75 204.581 100.901 205.001 100.911C205.174 100.922 205.346 100.888 205.503 100.813C205.659 100.738 205.793 100.624 205.893 100.483C205.991 100.334 206.053 100.165 206.074 99.9883C206.094 99.8115 206.073 99.6325 206.011 99.4656V99.4656Z" fill="#EB3668"/>
<path d="M204.392 94.7669L202.082 87.1713C201.748 86.0727 201.153 85.5233 200.299 85.5233C199.444 85.5233 199.192 86.0727 199.541 87.1713L201.859 94.7535C202.21 95.8923 202.811 96.4617 203.663 96.4617C204.515 96.4617 204.758 95.8968 204.392 94.7669Z" fill="#EB3668"/>
<path d="M332.519 186.21H229.529C233.928 182.596 239.943 176.334 243.129 167.351C248.524 152.186 266.948 158.446 283.215 155.828C299.481 153.21 332.37 120.034 333.493 123.856C334.095 125.901 326.751 152.86 337.54 155.911C348.19 158.906 352.263 175.74 332.519 186.21Z" fill="#ECEBFC"/>
<defs>
<linearGradient id="paint0_linear" x1="146.979" y1="156.537" x2="168.712" y2="156.537" gradientUnits="userSpaceOnUse">
<stop stop-color="#F9795A"/>
<stop offset="1" stop-color="#FFEFE9"/>
</linearGradient>
<linearGradient id="paint1_linear" x1="47997.3" y1="59900.6" x2="50351.3" y2="59900.6" gradientUnits="userSpaceOnUse">
<stop stop-color="#F9795A"/>
<stop offset="1" stop-color="#FFEFE9"/>
</linearGradient>
<linearGradient id="paint2_linear" x1="53656" y1="68499.5" x2="56444.1" y2="68499.5" gradientUnits="userSpaceOnUse">
<stop stop-color="#F9795A"/>
<stop offset="1" stop-color="#FFEFE9"/>
</linearGradient>
<linearGradient id="paint3_linear" x1="55239.7" y1="67126.7" x2="58028" y2="67126.7" gradientUnits="userSpaceOnUse">
<stop stop-color="#F9795A"/>
<stop offset="1" stop-color="#FFEFE9"/>
</linearGradient>
<linearGradient id="paint4_linear" x1="61682.7" y1="21807.8" x2="65834" y2="21807.8" gradientUnits="userSpaceOnUse">
<stop stop-color="#F9795A"/>
<stop offset="1" stop-color="#EB3668"/>
</linearGradient>
</defs>
</svg>
