<svg xmlns="http://www.w3.org/2000/svg" viewBox="0 0 472.36 307.94"><defs><style>.cls-1{isolation:isolate;}.cls-2{fill:#fff3e6;}.cls-3{fill:#ffecc5;}.cls-24,.cls-3{mix-blend-mode:multiply;}.cls-21,.cls-4{fill:#1f2f6d;}.cls-10,.cls-20,.cls-4,.cls-40{stroke:#1f2f6d;}.cls-10,.cls-20,.cls-25,.cls-26,.cls-36,.cls-38,.cls-39,.cls-4,.cls-5,.cls-6{stroke-miterlimit:10;}.cls-24,.cls-4,.cls-5,.cls-6{fill-rule:evenodd;}.cls-18,.cls-5{fill:#a1b3ff;}.cls-5,.cls-6{stroke:#6579cf;}.cls-6{fill:#dee4ff;}.cls-20,.cls-35,.cls-7{fill:#fff;}.cls-8{fill:#20396f;}.cls-9{fill:#4a83b4;}.cls-10,.cls-14,.cls-38{fill:#4dc7b8;}.cls-11,.cls-36,.cls-37{fill:#ffc773;}.cls-12,.cls-24{fill:#dee1ef;}.cls-13{fill:#8098ff;}.cls-15{fill:#ee8063;}.cls-16{fill:#e1f4ff;}.cls-17{fill:#6579cf;}.cls-19{fill:#95c3e7;}.cls-22{fill:#a5b7c6;}.cls-23{opacity:0.4;mix-blend-mode:overlay;}.cls-25,.cls-32{fill:#ffc1ac;}.cls-25{stroke:#855a4c;}.cls-26,.cls-29{fill:#756666;}.cls-26{stroke:#1d262d;}.cls-27{fill:#855a4c;}.cls-28{fill:#1d262d;}.cls-30{fill:#ee704f;}.cls-31{fill:#564242;}.cls-33{fill:#ad6800;}.cls-34{fill:#867575;}.cls-35{stroke:#20396f;}.cls-35,.cls-37,.cls-40{stroke-linecap:round;stroke-linejoin:round;}.cls-36,.cls-37{stroke:#ad6800;}.cls-38,.cls-39{stroke:#31897c;}.cls-39,.cls-40{fill:none;}.cls-40{stroke-width:4px;}</style></defs><g class="cls-1"><g id="OBJECT"><path class="cls-2" d="M250.39,106.2c-104.14,0-188.56,84.42-188.56,188.56a187.77,187.77,0,0,0,22,88.53h333A187.66,187.66,0,0,0,439,294.76C439,190.62,354.53,106.2,250.39,106.2Z" transform="translate(-13.82 -77.35)"/><path class="cls-3" d="M433.7,290.41c3.07-19.29,2.12-31-1.83-37.19-.95-7.27-3.56-12.62-10.85-15.05l-1.79-21.69a95.18,95.18,0,0,0-13.15-2.07l-.46-1.58c4.34,1.26,11.38,1.71,15.59-6.26s-1.18-18.69-8.54-19.44c.44-4,.88-9,1-14.06,6.17,3.76,13.72,7.38,16,4.31,4-5.45-14.21-10.51-14.21-10.51l-1.73,0h0l1.73,0S411.27,121.31,376.7,119a3.26,3.26,0,0,0,.16-1,3.33,3.33,0,1,0-6.49,1c-33.31,3-34.76,50.09-34.76,50.09S308.32,180,319.15,181.59a116.14,116.14,0,0,0,21.37,1.3c.18,13.52.93,29.89,2.89,42-1.41.6-7,2.51-7,2.51l9.36,22.86s-6.14,3-8.21,18c-10.27,15.62-21.35,32.18-23.13,33.66-2.06,1.72-20-13.15-34-25.28v-39.7a27.58,27.58,0,0,0,6.83-10.34,27.88,27.88,0,1,0-52.18-19.64c0,.13-.09.26-.13.4h-180a5.19,5.19,0,0,0-5.2,5.19V362.63a5.2,5.2,0,0,0,5.2,5.2h86.8L135.65,383l-.26.26h59.13l.25-.26L191,367.83h84.22a5.2,5.2,0,0,0,5.2-5.2v-8.32a6,6,0,0,0,4.82-.4c4.31-2.07,5.59,1.8,13.18,6.89.67.45,1.33.86,2,1.29L299,364.84a130.84,130.84,0,0,0,25.63,10.68c-1.21,9.57-2,7.77-2,7.77H438.93S436.24,318.21,433.7,290.41ZM51.6,152.81V127.17a13,13,0,0,1,13-13H118a13,13,0,0,1,13,13v25.64a13,13,0,0,1-13,13h-3.65l2.19,17.57-21-17.57h-31A13,13,0,0,1,51.6,152.81ZM226,130.59v-29.7a15,15,0,0,1,15-15H303a15,15,0,0,1,15,15v29.7a15,15,0,0,1-15,15H267L242.69,166l2.54-20.36H241A15,15,0,0,1,226,130.59Zm-64,49V161.8a9,9,0,0,1,9-9H208a9,9,0,0,1,9,9v17.77a9,9,0,0,1-9,9H186.54L172,200.74l1.52-12.18H171A9,9,0,0,1,162,179.57Z" transform="translate(-13.82 -77.35)"/><path class="cls-4" d="M55.74,339V204.52a5.19,5.19,0,0,1,5.2-5.19H281.22a5.19,5.19,0,0,1,5.2,5.19V339Z" transform="translate(-13.82 -77.35)"/><polygon class="cls-5" points="186.7 305.94 186.95 305.68 183.06 281.71 134.12 281.71 127.84 305.68 127.58 305.94 186.7 305.94"/><path class="cls-6" d="M281.22,359.83H60.94a5.2,5.2,0,0,1-5.2-5.2V339H286.42v15.6A5.2,5.2,0,0,1,281.22,359.83Z" transform="translate(-13.82 -77.35)"/><rect class="cls-7" x="47.1" y="130.57" width="220.33" height="122.51"/><path class="cls-8" d="M280.75,208.42V329.94H61.42V208.42H280.75m1-1H60.42V330.94H281.75V207.42Z" transform="translate(-13.82 -77.35)"/><rect class="cls-9" x="53.22" y="141.76" width="205.75" height="7.84"/><rect class="cls-10" x="47.6" y="131.07" width="219.33" height="5.82"/><rect class="cls-11" x="53.22" y="175.01" width="67.44" height="31.02"/><rect class="cls-12" x="125.54" y="175.01" width="68.24" height="4.5"/><rect class="cls-12" x="125.54" y="183.85" width="68.24" height="4.5"/><rect class="cls-12" x="125.54" y="192.69" width="68.24" height="4.5"/><rect class="cls-12" x="125.54" y="201.53" width="51.9" height="4.5"/><rect class="cls-13" x="53.22" y="212.67" width="67.44" height="31.02"/><rect class="cls-12" x="125.54" y="212.67" width="68.24" height="4.5"/><rect class="cls-12" x="125.54" y="221.51" width="68.24" height="4.5"/><rect class="cls-12" x="125.54" y="230.35" width="68.24" height="4.5"/><rect class="cls-12" x="125.54" y="239.19" width="51.9" height="4.5"/><rect class="cls-14" x="199.3" y="154.96" width="26.33" height="33.5"/><rect class="cls-15" x="199.3" y="193.5" width="26.33" height="33.5"/><rect class="cls-11" x="232.64" y="154.96" width="26.33" height="33.5"/><rect class="cls-16" x="232.64" y="193.5" width="26.33" height="33.5"/><rect class="cls-17" x="197.88" y="245.85" width="52.75" height="7.05"/><rect class="cls-18" x="197.88" y="206.4" width="52.75" height="39.45"/><path class="cls-7" d="M226.63,283.75a.45.45,0,0,0,0,.11V309.4a.87.87,0,0,0,.86.87H255.3a.87.87,0,0,0,.87-.87V283.86s0-.07,0-.11Z" transform="translate(-13.82 -77.35)"/><rect class="cls-7" x="219.35" y="236.89" width="24.86" height="7.47" rx="1.11"/><path class="cls-17" d="M263.31,279.6H213.08a1.39,1.39,0,0,0-1.39,1.39v2.82h52.75v-3.08A1.13,1.13,0,0,0,263.31,279.6Z" transform="translate(-13.82 -77.35)"/><rect class="cls-7" x="248.74" y="206.45" width="1.89" height="39.4"/><path class="cls-19" d="M263.5,322.11h0a.58.58,0,0,1-.59-.59V309.17a.58.58,0,0,1,.59-.59h0a.58.58,0,0,1,.59.59v12.35A.58.58,0,0,1,263.5,322.11Z" transform="translate(-13.82 -77.35)"/><rect class="cls-20" x="53.22" y="154.86" width="140.56" height="11.63"/><rect class="cls-21" x="172.72" y="154.86" width="21.06" height="11.63"/><path class="cls-7" d="M195.19,239.76l.85-.5-.31-.49-.83.48c-.08.05-.08.2,0,.34S195.12,239.81,195.19,239.76Z" transform="translate(-13.82 -77.35)"/><path class="cls-7" d="M202.16,237.9a3.5,3.5,0,1,0-4.17,2.67A3.51,3.51,0,0,0,202.16,237.9Zm-6.27-1.38a2.92,2.92,0,1,1,2.22,3.49A2.92,2.92,0,0,1,195.89,236.52Z" transform="translate(-13.82 -77.35)"/><path class="cls-7" d="M192.55,241.69l2.9-1.81-.59-.92L192,240.75c-.14.08-.14.36,0,.62S192.41,241.77,192.55,241.69Z" transform="translate(-13.82 -77.35)"/><path class="cls-22" d="M73.52,239.28a1,1,0,0,1-.39.85,1.7,1.7,0,0,1-1.07.3,2.52,2.52,0,0,1-1.12-.23v-.78a4.55,4.55,0,0,0,.68.25,1.89,1.89,0,0,0,.51.07.73.73,0,0,0,.42-.1.36.36,0,0,0,.15-.31.38.38,0,0,0-.07-.21.83.83,0,0,0-.19-.18,5.28,5.28,0,0,0-.51-.26,2.44,2.44,0,0,1-.54-.33,1.24,1.24,0,0,1-.29-.36,1.07,1.07,0,0,1-.11-.49,1,1,0,0,1,.35-.82,1.5,1.5,0,0,1,1-.3,2.2,2.2,0,0,1,.58.07,4.22,4.22,0,0,1,.59.21l-.27.65a3,3,0,0,0-.53-.18,1.39,1.39,0,0,0-.4-.06.58.58,0,0,0-.37.11.38.38,0,0,0-.12.29.33.33,0,0,0,0,.2.8.8,0,0,0,.16.16,5.61,5.61,0,0,0,.53.27,2.29,2.29,0,0,1,.76.53A1,1,0,0,1,73.52,239.28Z" transform="translate(-13.82 -77.35)"/><path class="cls-22" d="M75.53,240.43a1.57,1.57,0,0,1-1.14-.4,1.54,1.54,0,0,1-.41-1.14,1.7,1.7,0,0,1,.38-1.17,1.56,1.56,0,0,1,2-.05,1.41,1.41,0,0,1,.35,1v.4H74.82a.78.78,0,0,0,.21.54.68.68,0,0,0,.54.2,3,3,0,0,0,.52,0,2.21,2.21,0,0,0,.5-.19v.64a1.67,1.67,0,0,1-.46.16A2.58,2.58,0,0,1,75.53,240.43Zm-.11-2.54a.52.52,0,0,0-.41.17.74.74,0,0,0-.17.47H76a.68.68,0,0,0-.16-.47A.53.53,0,0,0,75.42,237.89Z" transform="translate(-13.82 -77.35)"/><path class="cls-22" d="M79.35,240.38l-.16-.41h0a1.16,1.16,0,0,1-.43.36,1.35,1.35,0,0,1-.57.1,1,1,0,0,1-.69-.24,1,1,0,0,1-.25-.71.81.81,0,0,1,.34-.71,1.89,1.89,0,0,1,1-.25l.53,0v-.13a.41.41,0,0,0-.47-.46,2.06,2.06,0,0,0-.85.22l-.28-.56a2.51,2.51,0,0,1,1.16-.27,1.43,1.43,0,0,1,.93.27,1,1,0,0,1,.32.8v2Zm-.24-1.4h-.32a1.07,1.07,0,0,0-.54.13.42.42,0,0,0-.17.36c0,.24.13.35.4.35a.61.61,0,0,0,.45-.16.57.57,0,0,0,.18-.44Z" transform="translate(-13.82 -77.35)"/><path class="cls-22" d="M82.46,237.31a1.06,1.06,0,0,1,.27,0l-.06.77a.82.82,0,0,0-.24,0,.83.83,0,0,0-.61.2.7.7,0,0,0-.22.56v1.54h-.83v-3h.63l.12.51h0a1.07,1.07,0,0,1,.38-.41A1,1,0,0,1,82.46,237.31Z" transform="translate(-13.82 -77.35)"/><path class="cls-22" d="M84.51,240.43c-.94,0-1.41-.51-1.41-1.54a1.67,1.67,0,0,1,.38-1.18,1.44,1.44,0,0,1,1.1-.4,2.06,2.06,0,0,1,.94.2l-.24.64-.36-.13a1.4,1.4,0,0,0-.34-.05c-.43,0-.64.3-.64.91s.21.89.64.89a1.23,1.23,0,0,0,.44-.07,1.51,1.51,0,0,0,.41-.19v.7a1.47,1.47,0,0,1-.41.18A2.39,2.39,0,0,1,84.51,240.43Z" transform="translate(-13.82 -77.35)"/><path class="cls-22" d="M88.91,240.38h-.82v-1.76c0-.44-.16-.66-.49-.66a.55.55,0,0,0-.5.24A1.47,1.47,0,0,0,87,239v1.42h-.82v-4.2H87V237c0,.06,0,.22,0,.47l0,.24h0a1,1,0,0,1,.88-.44,1.09,1.09,0,0,1,.81.28,1.16,1.16,0,0,1,.27.82Z" transform="translate(-13.82 -77.35)"/><g class="cls-23"><polygon class="cls-7" points="163.26 121.97 120.94 121.97 41.92 248.86 41.92 261.68 76.26 261.68 163.26 121.97"/><polygon class="cls-7" points="41.92 178.81 41.92 224.57 105.81 121.97 77.32 121.97 41.92 178.81"/><polygon class="cls-7" points="220.78 121.97 178.46 121.97 91.46 261.68 133.78 261.68 220.78 121.97"/><polygon class="cls-7" points="255.23 121.97 235.07 121.97 148.07 261.68 168.23 261.68 255.23 121.97"/><polygon class="cls-7" points="272.61 196.6 272.61 128.64 189.75 261.68 232.08 261.68 272.61 196.6"/></g><path class="cls-24" d="M264.62,260.73,262,262.12s.8-17.64-5.73-17.47a2.39,2.39,0,0,0-1.28.4l.62-2.21a27.88,27.88,0,0,0,30.84-13.36v-25a5.19,5.19,0,0,0-5.2-5.19H239.64a27.85,27.85,0,0,0,7.81,40.1l-2.9,7.06a8,8,0,0,0-3.73-.22c-5.9,1.48-9.09,14.76-9.08,20.7l0,.83c0,.2,0,.39.06.56.06.48.5.91,1.18,1.28l1.28,1.9a6.42,6.42,0,0,0,3.84,8,6.58,6.58,0,0,0,1.83.39l2.67,4-.33.34a509.49,509.49,0,0,0,37.65,40.68v8.64a2.8,2.8,0,0,0,0,3.43h0c-6.38,1.92-3.77,7.05-3.77,7.05h0c-3.95,5.25,3.48,5.41,3.48,5.41-1.1,2.9,2.28,5.52,6.59,3.45l.18-.08V279.91C275,270.17,264.62,260.73,264.62,260.73ZM285,209.08c0,.13.09.24.12.37,0-.13-.08-.24-.12-.37Zm-.28-.89-.22-.57c.07.19.15.38.22.58Zm-.28,16c.07-.19.13-.38.19-.57h0c-.07.19-.12.39-.19.58-.26.7-.57,1.38-.89,2,.2-.42.39-.84.57-1.28C284.26,224.66,284.37,224.41,284.47,224.15Zm-2.24,4.47c.18-.28.35-.58.52-.87C282.58,228,282.41,228.34,282.23,228.62Zm.71-1.2c.21-.38.41-.77.61-1.16C283.35,226.65,283.15,227,282.94,227.42Zm1-21.23h0c-.09-.21-.17-.43-.26-.64C283.8,205.76,283.88,206,284,206.19Z" transform="translate(-13.82 -77.35)"/><path class="cls-25" d="M261.24,237.65c-3.43.09-3.57,6.17-3.16,10.91l-7.62-5.62-12.92,19.41,10.21,14.76,19.22-22S267.77,237.48,261.24,237.65Z" transform="translate(-13.82 -77.35)"/><path class="cls-21" d="M243.12,272.55h0a6.42,6.42,0,0,1-3.64-8.54l13.82-33.66,8.18,2.25-10,35.93A6.41,6.41,0,0,1,243.12,272.55Z" transform="translate(-13.82 -77.35)"/><path class="cls-7" d="M289.47,217.15a23.59,23.59,0,0,1-3.06,5.67A23.86,23.86,0,1,1,275,186.25l.55.2a23.17,23.17,0,0,1,3.23,1.49A23.85,23.85,0,0,1,289.47,217.15Z" transform="translate(-13.82 -77.35)"/><path class="cls-9" d="M244.85,200.36a23.58,23.58,0,0,0-1.52,8.31H291a23.76,23.76,0,0,0-2.5-10.5H245.82C245.47,198.88,245.14,199.6,244.85,200.36Z" transform="translate(-13.82 -77.35)"/><path class="cls-14" d="M251.28,226.53a21.87,21.87,0,0,0,2.21,1.73v-12.4h-9.07A23.77,23.77,0,0,0,251.28,226.53Z" transform="translate(-13.82 -77.35)"/><path class="cls-10" d="M275.56,186.45l-.55-.2a23.8,23.8,0,0,0-13-.78,24,24,0,0,0-11.47,6.18h33.21a23.59,23.59,0,0,0-5-3.71A23.17,23.17,0,0,0,275.56,186.45Z" transform="translate(-13.82 -77.35)"/><path class="cls-11" d="M262.89,215.86V232.2a23.81,23.81,0,0,0,26.58-15c.16-.43.28-.86.42-1.29Z" transform="translate(-13.82 -77.35)"/><path class="cls-21" d="M277,182.66a27.88,27.88,0,1,0,16.27,35.91A27.88,27.88,0,0,0,277,182.66Zm12.49,34.49a23.59,23.59,0,0,1-3.06,5.67A23.86,23.86,0,1,1,275,186.25l.55.2a23.17,23.17,0,0,1,3.23,1.49A23.85,23.85,0,0,1,289.47,217.15Z" transform="translate(-13.82 -77.35)"/><path class="cls-25" d="M257.36,256.74s3.33-.08,4.41-1.76-.93-4.06-.93-4.06,3.53.78,3.22-1.89c-.34-2.91-13.14-11-18.24-9.76-6.42,1.61-9.63,17.2-9,22.09.34,2.67,12.26,3.65,14.41,4s6.76-.54,3.26-3C254.49,262.35,262,262.25,257.36,256.74Z" transform="translate(-13.82 -77.35)"/><path class="cls-26" d="M361.94,232s-38.07,59-41.5,61.85-50.82-40.16-50.82-40.16l-22.33,23.52s40.9,50.12,68.76,65c21.46,11.46,53.11-40.87,61.41-53.37S391.63,208.69,361.94,232Z" transform="translate(-13.82 -77.35)"/><path class="cls-27" d="M260.84,250.92c-1.3-.58-2.61-1.13-3.91-1.67s-2.61-1.05-3.93-1.51-2.66-.88-4-1.27-2.72-.69-4.12-1a18.2,18.2,0,0,1,4.29.25,24.71,24.71,0,0,1,4.16,1.09A25.12,25.12,0,0,1,260.84,250.92Z" transform="translate(-13.82 -77.35)"/><path class="cls-27" d="M242.13,252.46a20.36,20.36,0,0,1,7.91.75,29.09,29.09,0,0,1,7.32,3.08c-2.58-.66-5.07-1.43-7.59-2.11A68.81,68.81,0,0,0,242.13,252.46Z" transform="translate(-13.82 -77.35)"/><path class="cls-27" d="M243.88,259.39a16.71,16.71,0,0,1,5.5.76,21,21,0,0,1,5.11,2.2,38.05,38.05,0,0,1-5.39-1.24C247.35,260.59,245.63,260.05,243.88,259.39Z" transform="translate(-13.82 -77.35)"/><path class="cls-28" d="M345.24,219.11c.59-.26,40.86-19.7,80-10.63l-7,28.38-49.87,12.71Z" transform="translate(-13.82 -77.35)"/><path class="cls-29" d="M391.77,268l4-48.74-50.56-.18s8.13,22.84,9.54,24.73c0,0-7.45,11-8.93,29.12-.25,3.1-13.6,110.33-13.6,110.33h44.83S393.59,285.36,391.77,268Z" transform="translate(-13.82 -77.35)"/><path class="cls-28" d="M341.23,310.9l-4.29,36.22-4.39,36.21-.3-.34,44.83-.08-.38.32q4.71-28.68,8.83-57.46c1.35-9.6,2.71-19.19,3.83-28.81.3-2.41.57-4.81.81-7.22s.53-4.82.7-7.23.43-4.82.49-7.23c0-1.2.15-2.42.12-3.61l-.1-3.6V268h0l4.11-48.74.31.34-25.28-.14-25.28-.21.14-.19q2.19,6.25,4.47,12.48l2.32,6.21a55.49,55.49,0,0,0,2.61,6.09,54.59,54.59,0,0,1-2.67-6.06l-2.4-6.19q-2.34-6.19-4.61-12.43L345,219h.21l25.28,0,25.28,0h.34l0,.33-3.94,48.75V268l.13,3.67c0,1.23-.08,2.44-.11,3.65-.06,2.44-.28,4.85-.47,7.27s-.43,4.84-.67,7.25-.5,4.82-.79,7.23c-1.1,9.64-2.38,19.25-3.76,28.84q-4.17,28.78-9,57.46l-.06.32h-.32l-44.83-.09h-.34l0-.33,4.59-36.19Z" transform="translate(-13.82 -77.35)"/><path class="cls-30" d="M368.94,239.27s5.67-2.39,20.79-5.32c20.08-3.88,38.17,2.69,38.06,7.53-.23,10.7-56.31,36.16-56.74,18.4Z" transform="translate(-13.82 -77.35)"/><path class="cls-25" d="M406.83,188.52l12.51,42.62L382.68,251.3l-10.42-36.49S391.58,183.18,406.83,188.52Z" transform="translate(-13.82 -77.35)"/><path class="cls-31" d="M421.44,158.87s18.21,5.06,14.21,10.51S411,159.17,411,159.17Z" transform="translate(-13.82 -77.35)"/><path class="cls-32" d="M412.83,166c3.18,23.82-8.7,49.72-19,62-6.86,8.16-37,10.92-41,2.06-6.94-15.29-6.68-66.21-6-77.79s34.07-16.38,49-14.23S411.1,153,412.83,166Z" transform="translate(-13.82 -77.35)"/><path class="cls-32" d="M384.19,233.25c-11.56,3.5-28.45,3.23-31.39-3.24-6.94-15.29-6.68-66.21-6-77.79" transform="translate(-13.82 -77.35)"/><path class="cls-27" d="M384.19,233.25a54.24,54.24,0,0,1-13.74,2.45,46.92,46.92,0,0,1-7-.19,23.14,23.14,0,0,1-6.86-1.68,9.42,9.42,0,0,1-3-2,6.08,6.08,0,0,1-1.08-1.52c-.25-.56-.43-1.11-.65-1.66l-.62-1.66c-.18-.56-.31-1.13-.47-1.69-.29-1.14-.66-2.26-.85-3.41l-.69-3.44-.55-3.46c-.39-2.31-.6-4.63-.9-6.94-.92-9.28-1.35-18.6-1.51-27.91s-.07-18.63.57-27.92q-.18,7-.08,14c0,4.65.12,9.3.28,13.94.32,9.29.74,18.59,1.74,27.82.28,2.3.47,4.62.85,6.91l.51,3.44.67,3.4c.18,1.15.54,2.25.81,3.37.15.55.28,1.12.45,1.67l.6,1.61c.2.53.38,1.09.61,1.6a4.93,4.93,0,0,0,.92,1.31,8.48,8.48,0,0,0,2.73,1.88,22.49,22.49,0,0,0,6.61,1.75,45.7,45.7,0,0,0,6.92.33A57.27,57.27,0,0,0,384.19,233.25Z" transform="translate(-13.82 -77.35)"/><path class="cls-33" d="M401.12,188.33l7.27.44,9.11-.86s6.83-40.87-3.31-48.55-18.52,0-16.53,11.25S404,175.08,401.12,188.33Z" transform="translate(-13.82 -77.35)"/><path class="cls-33" d="M375.42,207.85c-2.08-3.43-7.93-2.52-9.56-2.19-1.63-.33-7.48-1.24-9.56,2.19-3.24,5.34-5.15,4.29-5.15,4.29s2.17,9.69,14.71,3.84c12.54,5.85,14.71-3.84,14.71-3.84S378.66,213.19,375.42,207.85Z" transform="translate(-13.82 -77.35)"/><path class="cls-32" d="M371.25,204.76s-9.34,2.86-12.72,1,3.15-14.45,7.17-22.46" transform="translate(-13.82 -77.35)"/><path class="cls-27" d="M371.25,204.76a31.36,31.36,0,0,1-9.19,2,10.58,10.58,0,0,1-2.43-.19,4.74,4.74,0,0,1-1.22-.41,2.11,2.11,0,0,1-1-1.05,5,5,0,0,1-.25-2.57,15.44,15.44,0,0,1,.49-2.36,51.65,51.65,0,0,1,3.6-8.71c1.39-2.81,2.89-5.54,4.46-8.25l-3.81,8.55a72.42,72.42,0,0,0-3.3,8.67,15.88,15.88,0,0,0-.45,2.22,4,4,0,0,0,.15,2,1.08,1.08,0,0,0,.57.6,4.22,4.22,0,0,0,1,.36,9.5,9.5,0,0,0,2.22.25,27.37,27.37,0,0,0,4.59-.35C368.19,205.37,369.72,205.08,371.25,204.76Z" transform="translate(-13.82 -77.35)"/><path class="cls-28" d="M379.37,182.46c.07,2.94,1.42,5.29,3,5.25s2.84-2.45,2.77-5.39-1.43-5.3-3-5.26S379.3,179.51,379.37,182.46Z" transform="translate(-13.82 -77.35)"/><path class="cls-28" d="M356.76,183c.07,2.94,1.43,5.29,3,5.25s2.84-2.45,2.77-5.4-1.43-5.29-3-5.25S356.69,180.06,356.76,183Z" transform="translate(-13.82 -77.35)"/><path class="cls-33" d="M389.73,174.42s-7.92-12.59-13.74,1.3A18.94,18.94,0,0,1,389.73,174.42Z" transform="translate(-13.82 -77.35)"/><path class="cls-33" d="M366.32,176.56s-7.92-12.58-13.74,1.31A19,19,0,0,1,366.32,176.56Z" transform="translate(-13.82 -77.35)"/><path class="cls-32" d="M403.7,196.38s12.45,6,17.7-4-4.77-24-16.35-9.49" transform="translate(-13.82 -77.35)"/><path class="cls-27" d="M403.7,196.38a21.65,21.65,0,0,0,6.31,1.48,12.75,12.75,0,0,0,6.25-.94,10,10,0,0,0,4.5-4.25,11.92,11.92,0,0,0,1.59-6,11.7,11.7,0,0,0-1.62-6,7.17,7.17,0,0,0-4.85-3.48,8.55,8.55,0,0,0-6,1.47,22.39,22.39,0,0,0-4.86,4.27,20,20,0,0,1,4.58-4.7,9.17,9.17,0,0,1,6.37-1.85,7.93,7.93,0,0,1,5.52,3.8,11.87,11.87,0,0,1,1.8,6.47,12.83,12.83,0,0,1-1.81,6.45,10.25,10.25,0,0,1-5,4.45,12.85,12.85,0,0,1-6.57.73A20.26,20.26,0,0,1,403.7,196.38Z" transform="translate(-13.82 -77.35)"/><path class="cls-27" d="M419.71,182.21a10.14,10.14,0,0,0-3.53-2.66,5.23,5.23,0,0,0-4.16,0,8.83,8.83,0,0,0-3.33,2.7c-.41.61-.88,1.18-1.27,1.8l-1.13,1.92-.61-.43a15.29,15.29,0,0,1,2.35-1.92,10.38,10.38,0,0,1,2.75-1.31,6.48,6.48,0,0,1,3-.23,5.74,5.74,0,0,1,2.64,1.38,6.31,6.31,0,0,0-2.69-1.06,6.89,6.89,0,0,0-2.81.42,10.79,10.79,0,0,0-2.52,1.37,14.68,14.68,0,0,0-2.2,1.87h0a.38.38,0,0,1-.6-.44l1.12-2c.39-.67.9-1.26,1.34-1.88a9.49,9.49,0,0,1,3.68-2.85,5.71,5.71,0,0,1,4.6.27,8.67,8.67,0,0,1,1.88,1.34A9,9,0,0,1,419.71,182.21Z" transform="translate(-13.82 -77.35)"/><path class="cls-31" d="M341.61,161.12l79.83-2.25s-4.53-49.62-43.41-47.95C343.11,112.42,341.61,161.12,341.61,161.12Z" transform="translate(-13.82 -77.35)"/><path class="cls-31" d="M382.86,110a3.33,3.33,0,1,1-3.33-3.33A3.33,3.33,0,0,1,382.86,110Z" transform="translate(-13.82 -77.35)"/><path class="cls-31" d="M341.61,161.12S314.32,172,325.15,173.59c17.76,2.64,43.48,3.09,60.74-13.72Z" transform="translate(-13.82 -77.35)"/><path class="cls-29" d="M375.29,111.18c-32.25,4.28-33.68,49.94-33.68,49.94l44.28-1.25h0S390.75,136.37,375.29,111.18Z" transform="translate(-13.82 -77.35)"/><path class="cls-34" d="M425.23,208.48,377.3,221l6.58,22-12.63,16.35-14.49,123.9h88.17s.4-76.46-1.21-105.47c-1.28-23-.75-42.33-16.7-47.65Z" transform="translate(-13.82 -77.35)"/><path class="cls-28" d="M444.93,383.29l-22,.17q-11,.1-22.05.11l-44.08.12h-.44l.05-.44,3.54-31c1.15-10.33,2.43-20.65,3.66-31L371,259.35v-.07l0-.06q6.33-8.18,12.71-16.29l0,.16L377.3,221,384,243l0,.08-.06.08q-6.22,8.23-12.54,16.41l.06-.14-7.08,62c-1.2,10.33-2.34,20.66-3.6,31l-3.7,31-.39-.44,44.08.11q11,0,22.05.12Z" transform="translate(-13.82 -77.35)"/><path class="cls-28" d="M304.86,314.12V321s4.53-4.65,5.29-14.1,10-12.72,14.89-12.72v3.1s-9.59.59-11.63,12.6S312,332,304.86,334c0,0-.56,4.73-10,5.37-5.35.36-10-1.79-10-7.92V314.12Z" transform="translate(-13.82 -77.35)"/><path class="cls-25" d="M321.73,335.48c5.93,3.08,32.57,8.74,53.53-4.57C393,319.64,403.57,292.08,407.4,262c2.66-20.83,15.36-21.27,21.41-20.36s14.33,3.08,7.53,44.52-28.91,69.95-50.2,76.73-47.78,12.7-81.72-10.06c-7.59-5.09-8.87-9-13.18-6.89s-7.69-.55-6.59-3.45c0,0-7.43-.16-3.48-5.41,0,0-2.61-5.13,3.77-7.05,0,0-3-3.49,4.63-6.51S306.09,325,307.73,325a17.17,17.17,0,0,0,3.46-4.59s3.54.88,3,5.17C313.83,329,315.79,332.39,321.73,335.48Z" transform="translate(-13.82 -77.35)"/><path class="cls-34" d="M305,356.84l13.68-26.44A55.14,55.14,0,0,0,362.56,333c24.07-8.87,40.4-38.73,42.77-67.06,2.07-24.62,12.42-27.37,22.53-26.59,13,1,18.08,15.58,9.26,56.73S399.35,365.88,366,371C337,375.41,305,356.84,305,356.84Z" transform="translate(-13.82 -77.35)"/><path class="cls-28" d="M437.12,296.11l-1.28,5.27c-.22.87-.4,1.76-.66,2.62l-.81,2.59c-.57,1.72-1,3.47-1.68,5.15l-2,5.06c-.16.42-.32.84-.5,1.26l-.58,1.22-1.16,2.46-1.15,2.45c-.4.82-.87,1.59-1.31,2.38-.9,1.57-1.73,3.18-2.68,4.72l-3,4.53A100,100,0,0,1,406,352.07,85.39,85.39,0,0,1,388,364.25a71.75,71.75,0,0,1-20.59,6.86,69.64,69.64,0,0,1-21.71.18c-14.4-2-28.21-7.14-40.94-14.07l-.37-.2.2-.39,13.73-26.4.18-.34.34.19a49.21,49.21,0,0,0,10.77,4.12A55.67,55.67,0,0,0,341,336a51.74,51.74,0,0,0,41.56-16.89,79.74,79.74,0,0,0,13.21-19,79.91,79.91,0,0,1-13,19.26,53.27,53.27,0,0,1-18.89,13.48A54.71,54.71,0,0,1,341,336.63a55.81,55.81,0,0,1-11.56-1.76,49.91,49.91,0,0,1-11-4.14l.52-.15L305.38,357l-.17-.59a132,132,0,0,0,19.73,8.71,112.57,112.57,0,0,0,20.9,5.23,68.82,68.82,0,0,0,21.44-.09,70.92,70.92,0,0,0,20.4-6.69,85,85,0,0,0,17.87-12,99.74,99.74,0,0,0,14.35-16.09,108.29,108.29,0,0,0,10.55-18.83l2-5c.67-1.67,1.16-3.42,1.74-5.12l.85-2.57c.27-.87.46-1.75.69-2.62Z" transform="translate(-13.82 -77.35)"/><path class="cls-27" d="M300.49,341.22a20.33,20.33,0,0,0-4-1.49,13.54,13.54,0,0,0-4.14-.42,10.82,10.82,0,0,0-4,1,18.1,18.1,0,0,0-3.66,2.19,16.14,16.14,0,0,1,1.49-1.61,9.62,9.62,0,0,1,1.82-1.28,10.38,10.38,0,0,1,2.08-.9,11.92,11.92,0,0,1,2.23-.36A11.67,11.67,0,0,1,300.49,341.22Z" transform="translate(-13.82 -77.35)"/><path class="cls-27" d="M299.2,334.29a27.92,27.92,0,0,0-4.68-.73,22,22,0,0,0-4.66.15,17.9,17.9,0,0,0-4.49,1.17,24.26,24.26,0,0,0-4.2,2.17,13.84,13.84,0,0,1,3.88-2.89,16.64,16.64,0,0,1,2.27-.93,19.85,19.85,0,0,1,2.41-.51A16.05,16.05,0,0,1,299.2,334.29Z" transform="translate(-13.82 -77.35)"/><path class="cls-27" d="M301.4,328.5a22.63,22.63,0,0,0-4.18-.85,19.67,19.67,0,0,0-4.2,0,19.21,19.21,0,0,0-4.1.81,31.07,31.07,0,0,0-4,1.58,20.33,20.33,0,0,1,1.75-1.3,14.52,14.52,0,0,1,2-1,14,14,0,0,1,4.28-1.07,14.49,14.49,0,0,1,4.41.26A12.39,12.39,0,0,1,301.4,328.5Z" transform="translate(-13.82 -77.35)"/><path class="cls-35" d="M70.58,106.2H124a13,13,0,0,1,13,13v25.64a13,13,0,0,1-13,13h-3.65l2.19,17.57-21-17.57h-31a13,13,0,0,1-13-13V119.17A13,13,0,0,1,70.58,106.2Z" transform="translate(-13.82 -77.35)"/><rect class="cls-36" x="58.15" y="36.96" width="48.54" height="33.57"/><polyline class="cls-37" points="58.15 70.52 76.72 50.82 89.38 50.82 106.7 70.52"/><polygon class="cls-37" points="106.7 36.96 82.43 55.08 58.15 36.96 106.7 36.96"/><path class="cls-35" d="M309,77.85H247a15,15,0,0,0-15,15v29.7a15,15,0,0,0,15,15h4.23L248.69,158,273,137.62H309a15,15,0,0,0,15-15V92.89A15,15,0,0,0,309,77.85Z" transform="translate(-13.82 -77.35)"/><circle class="cls-38" cx="277.97" cy="107.46" r="19.75" transform="translate(113.55 287.28) rotate(-80.78)"/><ellipse class="cls-39" cx="264.16" cy="30.11" rx="10.25" ry="19.75"/><path class="cls-39" d="M278,97.73c5.86,0,11.12-1.32,14.73-3.42a19.74,19.74,0,0,0-29.46,0C266.86,96.41,272.12,97.73,278,97.73Z" transform="translate(-13.82 -77.35)"/><path class="cls-39" d="M278,117.2c-5.85,0-11.11,1.32-14.73,3.42a19.74,19.74,0,0,0,29.46,0C289.09,118.52,283.83,117.2,278,117.2Z" transform="translate(-13.82 -77.35)"/><line class="cls-39" x1="264.16" y1="10.36" x2="264.16" y2="49.13"/><line class="cls-39" x1="283.54" y1="29.74" x2="244.77" y2="29.74"/><path class="cls-35" d="M214,144.81H177a9,9,0,0,0-9,9v17.77a9,9,0,0,0,9,9h2.53L178,192.74l14.56-12.18H214a9,9,0,0,0,9-9V153.8A9,9,0,0,0,214,144.81Z" transform="translate(-13.82 -77.35)"/><path class="cls-21" d="M198.06,171v-13.9a.6.6,0,0,0-.6-.6h-7.12a.6.6,0,0,0-.6.6v2.36a.6.6,0,0,0,.6.6h2a.6.6,0,0,1,.6.6V171a.6.6,0,0,1-.6.6h-2a.6.6,0,0,0-.6.6v2.37a.6.6,0,0,0,.6.6h10.32a.6.6,0,0,0,.6-.6v-2.37a.6.6,0,0,0-.6-.6h-2A.59.59,0,0,1,198.06,171Z" transform="translate(-13.82 -77.35)"/><path class="cls-21" d="M198.06,152.74a2.56,2.56,0,1,1-2.56-2.55A2.56,2.56,0,0,1,198.06,152.74Z" transform="translate(-13.82 -77.35)"/><line class="cls-40" x1="431.11" y1="305.94" x2="45.2" y2="305.94"/><line class="cls-40" x1="454.7" y1="305.94" x2="438.28" y2="305.94"/><line class="cls-40" x1="470.36" y1="305.94" x2="463.37" y2="305.94"/><line class="cls-40" x1="17.66" y1="305.94" x2="35.09" y2="305.94"/><line class="cls-40" x1="2" y1="305.94" x2="8.99" y2="305.94"/></g></g></svg>