<svg id="_лой_1" data-name="‘лой_1" xmlns="http://www.w3.org/2000/svg" viewBox="0 0 2238.52 1415.08"><defs><style>.cls-1{fill:#cadafc;}.cls-2{fill:#eef4ff;}.cls-3{fill:#163560;}.cls-4{fill:#d86036;}.cls-5{fill:#f77d48;}.cls-6{fill:#f8fbff;}.cls-7{fill:#233862;}.cls-8{fill:#f99746;}.cls-9{fill:#ed7d2b;}.cls-10{fill:#ffb27d;}.cls-11{fill:#739af0;}.cls-12{fill:#6385db;}.cls-13{fill:#e8945b;}.cls-14{fill:#fff;}.cls-15{fill:#2a4e96;}.cls-16{fill:#2c3a64;}</style></defs><path class="cls-1" d="M2647.06,1033.34c-26.55,78.92-84.17,162.13-183.22,242.13C2130.11,1545,2302.7,1995,1521.62,1779.25c-234.38-64.75-278.26,24.91-544.67,65.43-390,59.31-534.55-267.22-563.41-552-13.14-129.74.89-222.42,27.36-294.21l7.9-20,0-.07s87-8.78,118.55,65.61c0,0,28.41-45.89,82.06-29.94s42.08,60.14,42.08,60.14,83.41-58.08,157.79,17.88,29.46,184.1,29.46,184.1,69.43-4.78,90.47,48.1c0,0,99.74-43.33,162.43,14.25s128.62,111,128.62,111,71,18.1,65.66,106.47c0,0,52.46-40,125.59-18.94,0,0,12.58-91,137.54-110.74s181.07,14,181.07,14,1.95-83.18,98.1-92.08c0,0-2.74-128.84,140.33-142.52s173,61.35,173,61.35,18.45-59.81,115.23-55.85c0,0,18.93-110.51,145.17-104.81,0,0,29.46-55.32,92.57-36.38C2534.56,1070,2579.18,995,2647.06,1033.34Z" transform="translate(-408.54 -436.65)"/><path class="cls-2" d="M2371.94,1367.62c-215.74,266.47-153.22,604.2-850.32,411.63-234.38-64.75-278.26,24.91-544.67,65.43-390,59.31-534.55-267.22-563.41-552-12-118.32-1.37-205.82,20.67-274.76h0s72.29,37.44,69.13,97.4c0,0,69.43-22.6,124.65,25.78,0,0,80.47-59.42,187.77,0s42.6,183.18,42.6,183.18,60,2.47,74.16,62.43c0,0,76.84-46.45,127.57,17.81,50,63.27,4.69,163.73-79.57,187.82,18.34-4.57,97.43-19.64,140.15,48.41,0,0,70.64-72.58,144,0,0,0,81-26.11,114.55,45.69,0,0,48.6-86.26,148.57-54.7s103.33,103.09,103.33,103.09,26.23-52.59,92.44-37.87c0,0-24.76-124.13,105.92-155.69,0,0,12.86-101,125.43-92.57,0,0,43.14-46.56,93.63-33.8C2048.55,1414.9,2198.63,1259.45,2371.94,1367.62Z" transform="translate(-408.54 -436.65)"/><path class="cls-3" d="M1932.66,466.69s-26.59-27.08-76-6.81-35,75-73.71,62.22-76.34-11.42-79.68,21.91c-5,49.41-28.4,30.73-43.7,75.13-13.8,40,2,57.79,31.19,45.63,41.55-17.31,9.66,26.56,68.47,34.67s129.93-42.27,140.67-76.9,27.38-53.45,40.07-67.66S1969.12,494.59,1932.66,466.69Z" transform="translate(-408.54 -436.65)"/><path class="cls-3" d="M1632.44,831.92l-1.26,11.32a8,8,0,0,0,3.93,7.83l17.41,10.22a15.38,15.38,0,0,0,11.08,1.76l16.57-3.63Z" transform="translate(-408.54 -436.65)"/><path class="cls-4" d="M1790.49,888.66l-54.1-31.16a10.44,10.44,0,0,1-3.82-14.22L1839,658.56c10.57-18.35,44.89-43.21,63.24-32.64l5.32,3.07c18.4,10.59,14.13,52.81,3.53,71.21L1804.7,884.84A10.43,10.43,0,0,1,1790.49,888.66Z" transform="translate(-408.54 -436.65)"/><polygon class="cls-4" points="1383.35 160.03 1511.63 161.63 1344.98 425.59 1275.22 405.61 1383.35 160.03"/><path class="cls-5" d="M1680.17,859.42l-54.1-31.16a10.44,10.44,0,0,1-3.82-14.22l106.4-184.72c10.57-18.35,44.89-43.21,63.24-32.64l5.32,3.06c18.4,10.6,14.13,52.82,3.53,71.22L1694.38,855.6A10.43,10.43,0,0,1,1680.17,859.42Z" transform="translate(-408.54 -436.65)"/><path class="cls-6" d="M1652.51,861.29l-.72,1.07-7.13,10.7-645.45,968q-10.87,1.83-22.26,3.58c-68.48,10.41-129.38,8.93-183.42-2.13-68.39-14-125.79-43.33-173.61-83.3l244.42-218.66,417.6-373.6,80.78-72.26L1635.1,851.06l9.54,5.6h0l.32.18Z" transform="translate(-408.54 -436.65)"/><path class="cls-7" d="M1812.19,1139.35s-29.19,4.2-58.62,28.43c-15.79,13-36.16,26.32-41.22,20.32-2.44-2.89-4.12-21.82,16.81-35.72,20.07-13.34,15.38-41.52,35-45,13.39-2.34,13,11.18,45-1.06Z" transform="translate(-408.54 -436.65)"/><path class="cls-8" d="M2018.22,1059.68c-5.64,50-225.81,91.17-225.81,91.17s-6.34-29.59,11.42-44.22c0,0,50.36-37,73.68-51.21,27.76-16.93,48-19.77,48-19.77-.34-2-8.33-4.86-20.32-8.67h0c-37.17-11.79-112.7-32.13-117.72-59.1a35.09,35.09,0,0,1-.5-7.85c1.41-37.29,50.59-99,50.59-99l47.94-16.62s7.11,52.87,23.42,65.63S2023.86,1009.7,2018.22,1059.68Z" transform="translate(-408.54 -436.65)"/><path class="cls-9" d="M1905.23,1027h0c-37.17-11.79-112.7-32.13-117.72-59.1a35.09,35.09,0,0,1-.5-7.85c4.56-10.47,13.26-20.44,24.44-23.85,22.29-6.8,19,43,43.73,58S1905.23,1027,1905.23,1027Z" transform="translate(-408.54 -436.65)"/><path class="cls-10" d="M1938,609.9s129.07-36.42,147.92-44.7S2165.83,477,2165.83,477l17.76,10.38S2164.45,562,2109.23,600.5c-21.56,15-142.87,62.61-142.87,62.61Z" transform="translate(-408.54 -436.65)"/><path class="cls-7" d="M1508,1247.34s-19,20-26.63,39-18.93,40.52-26.26,37.71c-3.53-1.35-14.15-17.11-2.56-39.39,11.13-21.38-6.6-43.78,8.91-56.26,10.59-8.52,16.78,3.5,38.88-22.69Z" transform="translate(-408.54 -436.65)"/><path class="cls-8" d="M1892.79,863.15S1754.52,1038.68,1694,1093c-32.16,28.82-184.69,156.33-184.69,156.33s-10.48-10.36-13.69-19.36c-6.31-17.68-1-28.5-1-28.5s65.06-127,126.77-163.51c42.77-25.32,68.83-183.11,160.64-237.09S1892.79,863.15,1892.79,863.15Z" transform="translate(-408.54 -436.65)"/><path class="cls-11" d="M1966.15,752.19c-43.18,88.44-54.5,130.23-69.74,139.31S1734.34,879,1722,856.85c-3.25-5.86-2.2-12.51,1.52-19.78h0c10.31-20.18,41.11-45.07,57.06-70.78a346.25,346.25,0,0,0,23.49-43.89c27.1-62,5-79.31,18.21-87.47,23.07-14.28,130.65-45.71,164.56-34.13,16.61,5.68-4.62,39.88-3.08,68.07C1985.73,704.25,1979.72,724.4,1966.15,752.19Z" transform="translate(-408.54 -436.65)"/><path class="cls-10" d="M1815.88,639.45s-98.08,67.28-119.49,102.46-52.73,117.33-52.73,117.33,1.12,5.28,19.7,2.15c0,0,61.35-92.13,71-101.38s95.13-56.19,95.13-56.19Z" transform="translate(-408.54 -436.65)"/><path class="cls-11" d="M2015.64,633.31c-4.47,12.78-14,27.83-31.54,43.19l-46.76-74.82s49-8,76.17-13.56C2013.51,588.12,2025,606.66,2015.64,633.31Z" transform="translate(-408.54 -436.65)"/><path class="cls-11" d="M1891.28,610.41s-46.68,6.7-82.28,26.9c-14.76,8.38-52.8,41.76-52.8,41.76s10.61,34.73,54.27,45.17,34.34-73.33,34.34-73.33Z" transform="translate(-408.54 -436.65)"/><path class="cls-10" d="M2165.25,477.81s7-41.67,15.87-41.16,15.55,14.45,16.74,22.33S2183,488.19,2183,488.19Z" transform="translate(-408.54 -436.65)"/><path class="cls-10" d="M1665.55,865s3.4,19.11.38,26.81-11.68,13.8-17.66,13.31,4.14-14.51.29-22.44-10.64-24.76.58-28.79S1665.55,865,1665.55,865Z" transform="translate(-408.54 -436.65)"/><path class="cls-10" d="M1663.37,858.56s4.39,12.27,6.91,16.44-7.18-2-9.57-6S1663.37,858.56,1663.37,858.56Z" transform="translate(-408.54 -436.65)"/><path class="cls-12" d="M1816.71,738.77c-1,20.72-22.35,60.68-46.54,68.42-23.8,7.61-45.91,29.19-46.6,29.87,10.31-20.18,41.11-45.07,57.06-70.78a346.25,346.25,0,0,0,23.49-43.89C1809.86,721.76,1817.37,724.48,1816.71,738.77Z" transform="translate(-408.54 -436.65)"/><path class="cls-4" d="M1856.31,688c-12.78,38.62-48.16,53.94-62.92,58.78-3,1-5.16,1.53-6.09,1.75l-.43.1L1783,731a77.47,77.47,0,0,0,11.82-4.07h0c13.82-5.88,35.88-18.94,44.37-44.6,11.73-35.44-18.28-60.25-22.11-63.23a201.2,201.2,0,0,1,21.41-4.67C1852.6,630.07,1866.66,656.79,1856.31,688Z" transform="translate(-408.54 -436.65)"/><path class="cls-4" d="M1923.43,609.77s49.6,6.42,60.67,66.73c0,0,10.93-3.92,13.16-13.16,0,0-13.59-53.54-65.7-63-3-.54-15.38-3.8-15.38-3.8l-.48,2.81s.25,7.15.61,8S1923.43,609.77,1923.43,609.77Z" transform="translate(-408.54 -436.65)"/><path class="cls-10" d="M1868.39,614.53c4-10.22,7.37-25.37,7.86-44.46l2.76.62,46.36,10.61s-1.5,14.65-1.94,28.47c0,.12,0,.23,0,.35C1921.94,652.65,1865.08,623,1868.39,614.53Z" transform="translate(-408.54 -436.65)"/><path class="cls-13" d="M1925.37,581.3l-1.22,14.62c-26.07-1.51-39.88-11.86-45.14-25.23Z" transform="translate(-408.54 -436.65)"/><path class="cls-10" d="M1936.43,581s-59.89,15.13-68.74-22.31S1845.14,498,1883,486.71s48.7,1.28,54.7,13.06S1951.78,576.06,1936.43,581Z" transform="translate(-408.54 -436.65)"/><path class="cls-3" d="M1910.17,479.35s-6.12,47.81-29.86,60.25-36.28,8.25-36.28,8.25,15.75-20,13.45-47.77C1857.48,500.08,1892.83,461.36,1910.17,479.35Z" transform="translate(-408.54 -436.65)"/><path class="cls-3" d="M1906.93,483.88s13.28,1.69,20.4,9.41a62.24,62.24,0,0,1,16.22,32.47s5.37-32.78-12.54-46.4C1912,464.93,1906.93,483.88,1906.93,483.88Z" transform="translate(-408.54 -436.65)"/><path class="cls-14" d="M1919.45,561.5s2.08,4.17,12.9.9c0,0,9.08-2.74,7.66-7.52C1940,554.88,1930.26,553.53,1919.45,561.5Z" transform="translate(-408.54 -436.65)"/><path class="cls-6" d="M999.38,964.79l-2,8.53-8.92,38h0l-26.24,111.85L914,1328.72l-49.69,211.87-70.81,302c-68.39-14-125.79-43.33-173.61-83.3-94.86-79.31-152.07-200.48-182.76-327l525.38-487,.12.06,16.46,8.71,2,1.08,15.42,8.14.26.14Z" transform="translate(-408.54 -436.65)"/><path class="cls-7" d="M1214.61,1347.54s-35.78,10.09-68.55,45.24c-17.57,18.86-40.82,38.89-48.14,32.24-3.52-3.21-8.76-26.59,15.08-47.44,22.88-20,12.34-54.43,36.27-62,16.35-5.15,18.11,11.81,56.07-8.8Z" transform="translate(-408.54 -436.65)"/><path class="cls-15" d="M1403.09,1188.65C1401,1246.09,1202,1369.76,1202,1369.76s-21.52-12.24-20.82-58.81c0,0,64.7-91.36,104.63-122.59,6.38-5,6.37-14.64-10.61-26.88h0a133.14,133.14,0,0,0-19.13-11.16s-75.68-36.78-122.16-67.59a241.13,241.13,0,0,1-22.57-16.59c-2.16-1.84,86.09-103.62,86.09-103.62L1252,943.6s20.36,34.38,36.09,57.23C1301.47,1020.24,1405.29,1127.29,1403.09,1188.65Z" transform="translate(-408.54 -436.65)"/><path class="cls-7" d="M1275.21,1161.48a133.14,133.14,0,0,0-19.13-11.16s-75.68-36.78-122.16-67.59c6.34-14.24,17.92-33.35,35.58-38,29-7.58,27.48,43.57,43.38,63.18C1228.66,1127.4,1274.5,1161,1275.21,1161.48Z" transform="translate(-408.54 -436.65)"/><path class="cls-3" d="M963.89,929.36l-1.43,12.89a9.14,9.14,0,0,0,4.47,8.9l19.82,11.64a17.56,17.56,0,0,0,12.62,2l18.86-4.14Z" transform="translate(-408.54 -436.65)"/><path class="cls-4" d="M1143.83,994l-61.59-35.48a11.88,11.88,0,0,1-4.36-16.18L1199,732c12-20.9,51.11-49.2,72-37.17l6,3.49c21,12.07,16.09,60.13,4,81.08L1160,989.6A11.88,11.88,0,0,1,1143.83,994Z" transform="translate(-408.54 -436.65)"/><polygon class="cls-4" points="736.89 224.9 872.38 228.78 693.2 527.22 613.78 504.47 736.89 224.9"/><path class="cls-5" d="M1018.23,960.66l-61.59-35.48A11.87,11.87,0,0,1,952.29,909l121.14-210.29c12-20.9,51.1-49.2,72-37.17l6,3.49c21,12.07,16.08,60.13,4,81.08l-121.09,210.2A11.88,11.88,0,0,1,1018.23,960.66Z" transform="translate(-408.54 -436.65)"/><path class="cls-10" d="M1311.73,676.59s146.94-41.47,168.39-50.88,91-100.38,91-100.38l20.22,11.82s-21.8,85-84.66,128.74c-24.55,17.09-162.65,71.27-162.65,71.27Z" transform="translate(-408.54 -436.65)"/><path class="cls-7" d="M825.85,1400.71S802,1426,792.28,1449.84s-23.86,51.09-33.1,47.55c-4.45-1.7-17.84-21.57-3.22-49.66,14-27-8.33-55.19,11.22-70.92,13.35-10.75,21.16,4.4,49-28.61Z" transform="translate(-408.54 -436.65)"/><path class="cls-15" d="M1260.29,964.91s-157.41,199.83-226.35,261.63c-36.61,32.81-210.26,178-210.26,178s-11.93-11.79-15.58-22C800.91,1362.34,807,1350,807,1350s86.13-155.22,143.69-213.14c47.13-47.43,79-181.48,183.52-242.93S1260.29,964.91,1260.29,964.91Z" transform="translate(-408.54 -436.65)"/><path class="cls-8" d="M1340.11,865.7c-38.24,105.32-50.87,137.24-70.85,140.21-156.69,23.25-203.88-8.09-217.88-33.28-3.7-6.68,5.35-24.37,16.25-37.41v0c11.74-23,46.8-51.31,65-80.57a397.22,397.22,0,0,0,26.75-50c30.85-70.55,5.74-90.3,20.73-99.59,26.26-16.26,148.74-52,187.35-38.85,18.9,6.46-5.27,45.41-3.52,77.49C1366.1,784,1354.18,827,1340.11,865.7Z" transform="translate(-408.54 -436.65)"/><path class="cls-10" d="M1172.74,710.23s-111.66,76.6-136,116.65-60,133.58-60,133.58,1.28,6,22.43,2.45c0,0,69.85-104.89,80.85-115.43s108.3-64,108.3-64Z" transform="translate(-408.54 -436.65)"/><path class="cls-8" d="M1400.15,703.25c-5.09,14.54-15.9,31.68-35.9,49.17L1311,667.23s55.81-9.08,86.71-15.44C1397.73,651.79,1410.77,672.91,1400.15,703.25Z" transform="translate(-408.54 -436.65)"/><path class="cls-8" d="M1258.58,677.18s-53.15,7.62-93.68,30.62c-16.81,9.53-60.12,47.54-60.12,47.54s12.09,39.53,61.79,51.43,39.1-83.49,39.1-83.49Z" transform="translate(-408.54 -436.65)"/><path class="cls-10" d="M1570.48,526.22s8-47.45,18.06-46.86,17.71,16.45,19.06,25.41S1590.7,538,1590.7,538Z" transform="translate(-408.54 -436.65)"/><path class="cls-10" d="M1001.59,967s3.86,21.76.43,30.53-13.3,15.7-20.1,15.15,4.71-16.52.32-25.55-12.11-28.19.67-32.78S1001.59,967,1001.59,967Z" transform="translate(-408.54 -436.65)"/><path class="cls-10" d="M999.11,959.68s5,14,7.86,18.71-8.17-2.31-10.9-6.77S999.11,959.68,999.11,959.68Z" transform="translate(-408.54 -436.65)"/><path class="cls-9" d="M1173.67,823.3c-1.09,23.59-25.44,69.09-53,77.9-27.11,8.66-52.27,33.23-53.06,34,11.74-23,46.8-51.31,65-80.57a397.22,397.22,0,0,0,26.75-50C1165.88,803.94,1174.42,807,1173.67,823.3Z" transform="translate(-408.54 -436.65)"/><path class="cls-4" d="M1218.76,765.54c-14.55,44-54.82,61.41-71.63,66.92-3.43,1.11-5.88,1.74-6.93,2l-.5.12-4.45-20.11a88,88,0,0,0,13.45-4.63h0c15.73-6.69,40.84-21.56,50.51-50.78,13.35-40.35-20.82-68.59-25.18-72a228.7,228.7,0,0,1,24.38-5.32C1214.53,699.55,1230.54,730,1218.76,765.54Z" transform="translate(-408.54 -436.65)"/><path class="cls-4" d="M1295.18,676.45s56.47,7.3,69.07,76c0,0,12.44-4.47,15-15,0,0-15.47-60.95-74.8-71.74-3.44-.62-17.51-4.33-17.51-4.33l-.54,3.2s.27,8.13.69,9.11S1295.18,676.45,1295.18,676.45Z" transform="translate(-408.54 -436.65)"/><path class="cls-10" d="M1232.51,681.86c4.54-11.63,8.39-28.88,9-50.62l3.13.72L1297.38,644s-1.7,16.67-2.2,32.41v.39C1293.48,725.26,1228.74,691.51,1232.51,681.86Z" transform="translate(-408.54 -436.65)"/><path class="cls-13" d="M1297.38,644,1296,660.67c-29.68-1.71-45.4-13.5-51.4-28.71Z" transform="translate(-408.54 -436.65)"/><path class="cls-10" d="M1319.92,639.56s-64.13,27.92-80.85-11.62-36.25-62.56,4-82.06,54.62-7.75,63.46,4.08S1336.17,631.28,1319.92,639.56Z" transform="translate(-408.54 -436.65)"/><path class="cls-16" d="M1194.18,553c-.78-.54-2.33-.75-5.49-.13a13.1,13.1,0,0,1,5.41-3.12c-.45-4.5-.09-12.75,6.9-16.51a9.62,9.62,0,0,0-2.82,7.89c6.39-11.06,23.27-22.22,75.57-31.19,68.93-11.81,57.64,37.11,50.2,44.49s-33-1.18-49,4.25-13.1,29.77-17.81,34.41-4-1.63-12.32-3.12-5.91,11.1-1.7,18.61-3.38,20.75-3.38,20.75l-13.23-8.55c-13.22-8.55-35-53.46-32.88-64.76C1193.8,555.07,1194,554.06,1194.18,553Z" transform="translate(-408.54 -436.65)"/><path class="cls-6" d="M2277.32,1513.33c-122.94,224.21-182.71,424.21-755.7,265.92-227.7-62.9-275.6,19.92-522.41,61.85q-10.87,1.83-22.26,3.58c-68.48,10.41-129.38,8.93-183.42-2.13-68.39-14-125.79-43.33-173.61-83.3-94.86-79.31-152.07-200.48-182.76-327a1036.2,1036.2,0,0,1-23.62-139.58q-4-39.23-4.75-74.08s114.46,23.46,132.33,117.31c0,0,26.26-10.38,51.51,12.28s4.21,67.94-31.56,74.76c0,0,92.58,11,79.95,112,0,0,53.5-20,77.25,32.61,0,0,78.44-75.74,185.74-27.35s102,135.7,102,135.7,50.63-40,105.26-6.31,55.7,67.33,55.7,67.33,26.3-29.46,63.11-12.63c0,0,58.91-107.3,203-62.06,0,0,34.94-27.82,74.84-2.57s39.91,55.23,39.91,55.23,91.52-55.23,173.57,28.4c0,0,53.65-25.24,97.83,0,0,0,1.13-83.63,83.4-107.3,0,0-9.25-83.62,94.9-94.67s138.85,52.07,138.85,52.07S2183.69,1513.63,2277.32,1513.33Z" transform="translate(-408.54 -436.65)"/></svg>