<svg width="453" height="274" viewBox="0 0 453 274" fill="none" xmlns="http://www.w3.org/2000/svg">
<path d="M4.25994 265H452.07V269.26C452.07 270.39 451.621 271.473 450.822 272.272C450.023 273.071 448.94 273.52 447.81 273.52H4.25994C3.13702 273.52 2.05949 273.077 1.26172 272.286C0.463958 271.496 0.0104876 270.423 -5.63276e-05 269.3V269.3C-0.00534096 268.737 0.100946 268.179 0.312664 267.657C0.524382 267.136 0.837333 266.662 1.23344 266.262C1.62954 265.862 2.10095 265.545 2.62042 265.328C3.13989 265.111 3.69713 265 4.25994 265V265Z" fill="#6876EB"/>
<path d="M0 265H167.92V269.26C167.92 270.39 167.471 271.473 166.672 272.272C165.873 273.071 164.79 273.52 163.66 273.52H4.26C3.13707 273.52 2.05954 273.077 1.26178 272.286C0.464015 271.496 0.0105439 270.423 0 269.3L0 265Z" fill="#1C145E"/>
<path d="M229.92 102.51C210.92 139.01 189.59 153.88 189.59 153.88L208.02 183.31L240.2 149.86L229.92 102.51Z" fill="#1C145E"/>
<path d="M277.02 93.8L229.92 102.51C226.92 191.61 225.82 265.02 225.82 265.02H310.36C310.36 265.02 312.81 128.58 299.21 98.81L277.02 93.8Z" fill="#1C145E"/>
<path d="M271.55 139.2L294.49 137.26" stroke="#6876EB" stroke-width="4" stroke-miterlimit="10"/>
<path d="M261.02 120.06C261.02 120.06 275.58 219.43 262.91 259.64" stroke="#6876EB" stroke-miterlimit="10"/>
<path d="M245.77 169.83C256.139 173.608 267.04 175.72 278.07 176.09C296.31 176.69 284.96 186.4 257.93 184.56" stroke="#6876EB" stroke-miterlimit="10"/>
<path d="M249.39 90.17L261.01 121.05L277.01 93.8L266.47 76.56L249.39 90.17Z" fill="#E9A394"/>
<path d="M261.01 121.05L282.71 115.06L277.01 93.8L261.01 121.05Z" fill="#6876EB"/>
<path d="M251.97 97.03L240.2 110.19L261.01 121.05L251.97 97.03Z" fill="#6876EB"/>
<path d="M208.02 183.31C208.02 183.31 214.89 168.97 200.13 150.49C191.94 140.25 188.13 122.58 188.13 122.58L175.82 124.45L187.09 183.31H208.02Z" fill="#E9A394"/>
<path d="M173.35 104.12L168.31 108.7L175.04 114.64L153.96 114.28L153.51 121.52L175.86 124.44L188.16 122.57L173.35 104.12Z" fill="#E9A394"/>
<path d="M177.03 115.39L156.8 107.04L155.5 110.64L172.38 117.73L177.03 115.39Z" fill="#E9A394"/>
<path d="M299.21 98.81C299.21 98.81 326.39 114.28 334.97 172.25L303.44 179.85L299.21 98.81Z" fill="#1C145E"/>
<path d="M240.18 52.44L229.92 78.7L237.77 81.12L240.18 95.91L265.24 90.17L268.86 50.02L240.18 52.44Z" fill="#E9A394"/>
<path d="M256.91 58.68H237.74L239.83 53.02L256.91 51.96V58.68Z" fill="#E37A82"/>
<path d="M266.92 70.68C266.92 70.68 254.7 68.15 254.7 55.51C254.7 55.51 236.56 57.98 230.29 48.13C222.88 36.47 234.21 23.06 243.57 25.79C243.57 25.79 237.68 31.63 246.63 32.32C253.02 32.81 264.7 24.32 268.87 32.53C268.87 32.53 301.02 39.88 277.02 69.84L266.92 70.68Z" fill="#16005C"/>
<path d="M254.7 54.49C254.7 54.49 230.5 59.17 225.38 41.78C222.38 31.62 232.6 25.83 232.6 25.83" stroke="#16005C" stroke-width="2" stroke-miterlimit="10"/>
<path d="M244.43 77.86C249.483 77.86 253.58 73.7634 253.58 68.71C253.58 63.6566 249.483 59.56 244.43 59.56C239.376 59.56 235.28 63.6566 235.28 68.71C235.28 73.7634 239.376 77.86 244.43 77.86Z" stroke="#16005C" stroke-width="0.5" stroke-miterlimit="10"/>
<path d="M253.09 65.75L266.13 66.46" stroke="#16005C" stroke-width="0.5" stroke-miterlimit="10"/>
<path d="M282.71 72.97C282.71 78.64 275.12 83.23 269.45 83.23C263.78 83.23 262.19 78.64 262.19 72.97C262.19 71.6226 262.455 70.2885 262.971 69.0437C263.487 67.7989 264.242 66.6678 265.195 65.7151C266.148 64.7623 267.279 64.0066 268.524 63.491C269.768 62.9754 271.103 62.71 272.45 62.71C273.797 62.71 275.131 62.9754 276.376 63.491C277.621 64.0066 278.752 64.7623 279.705 65.7151C280.658 66.6678 281.413 67.7989 281.929 69.0437C282.445 70.2885 282.71 71.6226 282.71 72.97V72.97Z" fill="#E9A394"/>
<path d="M331.2 173.15V220.48H307.6L305.64 179.32L331.2 173.15Z" fill="#E9A394"/>
<path d="M228.08 162.45L229.07 129.47L213.78 177.31L228.08 162.45Z" fill="#1C145C"/>
<path d="M250.61 93.31L265.24 90.17L253.24 100.41L250.61 93.31Z" fill="#E37A82"/>
<path d="M241.95 72.96C242.916 72.96 243.7 71.3258 243.7 69.31C243.7 67.2942 242.916 65.66 241.95 65.66C240.983 65.66 240.2 67.2942 240.2 69.31C240.2 71.3258 240.983 72.96 241.95 72.96Z" fill="#16005C"/>
<path d="M246.71 60.43C246.71 55.53 242.81 58.83 242.81 58.83L246.71 60.43Z" fill="#16005C"/>
<path d="M242.81 82.1L248.39 80.62C248.39 80.62 250.78 101.3 242.81 82.1Z" fill="white"/>
<path d="M122.67 174.79C122.67 174.79 160.29 168.97 161.03 234.56C161.15 245.2 167.92 265.03 167.92 265.03H133.84L122.67 174.79Z" fill="#5321D7"/>
<path d="M83.35 168.97L60.61 174.33L67.55 265.03H156C156 265.03 153 193.27 119.68 171.74L83.35 168.97Z" fill="#6A3FDC"/>
<path d="M60.61 174.33C37.18 179.68 42.67 197.68 47.19 234.59C35.5 244.09 46.72 248.36 46.72 248.36C33.87 261.98 49.89 265.03 49.89 265.03H92.67C92.67 265.03 84.06 168.98 60.61 174.33Z" fill="#6A3FDC"/>
<path d="M90.12 244.08L79.86 196.96" stroke="#5321D7" stroke-miterlimit="10"/>
<path d="M49.8899 265.03C49.8899 265.03 57.1199 248.45 79.9399 240.12C98.8699 233.21 126.55 251.12 144.27 234.12L147.55 253.31L92.6699 265.05L49.8899 265.03Z" fill="#E9A394"/>
<path d="M125.13 122.25L142.06 148.01L131.2 151.88L129.32 172.82L96.6899 161.48L99.7599 118.9L125.13 122.25Z" fill="#E9A394"/>
<path d="M100.02 149.31L83.34 168.96L104.73 195.18L114.38 164.56L100.02 149.31Z" fill="#E37A82"/>
<path d="M105.6 137.14L129.47 128.85L125.13 122.25L101.55 124.7L105.6 137.14Z" fill="#E37A82"/>
<path d="M103.5 146.16C103.5 146.16 110.73 160.63 105.7 132.74C105.7 132.74 112.56 133.51 117.93 124.46C117.93 124.46 116.26 139.21 132.02 124.46C147.78 109.71 127.74 98.17 103.27 102.51C82.0599 106.27 60.8299 118.26 91.8499 158.89L103.5 146.16Z" fill="#16005C"/>
<path d="M99.68 151.91C97.9008 154.307 95.2836 155.946 92.35 156.5C86.53 157.35 80.85 152.76 80 146.94C79.15 141.12 82.09 138.11 87.91 137.26C91.3913 136.837 94.9073 137.698 97.8 139.68C98.66 140.79 99.68 151.91 99.68 151.91Z" fill="#E9A394"/>
<path d="M122.691 143.886C123.56 143.651 123.827 141.848 123.288 139.86C122.748 137.872 121.607 136.451 120.738 136.687C119.869 136.922 119.602 138.725 120.142 140.713C120.681 142.702 121.823 144.122 122.691 143.886Z" fill="#16005C"/>
<path d="M116.09 135.22C116.09 135.22 115.24 130.44 119.68 132.74L116.09 135.22Z" fill="#16005C"/>
<path d="M80.6699 169.77L84.5499 165.32L83.1199 162.02L91.8899 158.89L117.04 171.54L117.97 181.2L113.71 179.85L106.76 205.75L80.6699 169.77Z" fill="#6A3FDC"/>
<path d="M103.38 176.09L117.97 181.2L117.04 171.54" stroke="#5321D7" stroke-miterlimit="10"/>
<path d="M105.74 132.74C105.74 132.74 108.68 149.81 112.97 153.33C114.38 154.48 117.04 151.55 129.32 151.33C136.83 151.18 136.82 177.38 126.86 176.63C116.9 175.88 101.76 169.63 99.49 150.57C97.5 133.79 105.74 132.74 105.74 132.74Z" fill="#16005C"/>
<path d="M117.97 156.5C117.97 156.5 120.5 161.22 125.49 158.02" stroke="#C4C6C5" stroke-miterlimit="10"/>
<path d="M90.9299 254.25H174.93C176.139 254.25 177.299 254.73 178.154 255.586C179.01 256.441 179.49 257.601 179.49 258.81V260.47C179.486 261.069 179.364 261.661 179.131 262.213C178.899 262.764 178.559 263.265 178.133 263.686C177.707 264.106 177.202 264.439 176.647 264.664C176.093 264.89 175.499 265.004 174.9 265H95.4899C94.2805 265 93.1207 264.52 92.2655 263.664C91.4104 262.809 90.9299 261.649 90.9299 260.44V254.22V254.25Z" fill="#1C145E"/>
<path d="M243.1 191.88H145.42C144.023 191.88 142.673 192.386 141.621 193.306C140.569 194.225 139.886 195.495 139.7 196.88L131.83 258.5C131.728 259.312 131.799 260.136 132.04 260.918C132.281 261.7 132.685 262.421 133.226 263.035C133.767 263.649 134.432 264.141 135.178 264.478C135.923 264.815 136.732 264.989 137.55 264.99H235.23C236.628 264.993 237.979 264.487 239.031 263.567C240.083 262.647 240.765 261.376 240.95 259.99L248.82 198.37C248.922 197.558 248.85 196.734 248.61 195.952C248.369 195.17 247.965 194.449 247.424 193.835C246.883 193.221 246.218 192.729 245.472 192.392C244.727 192.055 243.918 191.881 243.1 191.88Z" fill="#1C145E"/>
<path d="M247.82 191.88H150.15C148.753 191.88 147.403 192.386 146.351 193.306C145.299 194.225 144.616 195.495 144.43 196.88L136.56 258.5C136.456 259.312 136.527 260.137 136.767 260.919C137.007 261.702 137.411 262.424 137.952 263.039C138.493 263.653 139.159 264.144 139.906 264.481C140.652 264.817 141.461 264.991 142.28 264.99H239.96C241.358 264.993 242.709 264.487 243.761 263.567C244.813 262.647 245.495 261.376 245.68 259.99L253.55 198.37C253.65 197.558 253.577 196.733 253.335 195.952C253.093 195.17 252.688 194.448 252.147 193.835C251.605 193.221 250.939 192.729 250.193 192.393C249.447 192.056 248.638 191.881 247.82 191.88V191.88Z" fill="#6876EB"/>
<path d="M201.343 235.059C205.409 231.2 205.889 225.104 202.414 221.442C198.939 217.78 192.826 217.94 188.76 221.799C184.694 225.658 184.214 231.754 187.689 235.416C191.163 239.077 197.277 238.918 201.343 235.059Z" fill="white"/>
<path d="M245.69 264.51H124.11" stroke="#1C145E" stroke-miterlimit="10"/>
<path d="M299.43 182.06L339.79 182.82L330.64 133.45L309.18 135.88C309.18 135.88 299.51 150.15 307.18 161.24C315.76 173.76 298.5 174.23 299.43 182.06Z" fill="#16005C"/>
<path d="M309.18 135.88C309.18 135.88 299.51 150.15 307.18 161.24C315.8 173.76 298.58 174.24 299.47 182.06" stroke="#7079F1" stroke-width="2" stroke-miterlimit="10"/>
<path d="M317.23 176.09C317.23 176.09 298.86 194.09 289.18 262.02H309.62L317.23 176.09Z" fill="#7079F1"/>
<path d="M365.76 171.07L357.76 262.02H298.4L305.79 227.29C305.79 227.29 283.18 215.49 317.23 176.09L325.69 171.74L362.5 168.97L365.76 171.07Z" fill="#C3C8FF"/>
<path d="M317.23 216.8C317.23 216.8 313.67 222.89 317.09 227.8L312.09 262.03" stroke="#7079F1" stroke-miterlimit="10"/>
<path d="M308.93 227.44L343.31 228.46" stroke="#7079F1" stroke-miterlimit="10"/>
<path d="M350.09 244.56L346.46 200.82" stroke="#7079F1" stroke-miterlimit="10"/>
<path d="M365.76 171.07C365.76 171.07 369.04 175.2 372.84 184.76C378.22 198.33 384.64 222.83 384.22 262.02H357.77L365.76 171.07Z" fill="#C3C8FF"/>
<path d="M384.22 265.02C384.22 265.02 371 234.8 337.77 243.45C301.47 252.89 288 251.13 288 251.13L285.25 265.02H384.22Z" fill="#E9A394"/>
<path d="M349.62 237.1L337.83 239.74L364.62 265.02H389.87C389.87 265.02 378.98 238.68 349.62 237.1Z" fill="#7079F1"/>
<path d="M350.35 244.94L355.97 243.22" stroke="#C3C8FF" stroke-miterlimit="10"/>
<path d="M288 251.13L270.75 247.56L258.39 265.02H285.24L288 251.13Z" fill="#E9A394"/>
<path d="M317.22 216.8L349.27 184.75L343.31 181.94L365.76 171.07L355.45 164.51H331.47L317.22 182.32L321.16 183.31L317.22 186.06V216.8Z" fill="#7079F1"/>
<path d="M339.63 175.41L350.1 168.17L338.8 142.91L321.28 153.91L326.21 174.87L317.22 216.8L339.63 175.41Z" fill="#E9A394"/>
<path d="M322.69 159.89L334.98 153.48L324.01 165.49L322.69 159.89Z" fill="#E37A82"/>
<path d="M300.23 123.31L294.87 153.06H302.92L311.96 165.49L334.98 153.48L318.88 117.61L300.23 123.31Z" fill="#E9A394"/>
<path d="M298.93 130.53L298.39 133.79L319.63 130.9L319.3 126.83L298.93 130.53Z" fill="#E37A82"/>
<path d="M358.92 121.06C353.61 106.65 347.11 101.06 347.11 101.06C334.11 88.12 311.82 102.48 311.82 102.48C283.29 95.57 294.87 131 294.87 131L318.11 128.15C321.35 147.64 332.97 137.77 332.97 137.77L338.39 147.54C338.39 147.54 332.93 152.37 338.62 160.66C343.32 167.48 332.08 169.8 334.98 177.06L379.9 167.75C379.9 138.23 368.5 147.1 358.92 121.06Z" fill="#16005C"/>
<path d="M293.05 131.26C293.05 131.26 288.94 111.03 296.49 104.45C300.42 101.02 312.82 102.51 312.82 102.51" stroke="#7079F1" stroke-width="2" stroke-miterlimit="10"/>
<path d="M382.84 166.94C382.84 166.94 386.42 153.49 366.84 138.23" stroke="#16005C" stroke-width="2" stroke-miterlimit="10"/>
<path d="M333.64 148.83C338.986 148.83 343.32 144.496 343.32 139.15C343.32 133.804 338.986 129.47 333.64 129.47C328.294 129.47 323.96 133.804 323.96 139.15C323.96 144.496 328.294 148.83 333.64 148.83Z" fill="#E9A394"/>
<path d="M308.93 151.97L314.93 150.49C314.93 150.49 317.03 167.6 308.93 151.97Z" fill="white"/>
<path d="M303.93 141.86C303.93 141.86 305.84 130.22 310.02 141.86" stroke="#1C145E" stroke-width="0.5" stroke-miterlimit="10"/>
<path d="M305.41 133.01C305.41 133.01 307.73 129.07 310.49 133.01H305.41Z" fill="#16005C"/>
<path d="M215.15 28.19C214.166 25.453 212.531 22.9964 210.386 21.0322C208.241 19.068 205.65 17.6551 202.837 16.9154C200.024 16.1758 197.073 16.1316 194.239 16.7865C191.406 17.4415 188.774 18.7761 186.571 20.6751C184.368 22.5741 182.66 24.9805 181.594 27.6868C180.528 30.3931 180.137 33.3181 180.454 36.2093C180.771 39.1005 181.786 41.8713 183.413 44.2826C185.039 46.6938 187.228 48.6732 189.79 50.05C193.528 52.0461 196.719 54.9308 199.08 58.45L199.76 59.45L213.19 54.68L213.07 53.47C212.673 49.1822 213.321 44.8621 214.96 40.88C216.579 36.8168 216.647 32.2998 215.15 28.19V28.19Z" fill="#C3C8FF"/>
<path d="M215.15 28.19C214.166 25.453 212.531 22.9964 210.386 21.0322C208.241 19.068 205.65 17.6551 202.837 16.9154C200.024 16.1758 197.073 16.1316 194.239 16.7865C191.406 17.4415 188.774 18.7761 186.571 20.6751C184.368 22.5741 182.66 24.9805 181.594 27.6868C180.528 30.3931 180.137 33.3181 180.454 36.2093C180.771 39.1005 181.786 41.8713 183.413 44.2826C185.039 46.6938 187.228 48.6732 189.79 50.05C193.528 52.0461 196.719 54.9308 199.08 58.45L199.76 59.45L213.19 54.68L213.07 53.47C212.673 49.1822 213.321 44.8621 214.96 40.88C216.579 36.8168 216.647 32.2998 215.15 28.19V28.19Z" fill="#C3C8FF"/>
<path d="M202.83 55.51L192.12 40.4C192.146 39.9809 192.264 39.5727 192.467 39.2049C192.67 38.8371 192.952 38.5189 193.292 38.2731C193.633 38.0273 194.023 37.8601 194.436 37.7834C194.849 37.7068 195.274 37.7227 195.68 37.83C199.04 38.31 201.05 43.62 198.68 42.76C196.31 41.9 195.43 35.67 199.97 34.76C204.51 33.85 206.02 44.12 203.52 42.13C201.02 40.14 201.52 33.58 206.4 33.52L209.25 55.31" stroke="white" stroke-miterlimit="10"/>
<path d="M208.43 52.5387L202.126 54.8061C199.725 55.6696 198.478 58.3159 199.342 60.7169L200.672 64.4151C201.535 66.8161 204.181 68.0625 206.582 67.199L212.887 64.9317C215.288 64.0682 216.535 61.4218 215.671 59.0208L214.341 55.3227C213.478 52.9217 210.831 51.6753 208.43 52.5387Z" fill="#16005C"/>
<path d="M214.374 49.1778L195.375 56.0103L198.712 65.2885L217.71 58.456L214.374 49.1778Z" fill="#6876EB"/>
<path d="M197.82 11.74L195.92 0.869995" stroke="#C3C8FF" stroke-miterlimit="10"/>
<path d="M184.12 18.21L175.05 9.34" stroke="#C3C8FF" stroke-miterlimit="10"/>
<path d="M174.66 34.32L164.31 35.06" stroke="#C3C8FF" stroke-miterlimit="10"/>
<path d="M212.75 17.69L217.41 9.04999" stroke="#C3C8FF" stroke-miterlimit="10"/>
<path d="M358.59 97.54H422.82C423.948 97.499 425.03 97.0835 425.895 96.3592C426.761 95.6349 427.361 94.643 427.6 93.54L434.23 56.92C434.342 56.4307 434.341 55.9221 434.225 55.4336C434.109 54.9451 433.882 54.4898 433.562 54.103C433.242 53.7162 432.837 53.4083 432.379 53.2031C431.921 52.998 431.422 52.9011 430.92 52.92H366.7C365.571 52.9576 364.487 53.3718 363.621 54.0967C362.755 54.8215 362.156 55.8154 361.92 56.92L355.28 93.54C355.17 94.0291 355.173 94.537 355.289 95.0246C355.406 95.5122 355.633 95.9667 355.953 96.353C356.272 96.7392 356.676 97.0471 357.133 97.2529C357.591 97.4587 358.089 97.5569 358.59 97.54Z" fill="#1C145C"/>
<path d="M410.103 78.0315C411.978 76.3181 412.34 73.6598 410.909 72.0939C409.479 70.5281 406.799 70.6477 404.923 72.3611C403.047 74.0745 402.686 76.7328 404.117 78.2987C405.547 79.8645 408.227 79.7449 410.103 78.0315Z" fill="white"/>
<path d="M397.352 78.0273C399.227 76.3139 399.588 73.6555 398.158 72.0897C396.728 70.5238 394.048 70.6434 392.172 72.3568C390.296 74.0702 389.935 76.7286 391.365 78.2944C392.796 79.8603 395.476 79.7407 397.352 78.0273Z" fill="white"/>
<path d="M384.59 78.033C386.466 76.3196 386.827 73.6613 385.397 72.0954C383.967 70.5296 381.287 70.6492 379.411 72.3626C377.535 74.076 377.174 76.7343 378.604 78.3002C380.035 79.866 382.715 79.7464 384.59 78.033Z" fill="white"/>
<path d="M393.16 95.13L370.84 108.4L374.84 94.09L393.16 95.13Z" fill="#1C145C"/>
<path d="M151.68 92.11H87.4999C86.3728 92.0702 85.2912 91.655 84.427 90.9303C83.5628 90.2056 82.9655 89.213 82.7299 88.11L76.0899 51.49C75.9796 51.0009 75.9828 50.493 76.0994 50.0054C76.216 49.5177 76.4429 49.0633 76.7625 48.677C77.0822 48.2908 77.4861 47.9829 77.9433 47.7771C78.4005 47.5713 78.8988 47.4731 79.3999 47.49H143.63C144.758 47.531 145.84 47.9464 146.705 48.6708C147.571 49.3951 148.171 50.387 148.41 51.49L155.04 88.11C155.152 88.6033 155.148 89.1158 155.028 89.6074C154.909 90.099 154.678 90.5563 154.352 90.9436C154.027 91.3309 153.616 91.6377 153.153 91.8401C152.689 92.0424 152.185 92.1348 151.68 92.11Z" fill="#C3C8FF"/>
<path d="M106.156 72.8557C107.586 71.2899 107.225 68.6315 105.349 66.9181C103.474 65.2047 100.794 65.0851 99.3633 66.6509C97.9329 68.2168 98.294 70.8751 100.17 72.5885C102.046 74.3019 104.726 74.4215 106.156 72.8557Z" fill="white"/>
<path d="M118.912 72.8545C120.342 71.2887 119.981 68.6303 118.105 66.9169C116.229 65.2035 113.549 65.0839 112.119 66.6498C110.689 68.2156 111.05 70.874 112.926 72.5874C114.801 74.3008 117.481 74.4204 118.912 72.8545Z" fill="white"/>
<path d="M131.661 72.8607C133.091 71.2948 132.73 68.6365 130.854 66.9231C128.978 65.2097 126.298 65.0901 124.868 66.6559C123.438 68.2218 123.799 70.8801 125.675 72.5935C127.55 74.3069 130.23 74.4265 131.661 72.8607Z" fill="white"/>
<path d="M128.77 89.71L132.29 102.51L146.54 88.81L128.77 89.71Z" fill="#C3C8FF"/>
</svg>
