<svg width="864" height="517" viewBox="0 0 864 517" fill="none" xmlns="http://www.w3.org/2000/svg">
<path d="M53.4937 516.762L319.803 515.368L390.787 515.346H414.306L485.425 515.324L810.353 515.237C810.353 515.237 884.672 419.055 805.284 327.705C722.975 232.993 682.953 310.118 657.653 176.796C593.966 -158.788 -35.6813 36.5304 129.469 322.099C188.934 424.924 12.4155 370.271 53.4937 516.762Z" fill="#F7F4FF"/>
<path d="M361.531 500.593C361.531 500.593 362.544 512.296 360.069 513.515L328.409 513.449C328.409 513.449 328.409 509.796 333.494 508.984C338.578 508.171 347.513 505.193 349.025 498.562C350.538 491.93 361.531 500.593 361.531 500.593Z" fill="#233862"/>
<path d="M452.391 496.062C452.391 496.062 453.328 512.312 450.869 513.515L419.209 513.449C419.209 513.449 419.209 509.796 424.294 508.984C429.378 508.171 438.313 505.193 439.825 498.562C441.338 491.93 452.391 496.062 452.391 496.062Z" fill="#233862"/>
<path d="M453.469 498.058C453.469 498.058 447.184 501.299 444.494 501.887C441.506 502.546 435.891 502.127 435.891 502.127C425.122 473.259 391.725 355.905 391.725 355.905C390.275 388.355 384.416 420.718 378.331 446.734C378.172 447.43 378.019 448.121 377.844 448.809C377.697 449.434 377.531 450.059 377.4 450.668C377.391 450.695 377.385 450.724 377.381 450.752C369.994 481.452 362.587 502.358 362.587 502.358C362.587 502.358 360.675 504.777 355.35 503.671C349.247 502.421 347.225 499.724 347.225 499.724C351.175 374.68 353.378 304.171 353.378 304.171C353.378 304.171 406.238 275.615 420.597 300.024C434.956 324.434 453.469 498.058 453.469 498.058Z" fill="#2A4E96"/>
<path d="M432.156 316.896C425.303 292.396 424.178 269.134 424.231 249.874C424.303 222.462 426.766 203.155 418.516 199.902C418.516 199.902 393.028 192.493 375.484 189.227C372.691 187.69 369.587 186.077 367.234 185.121C361.697 182.874 340.1 151.48 336.437 143.965C332.775 136.449 326.716 103.702 326.716 103.702L318.3 106.384C318.3 106.384 315.772 143.143 316.984 152.724C318.197 162.305 344.937 203.499 347.156 207.099C356.675 241.896 347.156 298.521 351.506 311.146C353.744 317.64 395.256 329.54 417.962 328.043C419.094 327.968 420.181 327.859 421.212 327.73C426.587 326.984 430.497 325.268 431.928 322.255C432.65 320.78 432.762 319.009 432.156 316.896Z" fill="#AEC3FF"/>
<path d="M326.728 103.702C326.728 103.702 331.484 89.8835 328.006 89.4835C324.528 89.0835 315.8 89.1242 314.725 91.4585C313.65 93.7929 318.312 106.384 318.312 106.384L326.728 103.702Z" fill="#FFB27D"/>
<path d="M314.725 91.4585C314.725 91.4585 314.275 96.2148 315.8 97.1117C317.325 98.0085 317.866 91.4585 317.866 91.4585C317.866 91.4585 317.953 96.8304 319.116 97.196C320.278 97.5617 320.991 91.0085 320.991 91.0085C320.991 91.0085 321.116 96.2148 321.906 96.0335C322.697 95.8523 323.234 91.0085 323.234 91.0085C323.234 91.0085 323.594 94.7867 324.669 94.1085C325.744 93.4304 326.769 89.3773 326.769 89.3773L314.725 91.4585Z" fill="#FFB27D"/>
<path d="M326.728 103.702C326.728 103.702 329.981 101.149 330.697 98.8179C331.413 96.4867 333.525 92.5679 332.403 92.0867C331.281 91.6054 328.006 96.6617 328.006 96.6617L326.728 103.702Z" fill="#FFB27D"/>
<path d="M383.094 185.468L382.688 187.593C382.688 187.593 380.794 194.121 388.781 196.709C396.769 199.296 403.497 200.496 404.291 195.327C404.338 191.215 404.238 184.793 404.831 181.499C405.078 180.164 405.438 178.853 405.909 177.58L390.125 174.143L385.306 173.98L383.094 185.468Z" fill="#FFB27D"/>
<path d="M385.309 173.968L383.841 181.718C398.841 185.69 405.403 178.996 405.912 177.58L390.128 174.143L385.309 173.968Z" fill="#E2915A"/>
<path d="M408.225 174.365C403.575 183.818 390.797 179.877 385.412 177.69C383.897 177.065 382.969 176.602 382.969 176.602C381.337 175.637 381.131 172.58 381.697 168.812C382.809 161.352 386.925 151.096 388.884 148.734C391.859 145.177 396.544 141.743 408.613 148.555C420.681 155.368 414.188 162.255 408.225 174.365Z" fill="#FFB27D"/>
<path d="M387.588 138.124C392.014 138.839 396.523 138.881 400.963 138.249C407.091 137.409 413.244 141.955 415.15 143.762C415.205 143.255 415.147 142.743 414.981 142.262C414.981 142.262 415.788 143.255 415.656 144.293C415.738 144.399 415.769 144.465 415.738 144.474C415.706 144.484 416.934 144.587 417.572 145.121C417.572 145.121 417.081 144.902 416.806 145.18C416.775 145.209 416.739 145.233 416.7 145.249C424.063 151.755 421.075 165.437 417.456 167.78C413.106 170.593 405.638 178.371 405.638 178.371C405.904 176.298 406.508 174.283 407.425 172.405C408.95 169.28 406.103 168.477 402.925 165.968C399.747 163.459 403.925 160.105 401.494 156.671C399.063 153.237 387.097 151.502 387.794 149.593C383.947 146.83 387.469 138.565 387.588 138.124Z" fill="#233862"/>
<path d="M389.506 170.88C389.506 170.88 388.728 172.049 385.612 170.668C385.612 170.668 383 169.512 383.603 168.134C383.603 168.134 386.572 168.093 389.506 170.88Z" fill="white"/>
<path d="M386 202.834C386 202.834 378.812 250.605 324.953 283.771L319.928 298.371H339.365C339.365 298.371 387.594 257.924 390.828 204.199L386 202.834Z" fill="#ED7D2B"/>
<path d="M386 202.834V195.593L394.875 198.105L390.825 204.209L386 202.834Z" fill="#DB6516"/>
<path d="M383.094 185.468L377.9 189.909C377.9 189.909 376.469 196.118 379.969 202.834L390.437 196.849C390.437 196.849 384.253 193.862 383.094 185.468Z" fill="#9DB0F4"/>
<path d="M390.438 196.849C390.438 196.849 391.475 202.474 394.188 205.252C394.188 205.252 405.981 203.19 409.256 197.537L404.344 189.818C404.344 189.818 403.15 195.084 390.438 196.849Z" fill="#9DB0F4"/>
<path d="M461.106 320.668C461.106 320.668 461.128 331.365 460.144 333.48C459.159 335.596 454.744 342.543 452.709 344.018C450.675 345.493 453.15 335.452 452.509 333.615C451.869 331.777 451.088 337.24 450.147 337.465C449.206 337.69 448.95 332.874 448.731 331.137C448.513 329.399 452.744 324.602 454.003 320.718C455.263 316.834 461.106 320.668 461.106 320.668Z" fill="#FFB27D"/>
<path d="M418.362 199.899C418.362 199.899 428.731 202.712 435.759 218.19C443.131 234.409 462.856 270.43 463.572 275.402C464.288 280.374 462.266 326.802 462.266 326.802C462.266 326.802 453.634 327.137 450.969 323.052C450.969 323.052 447.962 282.293 446.634 280.077C445.306 277.862 411.322 237.352 414.197 227.074C417.072 216.796 418.362 199.899 418.362 199.899Z" fill="#AEC3FF"/>
<path d="M431.95 322.243C429.381 324.449 425.909 326.368 421.234 327.718C420.181 328.03 419.078 328.136 417.984 328.03C399.003 326.074 401.922 252.324 411.109 246.877C420.797 241.134 424.234 249.855 424.234 249.855C424.181 269.115 425.306 292.377 432.159 316.877C432.762 319.009 432.65 320.78 431.95 322.243Z" fill="#9DB0F4"/>
<path d="M377.4 450.677C377.525 450.102 377.673 449.483 377.844 448.818C377.697 449.443 377.547 450.065 377.4 450.677Z" fill="#233862"/>
<path d="M378.331 446.743C384.141 419.243 377.878 345.587 380.675 344.187C383.547 342.752 391.725 355.915 391.725 355.915C390.281 388.355 384.416 420.718 378.331 446.743Z" fill="#233862"/>
<path d="M236.31 502.88L234.635 490.821L241.666 484.946L243.881 500.909L236.31 502.88Z" fill="#FFB27D"/>
<path d="M259.656 513.652H230.991C230.991 513.652 230.303 509.277 231.803 505.965C233.237 502.784 235.469 500.821 235.675 498.384C237.497 500.259 239.737 501.468 243.881 500.909C244.39 501.734 247.159 506.14 248.856 507.359C250.731 508.705 259.084 508.224 259.656 513.652Z" fill="#233862"/>
<path d="M253.903 340.055C252.028 355.14 250.494 369.359 249.244 382.612C242.572 453.237 243.881 496.387 243.881 496.387C243.881 496.387 243.406 497.68 239.262 497.68C237.707 497.666 236.157 497.499 234.634 497.18C234.634 497.18 219.697 451.071 220.85 424.83C220.933 421.966 221.323 419.118 222.016 416.337C225.597 402.899 208.753 351.568 227.066 332.449C245.378 313.33 254.766 333.134 253.903 340.055Z" fill="#F99746"/>
<path d="M253.903 340.055C252.028 355.14 250.494 369.359 249.244 382.612L220.85 424.834C220.933 421.969 221.323 419.121 222.016 416.34C225.597 402.902 208.753 351.571 227.066 332.452C245.378 313.334 254.766 333.134 253.903 340.055Z" fill="#ED7D2B"/>
<path d="M276.466 196.187C276.466 196.187 275.775 192.749 274.997 190.112C274.653 188.949 277.053 181.305 278.716 180.365C280.378 179.424 284.7 184.571 283.478 188.524C282.853 190.552 281.816 197.159 281.816 197.159L276.466 196.187Z" fill="#FFB27D"/>
<path d="M276.466 196.187C276.466 196.187 275.563 194.19 274.75 193.865C273.938 193.54 273.059 190.274 272.459 188.98C272.459 188.98 273.038 188.134 274.05 189.221C274.675 189.887 276.044 191.837 276.044 191.837L276.466 196.187Z" fill="#FFB27D"/>
<path d="M158.109 207.78C157.934 208.143 157.691 208.79 157.484 209.399C157.484 209.234 157.484 209.068 157.484 208.909C157.484 207.693 152.941 201.096 151.078 200.674C149.216 200.252 146.584 206.449 148.909 209.871C150.106 211.627 153.028 217.643 153.028 217.643L157.856 215.143C157.856 215.143 158.134 212.955 158.822 212.418C159.509 211.88 159.384 208.49 159.578 207.077C159.559 207.084 158.759 206.43 158.109 207.78Z" fill="#FFB27D"/>
<path d="M188.225 499.265C187.822 495.399 187.719 485.234 187.719 485.234C187.719 485.234 198.081 481.921 197.7 484.193C195.825 495.374 196.334 500.909 196.334 500.909L192.144 503.409L188.225 499.265Z" fill="#FFB27D"/>
<path d="M245.25 339.337C245.25 339.337 205.222 449.059 197.344 496.652C197.344 496.652 195.516 497.902 192.112 497.49C188.25 497.018 187.191 494.337 187.191 494.337C187.191 494.337 179.969 437.293 194.344 417.49C204.216 403.884 190.084 344.13 213.094 339.337C236.103 334.543 245.25 339.337 245.25 339.337Z" fill="#F99746"/>
<path d="M238.141 233.793C238.135 233.744 238.125 233.696 238.109 233.649C237.875 232.684 237.619 231.734 237.344 230.79C236.553 228.042 235.581 225.35 234.434 222.73C233.86 221.424 233.219 220.147 232.516 218.905C232.416 218.727 232.319 218.562 232.225 218.393C230.663 215.793 229.1 213.996 227.653 213.44C225.038 212.427 222.128 212.712 220.122 213.127C220.563 212.502 221.559 212.165 221.559 212.165C220.278 212.165 217.666 213.824 217.666 213.824C199.228 209.702 200.306 235.78 201.563 241.69C202.819 247.599 196.875 250.474 188.506 256.521C172.531 268.062 172.8 280.296 172.8 280.296C172.944 280.355 173.113 280.424 173.263 280.509C173.906 278.924 175.269 275.93 176.7 275.296C176.659 275.437 175.497 279.318 175.166 281.49C177.6 282.83 180.966 284.909 184.622 287.252C189.516 290.377 194.916 293.987 199.241 296.912C199.034 295.721 198.831 294.024 199.134 293.065L200.513 297.337L200.694 297.893C203.456 299.768 205.634 301.262 206.741 302.027L207.053 302.237L207.547 302.58C207.181 301.071 208.797 297.134 211.497 292.174C211.684 291.827 211.881 291.477 212.081 291.121C212.953 289.559 213.928 287.899 214.978 286.196C215.356 285.571 215.738 284.965 216.134 284.321C216.447 283.815 216.759 283.315 217.106 282.802C217.89 281.59 218.697 280.372 219.528 279.149C221.672 275.984 223.941 272.843 226.181 269.959C229.438 265.765 232.631 262.115 235.306 259.727C235.394 259.546 235.478 259.365 235.553 259.177C235.973 258.159 236.301 257.105 236.531 256.027C236.61 255.696 236.679 255.365 236.738 255.034C237.199 252.455 237.424 249.84 237.409 247.221C237.611 249.845 237.578 252.481 237.313 255.099C237.259 255.524 237.203 255.918 237.141 256.28C237.025 256.981 236.863 257.673 236.656 258.352C237.103 257.796 237.492 257.196 237.819 256.562C238.048 256.129 238.25 255.682 238.425 255.224C240.594 249.715 240.009 241.499 238.141 233.793Z" fill="#163560"/>
<path d="M234.675 260.212C234.738 260.23 229.516 264.012 225.084 263.48C220.916 262.984 217.528 258.168 217.584 258.168C219.231 257.58 219.372 255.177 217.847 245.168L218.638 245.205L231.906 245.83C231.906 245.83 232.219 249.93 232.778 253.752C233.244 256.965 233.891 259.977 234.675 260.212Z" fill="#FFB27D"/>
<path d="M231.903 245.83C231.903 245.83 232.216 249.93 232.775 253.752C225.531 254.624 220.738 248.609 218.634 245.196L231.903 245.83Z" fill="#ED975D"/>
<path d="M217.094 243.99C217.094 243.99 212.425 238.577 210.756 233.618C209.566 230.068 209.412 216.274 223.284 216.202C226.076 216.174 228.839 216.773 231.369 217.955C234.616 219.518 239.494 223.177 236.506 235.68L235.862 239.846L217.094 243.99Z" fill="#163560"/>
<path d="M255.575 337.23C255.575 337.23 238.306 347.493 216.622 342.23C216.366 342.168 198.769 339.359 198.769 339.359C199.081 338.53 201.344 324.937 201.644 324.177C205.491 314.249 212.519 260.374 218.394 257.718C219.894 259.349 224.178 260.468 227.847 260.143C232.072 259.768 233.472 257.955 233.138 255.98C237.825 258.19 241.403 260.246 241.403 260.246C245.675 266.637 255.575 337.23 255.575 337.23Z" fill="white"/>
<path d="M234.85 249.09C234.85 249.09 217.825 251.902 216.231 241.277C214.637 230.652 211.369 223.852 222.169 221.59C232.969 219.327 235.697 223.08 237.09 226.499C238.484 229.918 239.24 248.084 234.85 249.09Z" fill="#FFB27D"/>
<path d="M229.906 220.18C229.906 220.18 227.094 233.349 220.191 236.259C213.287 239.168 209.897 237.712 209.897 237.712C209.897 237.712 214.747 232.524 214.756 224.724C214.756 224.734 225.5 214.777 229.906 220.18Z" fill="#163560"/>
<path d="M228.9 221.374C228.9 221.374 232.803 223.64 234.056 226.221C235.309 228.802 236.522 234.318 238.119 233.887C238.119 233.887 240.378 224.884 235.709 220.677C230.756 216.215 228.9 221.374 228.9 221.374Z" fill="#163560"/>
<path d="M281.931 196.43C281.237 196.187 280.219 195.609 278.887 195.493C277.987 195.459 277.086 195.553 276.212 195.774C276.212 195.774 271.409 225.634 271.053 227.215C270.697 228.796 250.447 251.59 244.991 251.515C240.059 251.43 234.222 255.237 233.137 255.968C233.137 255.968 244.616 280.243 245.187 284.802C245.812 289.765 251.75 366.168 251.75 366.168C251.75 366.168 251.397 369.724 258.037 367.812C264.678 365.899 266.341 364.321 266.341 364.321C266.341 364.321 260.241 304.168 258.959 285.462C258.802 283.103 258.412 280.765 257.794 278.484C257.522 277.46 257.484 276.389 257.682 275.349C257.88 274.309 258.309 273.326 258.937 272.474C267.334 260.946 280.594 242.274 281.331 238.305C282.422 232.471 281.931 196.43 281.931 196.43Z" fill="#2B478B"/>
<path d="M212.116 513.652H183.444C183.444 513.652 182.756 509.277 184.253 505.965C185.687 502.784 187.922 500.821 188.125 498.384C189.947 500.259 192.187 501.468 196.334 500.909C196.841 501.734 199.612 506.14 201.309 507.359C203.181 508.705 211.531 508.224 212.116 513.652Z" fill="#233862"/>
<path d="M231.809 287.159C230.844 281.221 218.506 257.337 218.506 257.337C218.506 257.337 210.694 255.005 205.575 256.865C200.456 258.724 173.884 243.74 173.031 242.349C172.178 240.959 157.956 214.462 157.956 214.462C157.956 214.462 156.775 213.78 154.887 214.774C154.351 215.049 153.896 215.459 153.567 215.964C153.238 216.469 153.047 217.051 153.012 217.652C153.012 217.652 163.991 251.024 166.909 256.187C168.672 259.312 183.472 270.14 194.959 278.255C196.036 279.014 196.884 280.053 197.411 281.261C197.937 282.468 198.121 283.797 197.944 285.102C196.4 296.515 196.006 302.943 194.231 322.524C192.759 338.774 192.194 370.221 192.194 370.221C192.194 370.221 205.041 374.665 213.909 375.255C222.778 375.846 224.706 366.505 224.706 366.505C224.706 366.505 232.803 293.274 231.809 287.159Z" fill="#2B478B"/>
<path d="M229.272 243.837C230.653 244.576 232.229 244.872 233.784 244.684C235.456 244.434 235.834 242.449 235.834 242.449C235.834 242.449 234.672 242.08 232.819 242.449C231.574 242.733 230.379 243.201 229.272 243.837V243.837Z" fill="white"/>
<path d="M560.925 241.609C560.925 241.609 566.219 250.324 556.272 255.805C556.272 255.805 563.916 258.562 566.584 257.521C566.24 257.883 565.851 258.198 565.425 258.459C565.425 258.459 572.612 260.74 576.187 259.493C579.762 258.246 587.481 223.468 566.278 221.634C566.278 221.634 549.553 215.643 546.016 234.309C542.478 252.974 536.041 251.162 536.041 251.162C536.041 251.162 537.603 252.48 538.466 252.724C538.466 252.724 539.856 252.634 540.287 252.059C540.287 252.059 539.753 252.996 539.35 253.234C539.35 253.234 546.131 255.796 550.287 254.352C554.444 252.909 560.859 245.643 560.925 241.609Z" fill="#163560"/>
<path d="M539.656 516.193H566.706C566.706 516.193 567.353 512.071 565.941 508.943C564.587 505.94 562.481 504.087 562.287 501.79C560.569 503.559 558.456 504.696 554.544 504.171C554.066 504.949 551.45 509.105 549.856 510.255C548.069 511.524 540.184 511.074 539.656 516.193Z" fill="#233862"/>
<path d="M561.994 505.862C560.456 506.336 558.876 506.657 557.275 506.821C553.016 507.202 552.394 505.934 552.394 505.934C552.394 505.934 548.159 468.24 534.453 396.193C532.478 385.787 531.697 380.027 530.981 370.78C530.769 368.009 530.559 364.93 530.331 361.318C529.706 351.605 531.184 335.265 538.456 330.968C541.769 329.012 546.269 329.549 552.35 334.33C552.828 334.705 553.319 335.109 553.816 335.54C571.575 350.905 564.294 395.024 565.012 415.768C565.131 419.205 565.472 422.002 566.181 423.918C567.097 426.396 569.066 429.834 569.512 433.068C573.256 459.971 561.994 505.862 561.994 505.862Z" fill="#2B478B"/>
<path d="M565.028 415.768L530.966 370.768C530.753 367.996 530.544 364.918 530.316 361.305C529.691 351.593 531.169 335.252 538.441 330.955L552.334 334.318C552.813 334.693 553.303 335.096 553.8 335.527C571.591 350.905 564.309 395.024 565.028 415.768Z" fill="#233862"/>
<path d="M661.263 459.265L650.012 434.668C650.012 434.668 645.994 435.793 643.738 438.38C641.572 440.862 639.988 440.418 635.072 436.996C636.928 439.865 637.178 441.555 638.328 445.327C639.234 445.44 644.391 450.43 649.675 451.805C651.772 452.368 656.378 460.899 661.263 459.265Z" fill="#233862"/>
<path d="M543.222 341.765C543.222 341.765 567.463 426.03 576.347 431.452C585.231 436.874 631.925 444.337 641.416 448.405C641.416 448.405 642.572 446.749 641.894 443.205C641.744 442.421 640.403 439.59 640.403 439.59C640.403 439.59 611.406 417.793 592.319 415.593C587.584 415.046 601.963 342.715 569.956 339.824C540.716 337.187 543.222 341.765 543.222 341.765Z" fill="#2B478B"/>
<path d="M508.641 203.515C508.641 203.515 509.294 200.262 510.028 197.78C510.341 196.684 508.088 189.471 506.519 188.584C504.95 187.696 500.872 192.552 502.025 196.284C502.619 198.199 503.588 204.43 503.588 204.43L508.641 203.515Z" fill="#FFB27D"/>
<path d="M508.641 203.515C508.641 203.515 509.494 201.64 510.262 201.327C511.031 201.015 511.856 197.937 512.422 196.715C512.422 196.715 511.875 195.915 510.922 196.946C510.338 197.571 509.047 199.412 509.047 199.412L508.641 203.515Z" fill="#FFB27D"/>
<path d="M620.309 214.449C620.475 214.793 620.706 215.405 620.909 215.977V215.515C620.909 214.368 625.194 208.137 626.953 207.746C628.712 207.355 631.191 213.196 628.997 216.424C627.869 218.08 625.112 223.755 625.112 223.755L620.556 221.402C620.556 221.402 620.294 219.349 619.647 218.834C619 218.318 619.116 215.127 618.931 213.793C618.941 213.793 619.697 213.187 620.309 214.449Z" fill="#FFB27D"/>
<path d="M548.069 263.93C548.012 263.949 552.941 267.515 557.131 267.015C561.063 266.546 564.262 262.015 564.209 261.996C562.647 261.44 562.525 259.184 563.963 249.727L563.219 249.765L550.697 250.362C550.697 250.362 550.406 254.23 549.878 257.84C549.422 260.855 548.812 263.699 548.069 263.93Z" fill="#FFB27D"/>
<path d="M550.684 250.349C550.684 250.349 550.394 254.218 549.866 257.827C556.7 258.646 561.219 252.974 563.206 249.752L550.684 250.349Z" fill="#ED975D"/>
<path d="M564.656 248.618C564.656 248.618 569.063 243.512 570.634 238.821C571.756 235.471 571.884 222.459 558.813 222.387C556.179 222.361 553.573 222.927 551.188 224.043C548.125 225.509 543.506 228.968 546.341 240.765L546.947 244.696L564.656 248.618Z" fill="#163560"/>
<path d="M532.366 338.518C532.366 338.518 544.647 346.268 565.103 341.29C565.344 341.23 576.734 339.415 576.734 339.415C576.45 338.634 564.478 318.859 564.2 318.14C560.569 308.765 568.975 264.062 563.431 261.552C562.016 263.093 557.972 264.149 554.513 263.843C550.525 263.49 549.2 261.768 549.513 259.915C545.103 261.999 541.7 263.94 541.7 263.94C537.691 269.98 532.366 338.518 532.366 338.518Z" fill="#FFB27D"/>
<path d="M547.903 253.427C547.903 253.427 563.969 256.087 565.472 246.059C566.975 236.03 570.059 229.618 559.866 227.496C549.672 225.374 547.103 228.899 545.787 232.124C544.472 235.349 543.766 252.474 547.903 253.427Z" fill="#FFB27D"/>
<path d="M552.569 226.159C552.569 226.159 555.228 238.584 561.734 241.327C568.241 244.071 571.447 242.699 571.447 242.699C571.447 242.699 566.872 237.802 566.866 230.446C566.866 230.446 556.728 221.052 552.569 226.159Z" fill="#163560"/>
<path d="M553.519 227.277C553.519 227.277 549.838 229.415 548.653 231.849C547.469 234.284 546.328 239.49 544.822 239.08C544.822 239.08 542.691 230.59 547.097 226.618C551.769 222.409 553.519 227.277 553.519 227.277Z" fill="#163560"/>
<path d="M624.078 223.755C624.078 223.755 613.719 255.243 610.953 260.112C609.291 263.049 590.641 274.668 579.8 282.324C579.632 282.464 579.491 282.634 579.384 282.824C576.681 287.005 568.278 312.88 570.287 317.512C578.725 337.03 584.522 344.58 586.628 350.055C586.878 350.704 586.995 351.397 586.972 352.092C586.95 352.787 586.788 353.47 586.497 354.102C586.205 354.733 585.79 355.3 585.276 355.768C584.762 356.236 584.159 356.596 583.503 356.827C578.749 358.515 573.859 359.794 568.887 360.652C567.737 360.861 566.555 361.038 565.341 361.183C548.694 363.296 537.422 359.39 531.7 356.496C530.377 355.827 529.277 354.787 528.536 353.502C527.795 352.218 527.445 350.745 527.528 349.265C527.872 343.09 530.966 336.977 532.353 322.127C533.406 310.858 523.684 293.708 524.097 287.712C524.259 285.34 526.125 282.502 527.134 280.665C528.922 277.409 529.903 274.468 528.697 272.833C520.775 261.962 503.669 246.968 502.969 243.224C501.947 237.721 502.409 203.718 502.409 203.718C503.062 203.49 504.025 202.946 505.281 202.834C506.13 202.801 506.979 202.889 507.803 203.096C507.803 203.096 512.334 231.271 512.672 232.762C513.009 234.252 532.156 255.805 537.294 255.712C541.944 255.634 548.5 259.224 549.522 259.915C546.724 265.34 544.955 271.236 544.306 277.305C543.578 284.293 548.247 281.187 551.181 276.399C555.15 269.921 563.137 260.696 563.137 260.696C563.137 260.696 569.637 259.005 574.481 260.762C579.325 262.518 604.384 248.368 605.184 247.065C605.984 245.762 619.409 220.755 619.409 220.755C619.409 220.755 620.522 220.112 622.306 221.04C622.812 221.299 623.242 221.686 623.553 222.162C623.863 222.639 624.044 223.188 624.078 223.755V223.755Z" fill="#F99746"/>
<path d="M552.569 247.993C552.569 247.993 551.881 249.38 550.959 249.405C550.038 249.43 547.688 249.209 547.522 248.968C547.303 248.418 547.12 247.854 546.975 247.28C546.975 247.28 550.859 247.112 552.569 247.993Z" fill="white"/>
<path d="M583.516 356.852C578.761 358.54 573.872 359.819 568.9 360.677C563.156 352.759 553.434 342.796 555.938 324.468C558.522 305.524 577.147 285.587 579.375 282.837C576.672 287.018 568.269 312.893 570.278 317.524C578.716 337.043 584.512 344.593 586.619 350.068C586.871 350.716 586.99 351.409 586.97 352.104C586.95 352.799 586.791 353.483 586.501 354.116C586.212 354.749 585.799 355.317 585.286 355.787C584.773 356.257 584.171 356.619 583.516 356.852V356.852Z" fill="#ED7D2B"/>
<path d="M527.156 280.69C528.944 277.434 529.925 274.493 528.719 272.858C520.797 261.987 503.691 246.993 502.991 243.249C504.688 247.312 525.403 259.474 531.228 264.699C536.997 269.868 527.384 280.437 527.156 280.69Z" fill="#ED7D2B"/>
<path d="M179.419 130.743C179.419 130.743 183.3 136.055 182.885 142.127C182.572 146.63 178.563 151.19 178.291 151.365L184.625 154.743C184.625 154.743 189.313 146.405 187.75 139.43C187.266 137.296 185.019 133.88 183.375 132.355C182.294 131.358 180.889 130.786 179.419 130.743Z" fill="#6BB7BF"/>
<path d="M166.469 131.309L162.469 122.44C162.469 122.44 181.191 123.065 187.394 138.327C187.381 138.327 174.281 128.984 166.469 131.309Z" fill="#86D1CD"/>
<path d="M95.7499 356.918C95.7499 356.918 91.2874 353.549 90.1249 348.515C89.2686 344.765 91.4124 340.077 91.5905 339.877L85.6092 338.684C85.6092 338.684 83.8374 346.621 86.8374 351.896C87.7561 353.512 90.4218 355.737 92.1499 356.583C93.2704 357.125 94.5488 357.244 95.7499 356.918Z" fill="#6BB7BF"/>
<path d="M106.141 353.28L111.581 359.502C111.581 359.502 96.2062 363.587 87.4155 352.709C87.4155 352.709 100.359 357.087 106.141 353.28Z" fill="#86D1CD"/>
<path d="M780.047 385.899C780.047 385.899 779.656 380.052 790.634 377.221C795.553 375.952 806.51 378.209 799.566 388.987C792.341 400.196 785.9 396.149 785.9 396.149C785.9 396.149 800.966 384.359 794.938 378.962C788.284 373.024 785.728 384.802 785.728 384.802C783.78 384.783 781.848 385.156 780.047 385.899Z" fill="#F1A34F"/>
<path d="M783.944 396.824C783.944 396.824 779.838 394.602 781.466 389.668L787.366 390.693C787.366 390.693 785.097 396.034 790.647 396.68C790.647 396.68 785.306 397.949 783.944 396.824Z" fill="#DB7714"/>
<path d="M398.969 83.1898C398.969 83.1898 405.103 74.3554 414.509 80.6117L420.237 75.1335C420.237 75.1335 414.884 71.071 402.541 78.3586C394.462 83.1242 398.969 83.1898 398.969 83.1898Z" fill="#5685D8"/>
<path d="M392.916 91.8492C392.916 91.8492 391.703 81.7085 408.675 75.3835C408.675 75.3835 402.541 78.3585 400.647 88.4648L392.916 91.8492Z" fill="#739AF0"/>
<path d="M461.106 38.071C461.106 38.071 466.106 34.9023 466.65 31.0742C466.65 31.0742 471.534 31.3398 472.587 32.9242C472.587 32.9242 470.344 39.2585 467.703 40.446C467.706 40.446 461.766 40.8429 461.106 38.071Z" fill="#F99746"/>
<path d="M299.691 399.521C299.691 399.521 294.341 396.143 293.778 392.059C293.778 392.059 288.566 392.34 287.441 394.03C287.441 394.03 289.834 400.79 292.65 402.055C292.65 402.055 298.987 402.477 299.691 399.521Z" fill="#F99746"/>
<path d="M519.344 137.88C519.344 137.88 524.719 134.484 525.281 130.38C525.281 130.38 530.513 130.662 531.644 132.362C531.644 132.362 529.241 139.149 526.413 140.421C526.403 140.424 520.038 140.849 519.344 137.88Z" fill="#86D1CD"/>
<path d="M623.928 293.499C623.928 293.499 620.822 289.73 619.15 289.199C617.478 288.668 614.247 286.168 613.838 287.199C613.428 288.23 616.009 289.821 615.872 290.999C615.734 292.177 607.622 294.071 607.672 295.318C607.722 296.565 609.581 299.58 612.672 299.237C615.763 298.893 623.61 297.027 625.228 297.83C626.847 298.634 623.928 293.499 623.928 293.499Z" fill="#FFB27D"/>
<path d="M707.609 275.159C703.295 280.911 698.075 285.926 692.153 290.005C674.634 302.193 655.634 304.005 655.634 304.005C651.078 302.549 637.091 301.027 628.825 299.696C625.219 299.115 622.706 298.571 622.537 298.087L622.744 290.899C622.744 290.899 653.084 289.296 658.109 286.965C666.031 280.14 673.031 271.277 677.591 264.352C681.444 258.505 685.756 254.187 692.863 251.652C703.141 247.974 721.844 256.049 707.609 275.159Z" fill="#AEC3FF"/>
<path d="M693.697 285.474L692.153 290.005C674.634 302.193 655.634 304.005 655.634 304.005C651.975 304.005 637.091 301.027 628.825 299.696C629.137 299.721 651.325 301.455 656.231 300.946C661.137 300.437 684.162 280.509 684.162 280.509L693.697 285.474Z" fill="#9DB0F4"/>
<path d="M673.891 513.652H707.422C709.822 512.021 706.772 496.093 706.772 496.093C706.772 496.093 697.622 492.621 696.041 499.684C694.459 506.746 684.384 508.984 679.056 509.843C675.409 510.437 674.256 512.44 673.891 513.652Z" fill="#233862"/>
<path d="M723.619 513.652H757.156C759.559 512.021 756.509 496.093 756.509 496.093C756.509 496.093 747.359 492.621 745.778 499.684C744.197 506.746 734.122 508.984 728.794 509.843C725.134 510.437 723.984 512.44 723.619 513.652Z" fill="#233862"/>
<path d="M682.912 351.162C682.912 351.162 684.419 369.965 686.191 392.565C688.597 423.268 695.091 499.393 695.091 499.393C695.091 499.393 699.35 503.024 708.778 501.037C708.778 501.037 716.803 474.787 719.203 444.787C719.241 444.295 719.278 443.801 719.316 443.305C721.55 412.793 725.022 348.54 725.022 348.54L682.912 351.162Z" fill="#2B478B"/>
<path d="M682.397 344.662C682.397 344.662 684.419 369.974 686.191 392.565L719.203 444.802C719.241 444.311 719.278 443.817 719.316 443.321C721.55 412.809 725.022 348.555 725.022 348.555L682.397 344.662Z" fill="#233862"/>
<path d="M692.019 344.662C692.019 344.662 715.963 404.265 723.619 426.849C729.072 442.943 744.447 499.399 744.447 499.399C744.447 499.399 751.135 501.433 756.753 497.499C756.753 497.499 762.475 439.821 750.919 423.559C744.788 414.93 749.397 333.871 724.538 333.168C699.678 332.465 692.019 344.662 692.019 344.662Z" fill="#2B478B"/>
<path d="M702.716 256.802C705.876 258.485 709.535 258.977 713.028 258.19C715.514 257.63 717.881 256.631 720.016 255.24C721.012 254.614 721.953 253.904 722.828 253.118C722.828 253.118 722.706 252.937 722.497 252.587C721.419 250.74 718.144 244.099 719.6 233.427C719.619 233.29 718.563 233.487 716.966 233.865C712.216 234.99 702.663 237.699 702.241 237.818H702.225C702.225 237.818 702.106 240.062 701.716 244.087C701.681 244.44 701.647 244.812 701.606 245.193C701.559 245.665 701.509 246.168 701.45 246.68C701.019 250.862 702.716 256.802 702.716 256.802Z" fill="#FFB27D"/>
<path d="M701.725 244.087C708.816 245.712 719.4 235.24 719.4 235.24C718.653 234.681 717.838 234.219 716.975 233.865C712.225 234.99 702.672 237.699 702.25 237.818H702.234C702.234 237.818 702.116 240.062 701.725 244.087Z" fill="#ED975D"/>
<path d="M699.312 237.252C701.47 237.981 703.691 238.504 705.947 238.815C711.387 239.549 718.534 239.127 720.781 232.537C724.566 221.465 729.397 214.824 718.281 210.302C712.322 207.88 708.506 207.752 705.919 208.677C703.669 209.474 702.341 211.068 701.337 212.643C699.159 216.015 694.809 235.315 699.312 237.252Z" fill="#FFB27D"/>
<path d="M692.559 213.502C699.006 218.134 707.922 213.58 710.684 214.812C713.447 216.043 713.95 220.687 714 222.162C714.05 223.637 714.244 224.884 718.006 223.999C718.455 223.85 718.944 223.879 719.372 224.08C720.934 225.018 718.937 229.493 718.334 230.465C718.334 230.465 717.472 233.677 719.391 235.24C719.622 235.427 723.394 237.077 732.484 223.165C733.913 220.977 735.278 216.065 733.072 211.327C730.866 206.59 721.653 202.015 713.844 199.587C710.916 198.677 708.747 198.712 707.047 199.334C704.216 200.371 702.706 203.046 701.206 205.734C698.719 210.252 692.559 213.502 692.559 213.502Z" fill="#A9453D"/>
<path d="M734.031 348.831C734.031 348.831 730.906 349.506 726.969 350.171C723.109 350.818 718.456 351.456 715.169 351.421C698.359 351.29 684.288 346.34 684.288 346.34C681.128 346.34 679.681 341.446 679.166 334.618C678.816 329.993 678.891 324.477 679.141 318.993C679.222 317.215 679.325 315.44 679.434 313.699C679.656 310.243 679.916 306.93 680.15 304.012C680.372 301.262 680.572 298.849 680.691 296.98C680.691 296.98 680.241 283.893 680.419 272.38C680.544 264.118 685.181 256.599 686.356 255.371C689.722 251.812 699.481 249.562 701.425 249.252L701.653 249.218C709.672 253.721 720.469 247.637 720.469 247.637C720.712 247.677 720.953 247.737 721.191 247.787C721.984 247.618 730.087 248.818 731.975 249.846C736.637 252.39 739.344 280.584 739.344 280.584C740.122 299.734 739.144 330.406 740.659 342.112C741.147 345.962 737.416 348.049 734.031 348.831Z" fill="#AEC3FF"/>
<path d="M721.122 247.793C721.122 247.793 709.175 260.115 700.634 257.59C700.634 257.59 699.497 255.927 703.344 255.402C707.191 254.877 711.344 255.077 721.122 247.793Z" fill="#9DB0F4"/>
<path d="M699.228 230.102C699.228 230.102 698.997 231.537 702.328 232.68C702.328 232.68 705.141 233.64 705.637 232.171C705.637 232.171 703.406 230.055 699.228 230.102Z" fill="white"/>
<path d="M727.672 294.409C727.672 294.409 710.322 323.427 700.484 328.537C693.831 331.974 684.513 333.809 679.175 334.627C678.825 330.002 678.9 324.487 679.15 319.002C686.2 318.149 696.941 316.787 696.941 316.787L727.672 294.409Z" fill="#9DB0F4"/>
<path d="M704.819 279.827L695.572 313.209C695.572 313.209 684.691 313.899 679.438 313.709C679.659 310.252 679.666 310.137 679.9 307.205C679.9 307.205 692.394 300.693 704.819 279.827Z" fill="#9DB0F4"/>
<path d="M649.134 315.68C649.134 315.68 646.025 311.912 644.356 311.38C642.688 310.849 639.45 308.349 639.028 309.38C638.606 310.412 641.216 312.002 641.066 313.18C640.916 314.358 632.816 316.252 632.866 317.499C632.916 318.746 634.775 321.762 637.866 321.418C640.956 321.074 648.803 319.208 650.422 320.012C652.041 320.815 649.134 315.68 649.134 315.68Z" fill="#FFB27D"/>
<path d="M740.297 269.368C740.297 269.368 740.844 287.049 700.544 322.521L692.469 308.027C690.978 307.158 718.5 247.959 726.413 248.434C741.722 249.346 740.297 269.368 740.297 269.368Z" fill="#AEC3FF"/>
<path d="M697.272 306.299C697.272 306.299 651.441 311.537 649.747 312.449C648.053 313.362 644.409 316.905 645.622 321.352C645.622 321.352 669.344 324.334 682.397 324.28C693.647 324.23 700.941 322.427 700.941 322.427L697.272 306.299Z" fill="#AEC3FF"/>
<path d="M1.05625 513.515H862.103C862.384 513.515 862.653 513.626 862.852 513.825C863.051 514.024 863.162 514.293 863.162 514.574V515.137C863.162 515.418 863.051 515.687 862.852 515.886C862.653 516.084 862.384 516.196 862.103 516.196H1.05625C0.776112 516.196 0.507452 516.085 0.309367 515.887C0.111282 515.689 0 515.42 0 515.14V514.577C0 514.297 0.111282 514.028 0.309367 513.83C0.507452 513.632 0.776112 513.521 1.05625 513.521V513.515Z" fill="#2E3552"/>
</svg>
